G04 #@! TF.GenerationSoftware,KiCad,Pcbnew,(5.1.6)-1*
G04 #@! TF.CreationDate,2020-06-08T09:52:31+03:00*
G04 #@! TF.ProjectId,Z80,5a38302e-6b69-4636-9164-5f7063625858,rev?*
G04 #@! TF.SameCoordinates,Original*
G04 #@! TF.FileFunction,Copper,L2,Bot*
G04 #@! TF.FilePolarity,Positive*
%FSLAX46Y46*%
G04 Gerber Fmt 4.6, Leading zero omitted, Abs format (unit mm)*
G04 Created by KiCad (PCBNEW (5.1.6)-1) date 2020-06-08 09:52:31*
%MOMM*%
%LPD*%
G01*
G04 APERTURE LIST*
G04 #@! TA.AperFunction,ComponentPad*
%ADD10C,1.800000*%
G04 #@! TD*
G04 #@! TA.AperFunction,ComponentPad*
%ADD11R,1.800000X1.800000*%
G04 #@! TD*
G04 #@! TA.AperFunction,ComponentPad*
%ADD12O,1.600000X1.600000*%
G04 #@! TD*
G04 #@! TA.AperFunction,ComponentPad*
%ADD13R,1.600000X1.600000*%
G04 #@! TD*
G04 #@! TA.AperFunction,ComponentPad*
%ADD14C,0.900000*%
G04 #@! TD*
G04 #@! TA.AperFunction,ComponentPad*
%ADD15C,8.600000*%
G04 #@! TD*
G04 #@! TA.AperFunction,ComponentPad*
%ADD16R,1.700000X1.700000*%
G04 #@! TD*
G04 #@! TA.AperFunction,ComponentPad*
%ADD17O,1.700000X1.700000*%
G04 #@! TD*
G04 #@! TA.AperFunction,Conductor*
%ADD18C,1.000000*%
G04 #@! TD*
G04 #@! TA.AperFunction,Conductor*
%ADD19C,0.500000*%
G04 #@! TD*
G04 #@! TA.AperFunction,Conductor*
%ADD20C,0.254000*%
G04 #@! TD*
G04 APERTURE END LIST*
D10*
X77724000Y-56896000D03*
D11*
X80264000Y-56896000D03*
D10*
X77734160Y-64147700D03*
D11*
X80274160Y-64147700D03*
D10*
X77724000Y-71120000D03*
D11*
X80264000Y-71120000D03*
G04 #@! TA.AperFunction,SMDPad,CuDef*
G36*
G01*
X47013810Y-66416340D02*
X47926310Y-66416340D01*
G75*
G02*
X48170060Y-66660090I0J-243750D01*
G01*
X48170060Y-67147590D01*
G75*
G02*
X47926310Y-67391340I-243750J0D01*
G01*
X47013810Y-67391340D01*
G75*
G02*
X46770060Y-67147590I0J243750D01*
G01*
X46770060Y-66660090D01*
G75*
G02*
X47013810Y-66416340I243750J0D01*
G01*
G37*
G04 #@! TD.AperFunction*
G04 #@! TA.AperFunction,SMDPad,CuDef*
G36*
G01*
X47013810Y-64541340D02*
X47926310Y-64541340D01*
G75*
G02*
X48170060Y-64785090I0J-243750D01*
G01*
X48170060Y-65272590D01*
G75*
G02*
X47926310Y-65516340I-243750J0D01*
G01*
X47013810Y-65516340D01*
G75*
G02*
X46770060Y-65272590I0J243750D01*
G01*
X46770060Y-64785090D01*
G75*
G02*
X47013810Y-64541340I243750J0D01*
G01*
G37*
G04 #@! TD.AperFunction*
D12*
X70104000Y-41275000D03*
X54864000Y-89535000D03*
X70104000Y-43815000D03*
X54864000Y-86995000D03*
X70104000Y-46355000D03*
X54864000Y-84455000D03*
X70104000Y-48895000D03*
X54864000Y-81915000D03*
X70104000Y-51435000D03*
X54864000Y-79375000D03*
X70104000Y-53975000D03*
X54864000Y-76835000D03*
X70104000Y-56515000D03*
X54864000Y-74295000D03*
X70104000Y-59055000D03*
X54864000Y-71755000D03*
X70104000Y-61595000D03*
X54864000Y-69215000D03*
X70104000Y-64135000D03*
X54864000Y-66675000D03*
X70104000Y-66675000D03*
X54864000Y-64135000D03*
X70104000Y-69215000D03*
X54864000Y-61595000D03*
X70104000Y-71755000D03*
X54864000Y-59055000D03*
X70104000Y-74295000D03*
X54864000Y-56515000D03*
X70104000Y-76835000D03*
X54864000Y-53975000D03*
X70104000Y-79375000D03*
X54864000Y-51435000D03*
X70104000Y-81915000D03*
X54864000Y-48895000D03*
X70104000Y-84455000D03*
X54864000Y-46355000D03*
X70104000Y-86995000D03*
X54864000Y-43815000D03*
X70104000Y-89535000D03*
D13*
X54864000Y-41275000D03*
D12*
X43180000Y-66040000D03*
X50800000Y-50800000D03*
X43180000Y-63500000D03*
X50800000Y-53340000D03*
X43180000Y-60960000D03*
X50800000Y-55880000D03*
X43180000Y-58420000D03*
X50800000Y-58420000D03*
X43180000Y-55880000D03*
X50800000Y-60960000D03*
X43180000Y-53340000D03*
X50800000Y-63500000D03*
X43180000Y-50800000D03*
D13*
X50800000Y-66040000D03*
D14*
X79750419Y-89159581D03*
X77470000Y-88215000D03*
X75189581Y-89159581D03*
X74245000Y-91440000D03*
X75189581Y-93720419D03*
X77470000Y-94665000D03*
X79750419Y-93720419D03*
X80695000Y-91440000D03*
D15*
X77470000Y-91440000D03*
D14*
X79750419Y-40899581D03*
X77470000Y-39955000D03*
X75189581Y-40899581D03*
X74245000Y-43180000D03*
X75189581Y-45460419D03*
X77470000Y-46405000D03*
X79750419Y-45460419D03*
X80695000Y-43180000D03*
D15*
X77470000Y-43180000D03*
D14*
X46730419Y-89159581D03*
X44450000Y-88215000D03*
X42169581Y-89159581D03*
X41225000Y-91440000D03*
X42169581Y-93720419D03*
X44450000Y-94665000D03*
X46730419Y-93720419D03*
X47675000Y-91440000D03*
D15*
X44450000Y-91440000D03*
D14*
X46730419Y-40899581D03*
X44450000Y-39955000D03*
X42169581Y-40899581D03*
X41225000Y-43180000D03*
X42169581Y-45460419D03*
X44450000Y-46405000D03*
X46730419Y-45460419D03*
X47675000Y-43180000D03*
D15*
X44450000Y-43180000D03*
G04 #@! TA.AperFunction,SMDPad,CuDef*
G36*
G01*
X45399900Y-76160950D02*
X45399900Y-75248450D01*
G75*
G02*
X45643650Y-75004700I243750J0D01*
G01*
X46131150Y-75004700D01*
G75*
G02*
X46374900Y-75248450I0J-243750D01*
G01*
X46374900Y-76160950D01*
G75*
G02*
X46131150Y-76404700I-243750J0D01*
G01*
X45643650Y-76404700D01*
G75*
G02*
X45399900Y-76160950I0J243750D01*
G01*
G37*
G04 #@! TD.AperFunction*
G04 #@! TA.AperFunction,SMDPad,CuDef*
G36*
G01*
X47274900Y-76160950D02*
X47274900Y-75248450D01*
G75*
G02*
X47518650Y-75004700I243750J0D01*
G01*
X48006150Y-75004700D01*
G75*
G02*
X48249900Y-75248450I0J-243750D01*
G01*
X48249900Y-76160950D01*
G75*
G02*
X48006150Y-76404700I-243750J0D01*
G01*
X47518650Y-76404700D01*
G75*
G02*
X47274900Y-76160950I0J243750D01*
G01*
G37*
G04 #@! TD.AperFunction*
D16*
X47752000Y-72136000D03*
D17*
X45212000Y-72136000D03*
G04 #@! TA.AperFunction,SMDPad,CuDef*
G36*
G01*
X47018890Y-60472260D02*
X47931390Y-60472260D01*
G75*
G02*
X48175140Y-60716010I0J-243750D01*
G01*
X48175140Y-61203510D01*
G75*
G02*
X47931390Y-61447260I-243750J0D01*
G01*
X47018890Y-61447260D01*
G75*
G02*
X46775140Y-61203510I0J243750D01*
G01*
X46775140Y-60716010D01*
G75*
G02*
X47018890Y-60472260I243750J0D01*
G01*
G37*
G04 #@! TD.AperFunction*
G04 #@! TA.AperFunction,SMDPad,CuDef*
G36*
G01*
X47018890Y-62347260D02*
X47931390Y-62347260D01*
G75*
G02*
X48175140Y-62591010I0J-243750D01*
G01*
X48175140Y-63078510D01*
G75*
G02*
X47931390Y-63322260I-243750J0D01*
G01*
X47018890Y-63322260D01*
G75*
G02*
X46775140Y-63078510I0J243750D01*
G01*
X46775140Y-62591010D01*
G75*
G02*
X47018890Y-62347260I243750J0D01*
G01*
G37*
G04 #@! TD.AperFunction*
G04 #@! TA.AperFunction,SMDPad,CuDef*
G36*
G01*
X67697670Y-79872900D02*
X66785170Y-79872900D01*
G75*
G02*
X66541420Y-79629150I0J243750D01*
G01*
X66541420Y-79141650D01*
G75*
G02*
X66785170Y-78897900I243750J0D01*
G01*
X67697670Y-78897900D01*
G75*
G02*
X67941420Y-79141650I0J-243750D01*
G01*
X67941420Y-79629150D01*
G75*
G02*
X67697670Y-79872900I-243750J0D01*
G01*
G37*
G04 #@! TD.AperFunction*
G04 #@! TA.AperFunction,SMDPad,CuDef*
G36*
G01*
X67697670Y-77997900D02*
X66785170Y-77997900D01*
G75*
G02*
X66541420Y-77754150I0J243750D01*
G01*
X66541420Y-77266650D01*
G75*
G02*
X66785170Y-77022900I243750J0D01*
G01*
X67697670Y-77022900D01*
G75*
G02*
X67941420Y-77266650I0J-243750D01*
G01*
X67941420Y-77754150D01*
G75*
G02*
X67697670Y-77997900I-243750J0D01*
G01*
G37*
G04 #@! TD.AperFunction*
G04 #@! TA.AperFunction,SMDPad,CuDef*
G36*
G01*
X74610380Y-67131250D02*
X74610380Y-66218750D01*
G75*
G02*
X74854130Y-65975000I243750J0D01*
G01*
X75341630Y-65975000D01*
G75*
G02*
X75585380Y-66218750I0J-243750D01*
G01*
X75585380Y-67131250D01*
G75*
G02*
X75341630Y-67375000I-243750J0D01*
G01*
X74854130Y-67375000D01*
G75*
G02*
X74610380Y-67131250I0J243750D01*
G01*
G37*
G04 #@! TD.AperFunction*
G04 #@! TA.AperFunction,SMDPad,CuDef*
G36*
G01*
X72735380Y-67131250D02*
X72735380Y-66218750D01*
G75*
G02*
X72979130Y-65975000I243750J0D01*
G01*
X73466630Y-65975000D01*
G75*
G02*
X73710380Y-66218750I0J-243750D01*
G01*
X73710380Y-67131250D01*
G75*
G02*
X73466630Y-67375000I-243750J0D01*
G01*
X72979130Y-67375000D01*
G75*
G02*
X72735380Y-67131250I0J243750D01*
G01*
G37*
G04 #@! TD.AperFunction*
G04 #@! TA.AperFunction,SMDPad,CuDef*
G36*
G01*
X72732840Y-64603950D02*
X72732840Y-63691450D01*
G75*
G02*
X72976590Y-63447700I243750J0D01*
G01*
X73464090Y-63447700D01*
G75*
G02*
X73707840Y-63691450I0J-243750D01*
G01*
X73707840Y-64603950D01*
G75*
G02*
X73464090Y-64847700I-243750J0D01*
G01*
X72976590Y-64847700D01*
G75*
G02*
X72732840Y-64603950I0J243750D01*
G01*
G37*
G04 #@! TD.AperFunction*
G04 #@! TA.AperFunction,SMDPad,CuDef*
G36*
G01*
X74607840Y-64603950D02*
X74607840Y-63691450D01*
G75*
G02*
X74851590Y-63447700I243750J0D01*
G01*
X75339090Y-63447700D01*
G75*
G02*
X75582840Y-63691450I0J-243750D01*
G01*
X75582840Y-64603950D01*
G75*
G02*
X75339090Y-64847700I-243750J0D01*
G01*
X74851590Y-64847700D01*
G75*
G02*
X74607840Y-64603950I0J243750D01*
G01*
G37*
G04 #@! TD.AperFunction*
G04 #@! TA.AperFunction,SMDPad,CuDef*
G36*
G01*
X74625620Y-62048710D02*
X74625620Y-61136210D01*
G75*
G02*
X74869370Y-60892460I243750J0D01*
G01*
X75356870Y-60892460D01*
G75*
G02*
X75600620Y-61136210I0J-243750D01*
G01*
X75600620Y-62048710D01*
G75*
G02*
X75356870Y-62292460I-243750J0D01*
G01*
X74869370Y-62292460D01*
G75*
G02*
X74625620Y-62048710I0J243750D01*
G01*
G37*
G04 #@! TD.AperFunction*
G04 #@! TA.AperFunction,SMDPad,CuDef*
G36*
G01*
X72750620Y-62048710D02*
X72750620Y-61136210D01*
G75*
G02*
X72994370Y-60892460I243750J0D01*
G01*
X73481870Y-60892460D01*
G75*
G02*
X73725620Y-61136210I0J-243750D01*
G01*
X73725620Y-62048710D01*
G75*
G02*
X73481870Y-62292460I-243750J0D01*
G01*
X72994370Y-62292460D01*
G75*
G02*
X72750620Y-62048710I0J243750D01*
G01*
G37*
G04 #@! TD.AperFunction*
G04 #@! TA.AperFunction,SMDPad,CuDef*
G36*
G01*
X61630980Y-74746170D02*
X61630980Y-73833670D01*
G75*
G02*
X61874730Y-73589920I243750J0D01*
G01*
X62362230Y-73589920D01*
G75*
G02*
X62605980Y-73833670I0J-243750D01*
G01*
X62605980Y-74746170D01*
G75*
G02*
X62362230Y-74989920I-243750J0D01*
G01*
X61874730Y-74989920D01*
G75*
G02*
X61630980Y-74746170I0J243750D01*
G01*
G37*
G04 #@! TD.AperFunction*
G04 #@! TA.AperFunction,SMDPad,CuDef*
G36*
G01*
X59755980Y-74746170D02*
X59755980Y-73833670D01*
G75*
G02*
X59999730Y-73589920I243750J0D01*
G01*
X60487230Y-73589920D01*
G75*
G02*
X60730980Y-73833670I0J-243750D01*
G01*
X60730980Y-74746170D01*
G75*
G02*
X60487230Y-74989920I-243750J0D01*
G01*
X59999730Y-74989920D01*
G75*
G02*
X59755980Y-74746170I0J243750D01*
G01*
G37*
G04 #@! TD.AperFunction*
G04 #@! TA.AperFunction,SMDPad,CuDef*
G36*
G01*
X59766140Y-77276010D02*
X59766140Y-76363510D01*
G75*
G02*
X60009890Y-76119760I243750J0D01*
G01*
X60497390Y-76119760D01*
G75*
G02*
X60741140Y-76363510I0J-243750D01*
G01*
X60741140Y-77276010D01*
G75*
G02*
X60497390Y-77519760I-243750J0D01*
G01*
X60009890Y-77519760D01*
G75*
G02*
X59766140Y-77276010I0J243750D01*
G01*
G37*
G04 #@! TD.AperFunction*
G04 #@! TA.AperFunction,SMDPad,CuDef*
G36*
G01*
X61641140Y-77276010D02*
X61641140Y-76363510D01*
G75*
G02*
X61884890Y-76119760I243750J0D01*
G01*
X62372390Y-76119760D01*
G75*
G02*
X62616140Y-76363510I0J-243750D01*
G01*
X62616140Y-77276010D01*
G75*
G02*
X62372390Y-77519760I-243750J0D01*
G01*
X61884890Y-77519760D01*
G75*
G02*
X61641140Y-77276010I0J243750D01*
G01*
G37*
G04 #@! TD.AperFunction*
G04 #@! TA.AperFunction,SMDPad,CuDef*
G36*
G01*
X61679240Y-69681410D02*
X61679240Y-68768910D01*
G75*
G02*
X61922990Y-68525160I243750J0D01*
G01*
X62410490Y-68525160D01*
G75*
G02*
X62654240Y-68768910I0J-243750D01*
G01*
X62654240Y-69681410D01*
G75*
G02*
X62410490Y-69925160I-243750J0D01*
G01*
X61922990Y-69925160D01*
G75*
G02*
X61679240Y-69681410I0J243750D01*
G01*
G37*
G04 #@! TD.AperFunction*
G04 #@! TA.AperFunction,SMDPad,CuDef*
G36*
G01*
X59804240Y-69681410D02*
X59804240Y-68768910D01*
G75*
G02*
X60047990Y-68525160I243750J0D01*
G01*
X60535490Y-68525160D01*
G75*
G02*
X60779240Y-68768910I0J-243750D01*
G01*
X60779240Y-69681410D01*
G75*
G02*
X60535490Y-69925160I-243750J0D01*
G01*
X60047990Y-69925160D01*
G75*
G02*
X59804240Y-69681410I0J243750D01*
G01*
G37*
G04 #@! TD.AperFunction*
G04 #@! TA.AperFunction,SMDPad,CuDef*
G36*
G01*
X59773760Y-59508710D02*
X59773760Y-58596210D01*
G75*
G02*
X60017510Y-58352460I243750J0D01*
G01*
X60505010Y-58352460D01*
G75*
G02*
X60748760Y-58596210I0J-243750D01*
G01*
X60748760Y-59508710D01*
G75*
G02*
X60505010Y-59752460I-243750J0D01*
G01*
X60017510Y-59752460D01*
G75*
G02*
X59773760Y-59508710I0J243750D01*
G01*
G37*
G04 #@! TD.AperFunction*
G04 #@! TA.AperFunction,SMDPad,CuDef*
G36*
G01*
X61648760Y-59508710D02*
X61648760Y-58596210D01*
G75*
G02*
X61892510Y-58352460I243750J0D01*
G01*
X62380010Y-58352460D01*
G75*
G02*
X62623760Y-58596210I0J-243750D01*
G01*
X62623760Y-59508710D01*
G75*
G02*
X62380010Y-59752460I-243750J0D01*
G01*
X61892510Y-59752460D01*
G75*
G02*
X61648760Y-59508710I0J243750D01*
G01*
G37*
G04 #@! TD.AperFunction*
G04 #@! TA.AperFunction,SMDPad,CuDef*
G36*
G01*
X59786460Y-56973790D02*
X59786460Y-56061290D01*
G75*
G02*
X60030210Y-55817540I243750J0D01*
G01*
X60517710Y-55817540D01*
G75*
G02*
X60761460Y-56061290I0J-243750D01*
G01*
X60761460Y-56973790D01*
G75*
G02*
X60517710Y-57217540I-243750J0D01*
G01*
X60030210Y-57217540D01*
G75*
G02*
X59786460Y-56973790I0J243750D01*
G01*
G37*
G04 #@! TD.AperFunction*
G04 #@! TA.AperFunction,SMDPad,CuDef*
G36*
G01*
X61661460Y-56973790D02*
X61661460Y-56061290D01*
G75*
G02*
X61905210Y-55817540I243750J0D01*
G01*
X62392710Y-55817540D01*
G75*
G02*
X62636460Y-56061290I0J-243750D01*
G01*
X62636460Y-56973790D01*
G75*
G02*
X62392710Y-57217540I-243750J0D01*
G01*
X61905210Y-57217540D01*
G75*
G02*
X61661460Y-56973790I0J243750D01*
G01*
G37*
G04 #@! TD.AperFunction*
G04 #@! TA.AperFunction,SMDPad,CuDef*
G36*
G01*
X61608120Y-62053790D02*
X61608120Y-61141290D01*
G75*
G02*
X61851870Y-60897540I243750J0D01*
G01*
X62339370Y-60897540D01*
G75*
G02*
X62583120Y-61141290I0J-243750D01*
G01*
X62583120Y-62053790D01*
G75*
G02*
X62339370Y-62297540I-243750J0D01*
G01*
X61851870Y-62297540D01*
G75*
G02*
X61608120Y-62053790I0J243750D01*
G01*
G37*
G04 #@! TD.AperFunction*
G04 #@! TA.AperFunction,SMDPad,CuDef*
G36*
G01*
X59733120Y-62053790D02*
X59733120Y-61141290D01*
G75*
G02*
X59976870Y-60897540I243750J0D01*
G01*
X60464370Y-60897540D01*
G75*
G02*
X60708120Y-61141290I0J-243750D01*
G01*
X60708120Y-62053790D01*
G75*
G02*
X60464370Y-62297540I-243750J0D01*
G01*
X59976870Y-62297540D01*
G75*
G02*
X59733120Y-62053790I0J243750D01*
G01*
G37*
G04 #@! TD.AperFunction*
G04 #@! TA.AperFunction,SMDPad,CuDef*
G36*
G01*
X59745820Y-64591250D02*
X59745820Y-63678750D01*
G75*
G02*
X59989570Y-63435000I243750J0D01*
G01*
X60477070Y-63435000D01*
G75*
G02*
X60720820Y-63678750I0J-243750D01*
G01*
X60720820Y-64591250D01*
G75*
G02*
X60477070Y-64835000I-243750J0D01*
G01*
X59989570Y-64835000D01*
G75*
G02*
X59745820Y-64591250I0J243750D01*
G01*
G37*
G04 #@! TD.AperFunction*
G04 #@! TA.AperFunction,SMDPad,CuDef*
G36*
G01*
X61620820Y-64591250D02*
X61620820Y-63678750D01*
G75*
G02*
X61864570Y-63435000I243750J0D01*
G01*
X62352070Y-63435000D01*
G75*
G02*
X62595820Y-63678750I0J-243750D01*
G01*
X62595820Y-64591250D01*
G75*
G02*
X62352070Y-64835000I-243750J0D01*
G01*
X61864570Y-64835000D01*
G75*
G02*
X61620820Y-64591250I0J243750D01*
G01*
G37*
G04 #@! TD.AperFunction*
G04 #@! TA.AperFunction,SMDPad,CuDef*
G36*
G01*
X61661460Y-72218870D02*
X61661460Y-71306370D01*
G75*
G02*
X61905210Y-71062620I243750J0D01*
G01*
X62392710Y-71062620D01*
G75*
G02*
X62636460Y-71306370I0J-243750D01*
G01*
X62636460Y-72218870D01*
G75*
G02*
X62392710Y-72462620I-243750J0D01*
G01*
X61905210Y-72462620D01*
G75*
G02*
X61661460Y-72218870I0J243750D01*
G01*
G37*
G04 #@! TD.AperFunction*
G04 #@! TA.AperFunction,SMDPad,CuDef*
G36*
G01*
X59786460Y-72218870D02*
X59786460Y-71306370D01*
G75*
G02*
X60030210Y-71062620I243750J0D01*
G01*
X60517710Y-71062620D01*
G75*
G02*
X60761460Y-71306370I0J-243750D01*
G01*
X60761460Y-72218870D01*
G75*
G02*
X60517710Y-72462620I-243750J0D01*
G01*
X60030210Y-72462620D01*
G75*
G02*
X59786460Y-72218870I0J243750D01*
G01*
G37*
G04 #@! TD.AperFunction*
D18*
X69271680Y-81915000D02*
X70104000Y-81915000D01*
X47752000Y-75694300D02*
X47762400Y-75704700D01*
X47752000Y-72136000D02*
X47752000Y-75694300D01*
X70093600Y-79385400D02*
X70104000Y-79375000D01*
X67241420Y-79385400D02*
X70093600Y-79385400D01*
D19*
X47470060Y-62839840D02*
X47475140Y-62834760D01*
X47470060Y-65028840D02*
X47470060Y-62839840D01*
X50134760Y-62834760D02*
X50800000Y-63500000D01*
X47475140Y-62834760D02*
X50134760Y-62834760D01*
X75097880Y-68493880D02*
X77724000Y-71120000D01*
X75097880Y-66675000D02*
X75097880Y-68493880D01*
X77584300Y-64147700D02*
X77724000Y-64008000D01*
X75095340Y-64147700D02*
X77734160Y-64147700D01*
X75245200Y-59374800D02*
X77724000Y-56896000D01*
X75245200Y-61595000D02*
X75245200Y-59374800D01*
X50799760Y-60959760D02*
X50800000Y-60960000D01*
X47475140Y-60959760D02*
X50799760Y-60959760D01*
X53613999Y-55225001D02*
X54864000Y-53975000D01*
X53613999Y-58146001D02*
X53613999Y-55225001D01*
X50800000Y-60960000D02*
X53613999Y-58146001D01*
X70101460Y-76832460D02*
X70104000Y-76835000D01*
X69428600Y-77510400D02*
X70104000Y-76835000D01*
X67241420Y-77510400D02*
X69428600Y-77510400D01*
X70104000Y-66675000D02*
X73222880Y-66675000D01*
X73207640Y-64135000D02*
X73220340Y-64147700D01*
X70104000Y-64135000D02*
X73207640Y-64135000D01*
X70104000Y-61595000D02*
X73370200Y-61595000D01*
X54869080Y-74289920D02*
X54864000Y-74295000D01*
X60243480Y-74289920D02*
X54869080Y-74289920D01*
X54879240Y-76819760D02*
X54864000Y-76835000D01*
X60253640Y-76819760D02*
X54879240Y-76819760D01*
X54874160Y-69225160D02*
X54864000Y-69215000D01*
X60291740Y-69225160D02*
X54874160Y-69225160D01*
X54866540Y-59052460D02*
X54864000Y-59055000D01*
X60261260Y-59052460D02*
X54866540Y-59052460D01*
X54866540Y-56517540D02*
X54864000Y-56515000D01*
X60273960Y-56517540D02*
X54866540Y-56517540D01*
X54866540Y-61597540D02*
X54864000Y-61595000D01*
X60220620Y-61597540D02*
X54866540Y-61597540D01*
X60233320Y-64135000D02*
X54864000Y-64135000D01*
X54871620Y-71762620D02*
X54864000Y-71755000D01*
X60273960Y-71762620D02*
X54871620Y-71762620D01*
D20*
G36*
X74771560Y-39019606D02*
G01*
X74658946Y-39094851D01*
X74166787Y-39697182D01*
X77470000Y-43000395D01*
X77484143Y-42986253D01*
X77663748Y-43165858D01*
X77649605Y-43180000D01*
X80952818Y-46483213D01*
X81555149Y-45991054D01*
X81890001Y-45384657D01*
X81890000Y-89243622D01*
X81630394Y-88741560D01*
X81555149Y-88628946D01*
X80952818Y-88136787D01*
X77649605Y-91440000D01*
X77663748Y-91454143D01*
X77484143Y-91633748D01*
X77470000Y-91619605D01*
X74166787Y-94922818D01*
X74658946Y-95525149D01*
X75265342Y-95860000D01*
X46646378Y-95860000D01*
X47148440Y-95600394D01*
X47261054Y-95525149D01*
X47753213Y-94922818D01*
X44450000Y-91619605D01*
X44435858Y-91633748D01*
X44256253Y-91454143D01*
X44270395Y-91440000D01*
X44629605Y-91440000D01*
X47932818Y-94743213D01*
X48535149Y-94251054D01*
X49005063Y-93400067D01*
X49299929Y-92473757D01*
X49408414Y-91507719D01*
X49396940Y-91372281D01*
X72511586Y-91372281D01*
X72593649Y-92340921D01*
X72863107Y-93274938D01*
X73309606Y-94138440D01*
X73384851Y-94251054D01*
X73987182Y-94743213D01*
X77290395Y-91440000D01*
X73987182Y-88136787D01*
X73384851Y-88628946D01*
X72914937Y-89479933D01*
X72620071Y-90406243D01*
X72511586Y-91372281D01*
X49396940Y-91372281D01*
X49326351Y-90539079D01*
X49056893Y-89605062D01*
X48610394Y-88741560D01*
X48535149Y-88628946D01*
X47932818Y-88136787D01*
X44629605Y-91440000D01*
X44270395Y-91440000D01*
X40967182Y-88136787D01*
X40364851Y-88628946D01*
X40030000Y-89235342D01*
X40030000Y-87957182D01*
X41146787Y-87957182D01*
X44450000Y-91260395D01*
X47753213Y-87957182D01*
X47261054Y-87354851D01*
X46410067Y-86884937D01*
X45483757Y-86590071D01*
X44517719Y-86481586D01*
X43549079Y-86563649D01*
X42615062Y-86833107D01*
X41751560Y-87279606D01*
X41638946Y-87354851D01*
X41146787Y-87957182D01*
X40030000Y-87957182D01*
X40030000Y-76404700D01*
X44761828Y-76404700D01*
X44774088Y-76529182D01*
X44810398Y-76648880D01*
X44869363Y-76759194D01*
X44948715Y-76855885D01*
X45045406Y-76935237D01*
X45155720Y-76994202D01*
X45275418Y-77030512D01*
X45399900Y-77042772D01*
X45601650Y-77039700D01*
X45760400Y-76880950D01*
X45760400Y-75831700D01*
X44923650Y-75831700D01*
X44764900Y-75990450D01*
X44761828Y-76404700D01*
X40030000Y-76404700D01*
X40030000Y-75004700D01*
X44761828Y-75004700D01*
X44764900Y-75418950D01*
X44923650Y-75577700D01*
X45760400Y-75577700D01*
X45760400Y-74528450D01*
X45601650Y-74369700D01*
X45399900Y-74366628D01*
X45275418Y-74378888D01*
X45155720Y-74415198D01*
X45045406Y-74474163D01*
X44948715Y-74553515D01*
X44869363Y-74650206D01*
X44810398Y-74760520D01*
X44774088Y-74880218D01*
X44761828Y-75004700D01*
X40030000Y-75004700D01*
X40030000Y-72492891D01*
X43770519Y-72492891D01*
X43867843Y-72767252D01*
X44016822Y-73017355D01*
X44211731Y-73233588D01*
X44445080Y-73407641D01*
X44707901Y-73532825D01*
X44855110Y-73577476D01*
X45085000Y-73456155D01*
X45085000Y-72263000D01*
X43891186Y-72263000D01*
X43770519Y-72492891D01*
X40030000Y-72492891D01*
X40030000Y-71779109D01*
X43770519Y-71779109D01*
X43891186Y-72009000D01*
X45085000Y-72009000D01*
X45085000Y-70815845D01*
X45339000Y-70815845D01*
X45339000Y-72009000D01*
X45359000Y-72009000D01*
X45359000Y-72263000D01*
X45339000Y-72263000D01*
X45339000Y-73456155D01*
X45568890Y-73577476D01*
X45716099Y-73532825D01*
X45978920Y-73407641D01*
X46212269Y-73233588D01*
X46288034Y-73149534D01*
X46312498Y-73230180D01*
X46371463Y-73340494D01*
X46450815Y-73437185D01*
X46547506Y-73516537D01*
X46617000Y-73553683D01*
X46617001Y-74414567D01*
X46499382Y-74378888D01*
X46374900Y-74366628D01*
X46173150Y-74369700D01*
X46014400Y-74528450D01*
X46014400Y-75577700D01*
X46034400Y-75577700D01*
X46034400Y-75831700D01*
X46014400Y-75831700D01*
X46014400Y-76880950D01*
X46173150Y-77039700D01*
X46374900Y-77042772D01*
X46499382Y-77030512D01*
X46619080Y-76994202D01*
X46729394Y-76935237D01*
X46826085Y-76855885D01*
X46889892Y-76778136D01*
X46895108Y-76784492D01*
X47028736Y-76894158D01*
X47181191Y-76975647D01*
X47346615Y-77025828D01*
X47518650Y-77042772D01*
X48006150Y-77042772D01*
X48178185Y-77025828D01*
X48343609Y-76975647D01*
X48496064Y-76894158D01*
X48629692Y-76784492D01*
X48739358Y-76650864D01*
X48820847Y-76498409D01*
X48871028Y-76332985D01*
X48887972Y-76160950D01*
X48887972Y-75856177D01*
X48902891Y-75704700D01*
X48887972Y-75553224D01*
X48887972Y-75248450D01*
X48887000Y-75238581D01*
X48887000Y-73553683D01*
X48956494Y-73516537D01*
X49053185Y-73437185D01*
X49132537Y-73340494D01*
X49191502Y-73230180D01*
X49227812Y-73110482D01*
X49240072Y-72986000D01*
X49240072Y-71286000D01*
X49227812Y-71161518D01*
X49191502Y-71041820D01*
X49132537Y-70931506D01*
X49053185Y-70834815D01*
X48956494Y-70755463D01*
X48846180Y-70696498D01*
X48726482Y-70660188D01*
X48602000Y-70647928D01*
X46902000Y-70647928D01*
X46777518Y-70660188D01*
X46657820Y-70696498D01*
X46547506Y-70755463D01*
X46450815Y-70834815D01*
X46371463Y-70931506D01*
X46312498Y-71041820D01*
X46288034Y-71122466D01*
X46212269Y-71038412D01*
X45978920Y-70864359D01*
X45716099Y-70739175D01*
X45568890Y-70694524D01*
X45339000Y-70815845D01*
X45085000Y-70815845D01*
X44855110Y-70694524D01*
X44707901Y-70739175D01*
X44445080Y-70864359D01*
X44211731Y-71038412D01*
X44016822Y-71254645D01*
X43867843Y-71504748D01*
X43770519Y-71779109D01*
X40030000Y-71779109D01*
X40030000Y-50658665D01*
X41745000Y-50658665D01*
X41745000Y-50941335D01*
X41800147Y-51218574D01*
X41908320Y-51479727D01*
X42065363Y-51714759D01*
X42265241Y-51914637D01*
X42497759Y-52070000D01*
X42265241Y-52225363D01*
X42065363Y-52425241D01*
X41908320Y-52660273D01*
X41800147Y-52921426D01*
X41745000Y-53198665D01*
X41745000Y-53481335D01*
X41800147Y-53758574D01*
X41908320Y-54019727D01*
X42065363Y-54254759D01*
X42265241Y-54454637D01*
X42497759Y-54610000D01*
X42265241Y-54765363D01*
X42065363Y-54965241D01*
X41908320Y-55200273D01*
X41800147Y-55461426D01*
X41745000Y-55738665D01*
X41745000Y-56021335D01*
X41800147Y-56298574D01*
X41908320Y-56559727D01*
X42065363Y-56794759D01*
X42265241Y-56994637D01*
X42497759Y-57150000D01*
X42265241Y-57305363D01*
X42065363Y-57505241D01*
X41908320Y-57740273D01*
X41800147Y-58001426D01*
X41745000Y-58278665D01*
X41745000Y-58561335D01*
X41800147Y-58838574D01*
X41908320Y-59099727D01*
X42065363Y-59334759D01*
X42265241Y-59534637D01*
X42497759Y-59690000D01*
X42265241Y-59845363D01*
X42065363Y-60045241D01*
X41908320Y-60280273D01*
X41800147Y-60541426D01*
X41745000Y-60818665D01*
X41745000Y-61101335D01*
X41800147Y-61378574D01*
X41908320Y-61639727D01*
X42065363Y-61874759D01*
X42265241Y-62074637D01*
X42497759Y-62230000D01*
X42265241Y-62385363D01*
X42065363Y-62585241D01*
X41908320Y-62820273D01*
X41800147Y-63081426D01*
X41745000Y-63358665D01*
X41745000Y-63641335D01*
X41800147Y-63918574D01*
X41908320Y-64179727D01*
X42065363Y-64414759D01*
X42265241Y-64614637D01*
X42497759Y-64770000D01*
X42265241Y-64925363D01*
X42065363Y-65125241D01*
X41908320Y-65360273D01*
X41800147Y-65621426D01*
X41745000Y-65898665D01*
X41745000Y-66181335D01*
X41800147Y-66458574D01*
X41908320Y-66719727D01*
X42065363Y-66954759D01*
X42265241Y-67154637D01*
X42500273Y-67311680D01*
X42761426Y-67419853D01*
X43038665Y-67475000D01*
X43321335Y-67475000D01*
X43598574Y-67419853D01*
X43667410Y-67391340D01*
X46131988Y-67391340D01*
X46144248Y-67515822D01*
X46180558Y-67635520D01*
X46239523Y-67745834D01*
X46318875Y-67842525D01*
X46415566Y-67921877D01*
X46525880Y-67980842D01*
X46645578Y-68017152D01*
X46770060Y-68029412D01*
X47184310Y-68026340D01*
X47343060Y-67867590D01*
X47343060Y-67030840D01*
X47597060Y-67030840D01*
X47597060Y-67867590D01*
X47755810Y-68026340D01*
X48170060Y-68029412D01*
X48294542Y-68017152D01*
X48414240Y-67980842D01*
X48524554Y-67921877D01*
X48621245Y-67842525D01*
X48700597Y-67745834D01*
X48759562Y-67635520D01*
X48795872Y-67515822D01*
X48808132Y-67391340D01*
X48805060Y-67189590D01*
X48646310Y-67030840D01*
X47597060Y-67030840D01*
X47343060Y-67030840D01*
X46293810Y-67030840D01*
X46135060Y-67189590D01*
X46131988Y-67391340D01*
X43667410Y-67391340D01*
X43859727Y-67311680D01*
X44094759Y-67154637D01*
X44294637Y-66954759D01*
X44451680Y-66719727D01*
X44559853Y-66458574D01*
X44615000Y-66181335D01*
X44615000Y-65898665D01*
X44559853Y-65621426D01*
X44451680Y-65360273D01*
X44294637Y-65125241D01*
X44094759Y-64925363D01*
X43884825Y-64785090D01*
X46131988Y-64785090D01*
X46131988Y-65272590D01*
X46148932Y-65444625D01*
X46199113Y-65610049D01*
X46280602Y-65762504D01*
X46390268Y-65896132D01*
X46396624Y-65901348D01*
X46318875Y-65965155D01*
X46239523Y-66061846D01*
X46180558Y-66172160D01*
X46144248Y-66291858D01*
X46131988Y-66416340D01*
X46135060Y-66618090D01*
X46293810Y-66776840D01*
X47343060Y-66776840D01*
X47343060Y-66756840D01*
X47597060Y-66756840D01*
X47597060Y-66776840D01*
X48646310Y-66776840D01*
X48805060Y-66618090D01*
X48808132Y-66416340D01*
X48795872Y-66291858D01*
X48759562Y-66172160D01*
X48700597Y-66061846D01*
X48621245Y-65965155D01*
X48543496Y-65901348D01*
X48549852Y-65896132D01*
X48659518Y-65762504D01*
X48741007Y-65610049D01*
X48791188Y-65444625D01*
X48808132Y-65272590D01*
X48808132Y-64785090D01*
X48791188Y-64613055D01*
X48741007Y-64447631D01*
X48659518Y-64295176D01*
X48549852Y-64161548D01*
X48416224Y-64051882D01*
X48355060Y-64019189D01*
X48355060Y-63847126D01*
X48421304Y-63811718D01*
X48533355Y-63719760D01*
X49380600Y-63719760D01*
X49420147Y-63918574D01*
X49528320Y-64179727D01*
X49685363Y-64414759D01*
X49883961Y-64613357D01*
X49875518Y-64614188D01*
X49755820Y-64650498D01*
X49645506Y-64709463D01*
X49548815Y-64788815D01*
X49469463Y-64885506D01*
X49410498Y-64995820D01*
X49374188Y-65115518D01*
X49361928Y-65240000D01*
X49361928Y-66840000D01*
X49374188Y-66964482D01*
X49410498Y-67084180D01*
X49469463Y-67194494D01*
X49548815Y-67291185D01*
X49645506Y-67370537D01*
X49755820Y-67429502D01*
X49875518Y-67465812D01*
X50000000Y-67478072D01*
X51600000Y-67478072D01*
X51724482Y-67465812D01*
X51844180Y-67429502D01*
X51954494Y-67370537D01*
X52051185Y-67291185D01*
X52130537Y-67194494D01*
X52189502Y-67084180D01*
X52225812Y-66964482D01*
X52238072Y-66840000D01*
X52238072Y-65240000D01*
X52225812Y-65115518D01*
X52189502Y-64995820D01*
X52130537Y-64885506D01*
X52051185Y-64788815D01*
X51954494Y-64709463D01*
X51844180Y-64650498D01*
X51724482Y-64614188D01*
X51716039Y-64613357D01*
X51914637Y-64414759D01*
X52071680Y-64179727D01*
X52179853Y-63918574D01*
X52235000Y-63641335D01*
X52235000Y-63358665D01*
X52179853Y-63081426D01*
X52071680Y-62820273D01*
X51914637Y-62585241D01*
X51714759Y-62385363D01*
X51482241Y-62230000D01*
X51714759Y-62074637D01*
X51914637Y-61874759D01*
X52071680Y-61639727D01*
X52179853Y-61378574D01*
X52235000Y-61101335D01*
X52235000Y-60818665D01*
X52228017Y-60783561D01*
X53499922Y-59511657D01*
X53592320Y-59734727D01*
X53749363Y-59969759D01*
X53949241Y-60169637D01*
X54181759Y-60325000D01*
X53949241Y-60480363D01*
X53749363Y-60680241D01*
X53592320Y-60915273D01*
X53484147Y-61176426D01*
X53429000Y-61453665D01*
X53429000Y-61736335D01*
X53484147Y-62013574D01*
X53592320Y-62274727D01*
X53749363Y-62509759D01*
X53949241Y-62709637D01*
X54181759Y-62865000D01*
X53949241Y-63020363D01*
X53749363Y-63220241D01*
X53592320Y-63455273D01*
X53484147Y-63716426D01*
X53429000Y-63993665D01*
X53429000Y-64276335D01*
X53484147Y-64553574D01*
X53592320Y-64814727D01*
X53749363Y-65049759D01*
X53949241Y-65249637D01*
X54181759Y-65405000D01*
X53949241Y-65560363D01*
X53749363Y-65760241D01*
X53592320Y-65995273D01*
X53484147Y-66256426D01*
X53429000Y-66533665D01*
X53429000Y-66816335D01*
X53484147Y-67093574D01*
X53592320Y-67354727D01*
X53749363Y-67589759D01*
X53949241Y-67789637D01*
X54181759Y-67945000D01*
X53949241Y-68100363D01*
X53749363Y-68300241D01*
X53592320Y-68535273D01*
X53484147Y-68796426D01*
X53429000Y-69073665D01*
X53429000Y-69356335D01*
X53484147Y-69633574D01*
X53592320Y-69894727D01*
X53749363Y-70129759D01*
X53949241Y-70329637D01*
X54181759Y-70485000D01*
X53949241Y-70640363D01*
X53749363Y-70840241D01*
X53592320Y-71075273D01*
X53484147Y-71336426D01*
X53429000Y-71613665D01*
X53429000Y-71896335D01*
X53484147Y-72173574D01*
X53592320Y-72434727D01*
X53749363Y-72669759D01*
X53949241Y-72869637D01*
X54181759Y-73025000D01*
X53949241Y-73180363D01*
X53749363Y-73380241D01*
X53592320Y-73615273D01*
X53484147Y-73876426D01*
X53429000Y-74153665D01*
X53429000Y-74436335D01*
X53484147Y-74713574D01*
X53592320Y-74974727D01*
X53749363Y-75209759D01*
X53949241Y-75409637D01*
X54181759Y-75565000D01*
X53949241Y-75720363D01*
X53749363Y-75920241D01*
X53592320Y-76155273D01*
X53484147Y-76416426D01*
X53429000Y-76693665D01*
X53429000Y-76976335D01*
X53484147Y-77253574D01*
X53592320Y-77514727D01*
X53749363Y-77749759D01*
X53949241Y-77949637D01*
X54181759Y-78105000D01*
X53949241Y-78260363D01*
X53749363Y-78460241D01*
X53592320Y-78695273D01*
X53484147Y-78956426D01*
X53429000Y-79233665D01*
X53429000Y-79516335D01*
X53484147Y-79793574D01*
X53592320Y-80054727D01*
X53749363Y-80289759D01*
X53949241Y-80489637D01*
X54181759Y-80645000D01*
X53949241Y-80800363D01*
X53749363Y-81000241D01*
X53592320Y-81235273D01*
X53484147Y-81496426D01*
X53429000Y-81773665D01*
X53429000Y-82056335D01*
X53484147Y-82333574D01*
X53592320Y-82594727D01*
X53749363Y-82829759D01*
X53949241Y-83029637D01*
X54181759Y-83185000D01*
X53949241Y-83340363D01*
X53749363Y-83540241D01*
X53592320Y-83775273D01*
X53484147Y-84036426D01*
X53429000Y-84313665D01*
X53429000Y-84596335D01*
X53484147Y-84873574D01*
X53592320Y-85134727D01*
X53749363Y-85369759D01*
X53949241Y-85569637D01*
X54181759Y-85725000D01*
X53949241Y-85880363D01*
X53749363Y-86080241D01*
X53592320Y-86315273D01*
X53484147Y-86576426D01*
X53429000Y-86853665D01*
X53429000Y-87136335D01*
X53484147Y-87413574D01*
X53592320Y-87674727D01*
X53749363Y-87909759D01*
X53949241Y-88109637D01*
X54181759Y-88265000D01*
X53949241Y-88420363D01*
X53749363Y-88620241D01*
X53592320Y-88855273D01*
X53484147Y-89116426D01*
X53429000Y-89393665D01*
X53429000Y-89676335D01*
X53484147Y-89953574D01*
X53592320Y-90214727D01*
X53749363Y-90449759D01*
X53949241Y-90649637D01*
X54184273Y-90806680D01*
X54445426Y-90914853D01*
X54722665Y-90970000D01*
X55005335Y-90970000D01*
X55282574Y-90914853D01*
X55543727Y-90806680D01*
X55778759Y-90649637D01*
X55978637Y-90449759D01*
X56135680Y-90214727D01*
X56243853Y-89953574D01*
X56299000Y-89676335D01*
X56299000Y-89393665D01*
X56243853Y-89116426D01*
X56135680Y-88855273D01*
X55978637Y-88620241D01*
X55778759Y-88420363D01*
X55546241Y-88265000D01*
X55778759Y-88109637D01*
X55978637Y-87909759D01*
X56135680Y-87674727D01*
X56243853Y-87413574D01*
X56299000Y-87136335D01*
X56299000Y-86853665D01*
X56243853Y-86576426D01*
X56135680Y-86315273D01*
X55978637Y-86080241D01*
X55778759Y-85880363D01*
X55546241Y-85725000D01*
X55778759Y-85569637D01*
X55978637Y-85369759D01*
X56135680Y-85134727D01*
X56243853Y-84873574D01*
X56299000Y-84596335D01*
X56299000Y-84313665D01*
X56243853Y-84036426D01*
X56135680Y-83775273D01*
X55978637Y-83540241D01*
X55778759Y-83340363D01*
X55546241Y-83185000D01*
X55778759Y-83029637D01*
X55978637Y-82829759D01*
X56135680Y-82594727D01*
X56243853Y-82333574D01*
X56299000Y-82056335D01*
X56299000Y-81773665D01*
X56243853Y-81496426D01*
X56135680Y-81235273D01*
X55978637Y-81000241D01*
X55778759Y-80800363D01*
X55546241Y-80645000D01*
X55778759Y-80489637D01*
X55978637Y-80289759D01*
X56135680Y-80054727D01*
X56243853Y-79793574D01*
X56299000Y-79516335D01*
X56299000Y-79233665D01*
X56243853Y-78956426D01*
X56135680Y-78695273D01*
X55978637Y-78460241D01*
X55778759Y-78260363D01*
X55546241Y-78105000D01*
X55778759Y-77949637D01*
X55978637Y-77749759D01*
X56008704Y-77704760D01*
X59243989Y-77704760D01*
X59276682Y-77765924D01*
X59386348Y-77899552D01*
X59519976Y-78009218D01*
X59672431Y-78090707D01*
X59837855Y-78140888D01*
X60009890Y-78157832D01*
X60497390Y-78157832D01*
X60669425Y-78140888D01*
X60834849Y-78090707D01*
X60987304Y-78009218D01*
X61120932Y-77899552D01*
X61126148Y-77893196D01*
X61189955Y-77970945D01*
X61286646Y-78050297D01*
X61396960Y-78109262D01*
X61516658Y-78145572D01*
X61641140Y-78157832D01*
X61842890Y-78154760D01*
X62001640Y-77996010D01*
X62001640Y-76946760D01*
X62255640Y-76946760D01*
X62255640Y-77996010D01*
X62414390Y-78154760D01*
X62616140Y-78157832D01*
X62740622Y-78145572D01*
X62860320Y-78109262D01*
X62970634Y-78050297D01*
X63067325Y-77970945D01*
X63146677Y-77874254D01*
X63205642Y-77763940D01*
X63241952Y-77644242D01*
X63254212Y-77519760D01*
X63252335Y-77266650D01*
X65903348Y-77266650D01*
X65903348Y-77754150D01*
X65920292Y-77926185D01*
X65970473Y-78091609D01*
X66051962Y-78244064D01*
X66161628Y-78377692D01*
X66247176Y-78447900D01*
X66161628Y-78518108D01*
X66051962Y-78651736D01*
X65970473Y-78804191D01*
X65920292Y-78969615D01*
X65903348Y-79141650D01*
X65903348Y-79629150D01*
X65920292Y-79801185D01*
X65970473Y-79966609D01*
X66051962Y-80119064D01*
X66161628Y-80252692D01*
X66295256Y-80362358D01*
X66447711Y-80443847D01*
X66613135Y-80494028D01*
X66785170Y-80510972D01*
X67089943Y-80510972D01*
X67185668Y-80520400D01*
X69235281Y-80520400D01*
X69421759Y-80645000D01*
X69219716Y-80780000D01*
X69215928Y-80780000D01*
X69049181Y-80796423D01*
X68835233Y-80861324D01*
X68638057Y-80966716D01*
X68465231Y-81108551D01*
X68323396Y-81281377D01*
X68218004Y-81478553D01*
X68153103Y-81692501D01*
X68131189Y-81915000D01*
X68153103Y-82137499D01*
X68218004Y-82351447D01*
X68323396Y-82548623D01*
X68465231Y-82721449D01*
X68638057Y-82863284D01*
X68835233Y-82968676D01*
X69049181Y-83033577D01*
X69215928Y-83050000D01*
X69219716Y-83050000D01*
X69421759Y-83185000D01*
X69189241Y-83340363D01*
X68989363Y-83540241D01*
X68832320Y-83775273D01*
X68724147Y-84036426D01*
X68669000Y-84313665D01*
X68669000Y-84596335D01*
X68724147Y-84873574D01*
X68832320Y-85134727D01*
X68989363Y-85369759D01*
X69189241Y-85569637D01*
X69421759Y-85725000D01*
X69189241Y-85880363D01*
X68989363Y-86080241D01*
X68832320Y-86315273D01*
X68724147Y-86576426D01*
X68669000Y-86853665D01*
X68669000Y-87136335D01*
X68724147Y-87413574D01*
X68832320Y-87674727D01*
X68989363Y-87909759D01*
X69189241Y-88109637D01*
X69421759Y-88265000D01*
X69189241Y-88420363D01*
X68989363Y-88620241D01*
X68832320Y-88855273D01*
X68724147Y-89116426D01*
X68669000Y-89393665D01*
X68669000Y-89676335D01*
X68724147Y-89953574D01*
X68832320Y-90214727D01*
X68989363Y-90449759D01*
X69189241Y-90649637D01*
X69424273Y-90806680D01*
X69685426Y-90914853D01*
X69962665Y-90970000D01*
X70245335Y-90970000D01*
X70522574Y-90914853D01*
X70783727Y-90806680D01*
X71018759Y-90649637D01*
X71218637Y-90449759D01*
X71375680Y-90214727D01*
X71483853Y-89953574D01*
X71539000Y-89676335D01*
X71539000Y-89393665D01*
X71483853Y-89116426D01*
X71375680Y-88855273D01*
X71218637Y-88620241D01*
X71018759Y-88420363D01*
X70786241Y-88265000D01*
X71018759Y-88109637D01*
X71171214Y-87957182D01*
X74166787Y-87957182D01*
X77470000Y-91260395D01*
X80773213Y-87957182D01*
X80281054Y-87354851D01*
X79430067Y-86884937D01*
X78503757Y-86590071D01*
X77537719Y-86481586D01*
X76569079Y-86563649D01*
X75635062Y-86833107D01*
X74771560Y-87279606D01*
X74658946Y-87354851D01*
X74166787Y-87957182D01*
X71171214Y-87957182D01*
X71218637Y-87909759D01*
X71375680Y-87674727D01*
X71483853Y-87413574D01*
X71539000Y-87136335D01*
X71539000Y-86853665D01*
X71483853Y-86576426D01*
X71375680Y-86315273D01*
X71218637Y-86080241D01*
X71018759Y-85880363D01*
X70786241Y-85725000D01*
X71018759Y-85569637D01*
X71218637Y-85369759D01*
X71375680Y-85134727D01*
X71483853Y-84873574D01*
X71539000Y-84596335D01*
X71539000Y-84313665D01*
X71483853Y-84036426D01*
X71375680Y-83775273D01*
X71218637Y-83540241D01*
X71018759Y-83340363D01*
X70786241Y-83185000D01*
X71018759Y-83029637D01*
X71218637Y-82829759D01*
X71375680Y-82594727D01*
X71483853Y-82333574D01*
X71539000Y-82056335D01*
X71539000Y-81773665D01*
X71483853Y-81496426D01*
X71375680Y-81235273D01*
X71218637Y-81000241D01*
X71018759Y-80800363D01*
X70786241Y-80645000D01*
X71018759Y-80489637D01*
X71218637Y-80289759D01*
X71375680Y-80054727D01*
X71483853Y-79793574D01*
X71539000Y-79516335D01*
X71539000Y-79233665D01*
X71483853Y-78956426D01*
X71375680Y-78695273D01*
X71218637Y-78460241D01*
X71018759Y-78260363D01*
X70786241Y-78105000D01*
X71018759Y-77949637D01*
X71218637Y-77749759D01*
X71375680Y-77514727D01*
X71483853Y-77253574D01*
X71539000Y-76976335D01*
X71539000Y-76693665D01*
X71483853Y-76416426D01*
X71375680Y-76155273D01*
X71218637Y-75920241D01*
X71018759Y-75720363D01*
X70786241Y-75565000D01*
X71018759Y-75409637D01*
X71218637Y-75209759D01*
X71375680Y-74974727D01*
X71483853Y-74713574D01*
X71539000Y-74436335D01*
X71539000Y-74153665D01*
X71483853Y-73876426D01*
X71375680Y-73615273D01*
X71218637Y-73380241D01*
X71018759Y-73180363D01*
X70786241Y-73025000D01*
X71018759Y-72869637D01*
X71218637Y-72669759D01*
X71375680Y-72434727D01*
X71483853Y-72173574D01*
X71539000Y-71896335D01*
X71539000Y-71613665D01*
X71483853Y-71336426D01*
X71375680Y-71075273D01*
X71218637Y-70840241D01*
X71018759Y-70640363D01*
X70783727Y-70483320D01*
X70773135Y-70478933D01*
X70959131Y-70367385D01*
X71167519Y-70178414D01*
X71335037Y-69952420D01*
X71455246Y-69698087D01*
X71495904Y-69564039D01*
X71373915Y-69342000D01*
X70231000Y-69342000D01*
X70231000Y-69362000D01*
X69977000Y-69362000D01*
X69977000Y-69342000D01*
X68834085Y-69342000D01*
X68712096Y-69564039D01*
X68752754Y-69698087D01*
X68872963Y-69952420D01*
X69040481Y-70178414D01*
X69248869Y-70367385D01*
X69434865Y-70478933D01*
X69424273Y-70483320D01*
X69189241Y-70640363D01*
X68989363Y-70840241D01*
X68832320Y-71075273D01*
X68724147Y-71336426D01*
X68669000Y-71613665D01*
X68669000Y-71896335D01*
X68724147Y-72173574D01*
X68832320Y-72434727D01*
X68989363Y-72669759D01*
X69189241Y-72869637D01*
X69421759Y-73025000D01*
X69189241Y-73180363D01*
X68989363Y-73380241D01*
X68832320Y-73615273D01*
X68724147Y-73876426D01*
X68669000Y-74153665D01*
X68669000Y-74436335D01*
X68724147Y-74713574D01*
X68832320Y-74974727D01*
X68989363Y-75209759D01*
X69189241Y-75409637D01*
X69421759Y-75565000D01*
X69189241Y-75720363D01*
X68989363Y-75920241D01*
X68832320Y-76155273D01*
X68724147Y-76416426D01*
X68682579Y-76625400D01*
X68299635Y-76625400D01*
X68187584Y-76533442D01*
X68035129Y-76451953D01*
X67869705Y-76401772D01*
X67697670Y-76384828D01*
X66785170Y-76384828D01*
X66613135Y-76401772D01*
X66447711Y-76451953D01*
X66295256Y-76533442D01*
X66161628Y-76643108D01*
X66051962Y-76776736D01*
X65970473Y-76929191D01*
X65920292Y-77094615D01*
X65903348Y-77266650D01*
X63252335Y-77266650D01*
X63251140Y-77105510D01*
X63092390Y-76946760D01*
X62255640Y-76946760D01*
X62001640Y-76946760D01*
X61981640Y-76946760D01*
X61981640Y-76692760D01*
X62001640Y-76692760D01*
X62001640Y-75643510D01*
X61907890Y-75549760D01*
X61991480Y-75466170D01*
X61991480Y-74416920D01*
X62245480Y-74416920D01*
X62245480Y-75466170D01*
X62339230Y-75559920D01*
X62255640Y-75643510D01*
X62255640Y-76692760D01*
X63092390Y-76692760D01*
X63251140Y-76534010D01*
X63254212Y-76119760D01*
X63241952Y-75995278D01*
X63205642Y-75875580D01*
X63146677Y-75765266D01*
X63067325Y-75668575D01*
X62970634Y-75589223D01*
X62901229Y-75552125D01*
X62960474Y-75520457D01*
X63057165Y-75441105D01*
X63136517Y-75344414D01*
X63195482Y-75234100D01*
X63231792Y-75114402D01*
X63244052Y-74989920D01*
X63240980Y-74575670D01*
X63082230Y-74416920D01*
X62245480Y-74416920D01*
X61991480Y-74416920D01*
X61971480Y-74416920D01*
X61971480Y-74162920D01*
X61991480Y-74162920D01*
X61991480Y-73113670D01*
X62245480Y-73113670D01*
X62245480Y-74162920D01*
X63082230Y-74162920D01*
X63240980Y-74004170D01*
X63244052Y-73589920D01*
X63231792Y-73465438D01*
X63195482Y-73345740D01*
X63136517Y-73235426D01*
X63057165Y-73138735D01*
X62960474Y-73059383D01*
X62913765Y-73034416D01*
X62990954Y-72993157D01*
X63087645Y-72913805D01*
X63166997Y-72817114D01*
X63225962Y-72706800D01*
X63262272Y-72587102D01*
X63274532Y-72462620D01*
X63271460Y-72048370D01*
X63112710Y-71889620D01*
X62275960Y-71889620D01*
X62275960Y-72938870D01*
X62348120Y-73011030D01*
X62245480Y-73113670D01*
X61991480Y-73113670D01*
X61919320Y-73041510D01*
X62021960Y-72938870D01*
X62021960Y-71889620D01*
X62001960Y-71889620D01*
X62001960Y-71635620D01*
X62021960Y-71635620D01*
X62021960Y-70586370D01*
X62275960Y-70586370D01*
X62275960Y-71635620D01*
X63112710Y-71635620D01*
X63271460Y-71476870D01*
X63274532Y-71062620D01*
X63262272Y-70938138D01*
X63225962Y-70818440D01*
X63166997Y-70708126D01*
X63087645Y-70611435D01*
X62990954Y-70532083D01*
X62928391Y-70498642D01*
X63008734Y-70455697D01*
X63105425Y-70376345D01*
X63184777Y-70279654D01*
X63243742Y-70169340D01*
X63280052Y-70049642D01*
X63292312Y-69925160D01*
X63289240Y-69510910D01*
X63130490Y-69352160D01*
X62293740Y-69352160D01*
X62293740Y-70401410D01*
X62377330Y-70485000D01*
X62275960Y-70586370D01*
X62021960Y-70586370D01*
X61938370Y-70502780D01*
X62039740Y-70401410D01*
X62039740Y-69352160D01*
X62019740Y-69352160D01*
X62019740Y-69098160D01*
X62039740Y-69098160D01*
X62039740Y-68048910D01*
X62293740Y-68048910D01*
X62293740Y-69098160D01*
X63130490Y-69098160D01*
X63289240Y-68939410D01*
X63292312Y-68525160D01*
X63280052Y-68400678D01*
X63243742Y-68280980D01*
X63184777Y-68170666D01*
X63105425Y-68073975D01*
X63008734Y-67994623D01*
X62898420Y-67935658D01*
X62778722Y-67899348D01*
X62654240Y-67887088D01*
X62452490Y-67890160D01*
X62293740Y-68048910D01*
X62039740Y-68048910D01*
X61880990Y-67890160D01*
X61679240Y-67887088D01*
X61554758Y-67899348D01*
X61435060Y-67935658D01*
X61324746Y-67994623D01*
X61228055Y-68073975D01*
X61164248Y-68151724D01*
X61159032Y-68145368D01*
X61025404Y-68035702D01*
X60872949Y-67954213D01*
X60707525Y-67904032D01*
X60535490Y-67887088D01*
X60047990Y-67887088D01*
X59875955Y-67904032D01*
X59710531Y-67954213D01*
X59558076Y-68035702D01*
X59424448Y-68145368D01*
X59314782Y-68278996D01*
X59282089Y-68340160D01*
X56005310Y-68340160D01*
X55978637Y-68300241D01*
X55778759Y-68100363D01*
X55546241Y-67945000D01*
X55778759Y-67789637D01*
X55978637Y-67589759D01*
X56135680Y-67354727D01*
X56243853Y-67093574D01*
X56299000Y-66816335D01*
X56299000Y-66533665D01*
X56243853Y-66256426D01*
X56135680Y-65995273D01*
X55978637Y-65760241D01*
X55778759Y-65560363D01*
X55546241Y-65405000D01*
X55778759Y-65249637D01*
X55978637Y-65049759D01*
X55998521Y-65020000D01*
X59223669Y-65020000D01*
X59256362Y-65081164D01*
X59366028Y-65214792D01*
X59499656Y-65324458D01*
X59652111Y-65405947D01*
X59817535Y-65456128D01*
X59989570Y-65473072D01*
X60477070Y-65473072D01*
X60649105Y-65456128D01*
X60814529Y-65405947D01*
X60966984Y-65324458D01*
X61100612Y-65214792D01*
X61105828Y-65208436D01*
X61169635Y-65286185D01*
X61266326Y-65365537D01*
X61376640Y-65424502D01*
X61496338Y-65460812D01*
X61620820Y-65473072D01*
X61822570Y-65470000D01*
X61981320Y-65311250D01*
X61981320Y-64262000D01*
X62235320Y-64262000D01*
X62235320Y-65311250D01*
X62394070Y-65470000D01*
X62595820Y-65473072D01*
X62720302Y-65460812D01*
X62840000Y-65424502D01*
X62950314Y-65365537D01*
X63047005Y-65286185D01*
X63126357Y-65189494D01*
X63185322Y-65079180D01*
X63221632Y-64959482D01*
X63233892Y-64835000D01*
X63230820Y-64420750D01*
X63072070Y-64262000D01*
X62235320Y-64262000D01*
X61981320Y-64262000D01*
X61961320Y-64262000D01*
X61961320Y-64008000D01*
X61981320Y-64008000D01*
X61981320Y-62958750D01*
X61882490Y-62859920D01*
X61968620Y-62773790D01*
X61968620Y-61724540D01*
X62222620Y-61724540D01*
X62222620Y-62773790D01*
X62321450Y-62872620D01*
X62235320Y-62958750D01*
X62235320Y-64008000D01*
X63072070Y-64008000D01*
X63230820Y-63849250D01*
X63233892Y-63435000D01*
X63221632Y-63310518D01*
X63185322Y-63190820D01*
X63126357Y-63080506D01*
X63047005Y-62983815D01*
X62950314Y-62904463D01*
X62872511Y-62862876D01*
X62937614Y-62828077D01*
X63034305Y-62748725D01*
X63113657Y-62652034D01*
X63172622Y-62541720D01*
X63208932Y-62422022D01*
X63221192Y-62297540D01*
X63218120Y-61883290D01*
X63059370Y-61724540D01*
X62222620Y-61724540D01*
X61968620Y-61724540D01*
X61948620Y-61724540D01*
X61948620Y-61470540D01*
X61968620Y-61470540D01*
X61968620Y-60421290D01*
X62222620Y-60421290D01*
X62222620Y-61470540D01*
X63059370Y-61470540D01*
X63218120Y-61311790D01*
X63221192Y-60897540D01*
X63208932Y-60773058D01*
X63172622Y-60653360D01*
X63113657Y-60543046D01*
X63034305Y-60446355D01*
X62937614Y-60367003D01*
X62879353Y-60335861D01*
X62978254Y-60282997D01*
X63074945Y-60203645D01*
X63154297Y-60106954D01*
X63213262Y-59996640D01*
X63249572Y-59876942D01*
X63261832Y-59752460D01*
X63258760Y-59338210D01*
X63100010Y-59179460D01*
X62263260Y-59179460D01*
X62263260Y-60228710D01*
X62339230Y-60304680D01*
X62222620Y-60421290D01*
X61968620Y-60421290D01*
X61892650Y-60345320D01*
X62009260Y-60228710D01*
X62009260Y-59179460D01*
X61989260Y-59179460D01*
X61989260Y-58925460D01*
X62009260Y-58925460D01*
X62009260Y-57876210D01*
X62263260Y-57876210D01*
X62263260Y-58925460D01*
X63100010Y-58925460D01*
X63258760Y-58766710D01*
X63261832Y-58352460D01*
X63249572Y-58227978D01*
X63213262Y-58108280D01*
X63154297Y-57997966D01*
X63074945Y-57901275D01*
X62978254Y-57821923D01*
X62915527Y-57788394D01*
X62990954Y-57748077D01*
X63087645Y-57668725D01*
X63166997Y-57572034D01*
X63225962Y-57461720D01*
X63262272Y-57342022D01*
X63274532Y-57217540D01*
X63271460Y-56803290D01*
X63112710Y-56644540D01*
X62275960Y-56644540D01*
X62275960Y-57693790D01*
X62360820Y-57778650D01*
X62263260Y-57876210D01*
X62009260Y-57876210D01*
X61924400Y-57791350D01*
X62021960Y-57693790D01*
X62021960Y-56644540D01*
X62001960Y-56644540D01*
X62001960Y-56390540D01*
X62021960Y-56390540D01*
X62021960Y-55341290D01*
X62275960Y-55341290D01*
X62275960Y-56390540D01*
X63112710Y-56390540D01*
X63271460Y-56231790D01*
X63274532Y-55817540D01*
X63262272Y-55693058D01*
X63225962Y-55573360D01*
X63166997Y-55463046D01*
X63087645Y-55366355D01*
X62990954Y-55287003D01*
X62880640Y-55228038D01*
X62760942Y-55191728D01*
X62636460Y-55179468D01*
X62434710Y-55182540D01*
X62275960Y-55341290D01*
X62021960Y-55341290D01*
X61863210Y-55182540D01*
X61661460Y-55179468D01*
X61536978Y-55191728D01*
X61417280Y-55228038D01*
X61306966Y-55287003D01*
X61210275Y-55366355D01*
X61146468Y-55444104D01*
X61141252Y-55437748D01*
X61007624Y-55328082D01*
X60855169Y-55246593D01*
X60689745Y-55196412D01*
X60517710Y-55179468D01*
X60030210Y-55179468D01*
X59858175Y-55196412D01*
X59692751Y-55246593D01*
X59540296Y-55328082D01*
X59406668Y-55437748D01*
X59297002Y-55571376D01*
X59264309Y-55632540D01*
X56000218Y-55632540D01*
X55978637Y-55600241D01*
X55778759Y-55400363D01*
X55546241Y-55245000D01*
X55778759Y-55089637D01*
X55978637Y-54889759D01*
X56135680Y-54654727D01*
X56243853Y-54393574D01*
X56299000Y-54116335D01*
X56299000Y-53833665D01*
X56243853Y-53556426D01*
X56135680Y-53295273D01*
X55978637Y-53060241D01*
X55778759Y-52860363D01*
X55546241Y-52705000D01*
X55778759Y-52549637D01*
X55978637Y-52349759D01*
X56135680Y-52114727D01*
X56243853Y-51853574D01*
X56299000Y-51576335D01*
X56299000Y-51293665D01*
X56243853Y-51016426D01*
X56135680Y-50755273D01*
X55978637Y-50520241D01*
X55778759Y-50320363D01*
X55546241Y-50165000D01*
X55778759Y-50009637D01*
X55978637Y-49809759D01*
X56135680Y-49574727D01*
X56243853Y-49313574D01*
X56299000Y-49036335D01*
X56299000Y-48753665D01*
X56243853Y-48476426D01*
X56135680Y-48215273D01*
X55978637Y-47980241D01*
X55778759Y-47780363D01*
X55546241Y-47625000D01*
X55778759Y-47469637D01*
X55978637Y-47269759D01*
X56135680Y-47034727D01*
X56243853Y-46773574D01*
X56299000Y-46496335D01*
X56299000Y-46213665D01*
X56243853Y-45936426D01*
X56135680Y-45675273D01*
X55978637Y-45440241D01*
X55778759Y-45240363D01*
X55546241Y-45085000D01*
X55778759Y-44929637D01*
X55978637Y-44729759D01*
X56135680Y-44494727D01*
X56243853Y-44233574D01*
X56299000Y-43956335D01*
X56299000Y-43673665D01*
X56243853Y-43396426D01*
X56135680Y-43135273D01*
X55978637Y-42900241D01*
X55780039Y-42701643D01*
X55788482Y-42700812D01*
X55908180Y-42664502D01*
X56018494Y-42605537D01*
X56115185Y-42526185D01*
X56194537Y-42429494D01*
X56253502Y-42319180D01*
X56289812Y-42199482D01*
X56302072Y-42075000D01*
X56302072Y-41133665D01*
X68669000Y-41133665D01*
X68669000Y-41416335D01*
X68724147Y-41693574D01*
X68832320Y-41954727D01*
X68989363Y-42189759D01*
X69189241Y-42389637D01*
X69421759Y-42545000D01*
X69189241Y-42700363D01*
X68989363Y-42900241D01*
X68832320Y-43135273D01*
X68724147Y-43396426D01*
X68669000Y-43673665D01*
X68669000Y-43956335D01*
X68724147Y-44233574D01*
X68832320Y-44494727D01*
X68989363Y-44729759D01*
X69189241Y-44929637D01*
X69421759Y-45085000D01*
X69189241Y-45240363D01*
X68989363Y-45440241D01*
X68832320Y-45675273D01*
X68724147Y-45936426D01*
X68669000Y-46213665D01*
X68669000Y-46496335D01*
X68724147Y-46773574D01*
X68832320Y-47034727D01*
X68989363Y-47269759D01*
X69189241Y-47469637D01*
X69421759Y-47625000D01*
X69189241Y-47780363D01*
X68989363Y-47980241D01*
X68832320Y-48215273D01*
X68724147Y-48476426D01*
X68669000Y-48753665D01*
X68669000Y-49036335D01*
X68724147Y-49313574D01*
X68832320Y-49574727D01*
X68989363Y-49809759D01*
X69189241Y-50009637D01*
X69421759Y-50165000D01*
X69189241Y-50320363D01*
X68989363Y-50520241D01*
X68832320Y-50755273D01*
X68724147Y-51016426D01*
X68669000Y-51293665D01*
X68669000Y-51576335D01*
X68724147Y-51853574D01*
X68832320Y-52114727D01*
X68989363Y-52349759D01*
X69189241Y-52549637D01*
X69421759Y-52705000D01*
X69189241Y-52860363D01*
X68989363Y-53060241D01*
X68832320Y-53295273D01*
X68724147Y-53556426D01*
X68669000Y-53833665D01*
X68669000Y-54116335D01*
X68724147Y-54393574D01*
X68832320Y-54654727D01*
X68989363Y-54889759D01*
X69189241Y-55089637D01*
X69421759Y-55245000D01*
X69189241Y-55400363D01*
X68989363Y-55600241D01*
X68832320Y-55835273D01*
X68724147Y-56096426D01*
X68669000Y-56373665D01*
X68669000Y-56656335D01*
X68724147Y-56933574D01*
X68832320Y-57194727D01*
X68989363Y-57429759D01*
X69189241Y-57629637D01*
X69421759Y-57785000D01*
X69189241Y-57940363D01*
X68989363Y-58140241D01*
X68832320Y-58375273D01*
X68724147Y-58636426D01*
X68669000Y-58913665D01*
X68669000Y-59196335D01*
X68724147Y-59473574D01*
X68832320Y-59734727D01*
X68989363Y-59969759D01*
X69189241Y-60169637D01*
X69421759Y-60325000D01*
X69189241Y-60480363D01*
X68989363Y-60680241D01*
X68832320Y-60915273D01*
X68724147Y-61176426D01*
X68669000Y-61453665D01*
X68669000Y-61736335D01*
X68724147Y-62013574D01*
X68832320Y-62274727D01*
X68989363Y-62509759D01*
X69189241Y-62709637D01*
X69421759Y-62865000D01*
X69189241Y-63020363D01*
X68989363Y-63220241D01*
X68832320Y-63455273D01*
X68724147Y-63716426D01*
X68669000Y-63993665D01*
X68669000Y-64276335D01*
X68724147Y-64553574D01*
X68832320Y-64814727D01*
X68989363Y-65049759D01*
X69189241Y-65249637D01*
X69421759Y-65405000D01*
X69189241Y-65560363D01*
X68989363Y-65760241D01*
X68832320Y-65995273D01*
X68724147Y-66256426D01*
X68669000Y-66533665D01*
X68669000Y-66816335D01*
X68724147Y-67093574D01*
X68832320Y-67354727D01*
X68989363Y-67589759D01*
X69189241Y-67789637D01*
X69424273Y-67946680D01*
X69434865Y-67951067D01*
X69248869Y-68062615D01*
X69040481Y-68251586D01*
X68872963Y-68477580D01*
X68752754Y-68731913D01*
X68712096Y-68865961D01*
X68834085Y-69088000D01*
X69977000Y-69088000D01*
X69977000Y-69068000D01*
X70231000Y-69068000D01*
X70231000Y-69088000D01*
X71373915Y-69088000D01*
X71495904Y-68865961D01*
X71455246Y-68731913D01*
X71335037Y-68477580D01*
X71167519Y-68251586D01*
X70959131Y-68062615D01*
X70773135Y-67951067D01*
X70783727Y-67946680D01*
X71018759Y-67789637D01*
X71218637Y-67589759D01*
X71238521Y-67560000D01*
X72213229Y-67560000D01*
X72245922Y-67621164D01*
X72355588Y-67754792D01*
X72489216Y-67864458D01*
X72641671Y-67945947D01*
X72807095Y-67996128D01*
X72979130Y-68013072D01*
X73466630Y-68013072D01*
X73638665Y-67996128D01*
X73804089Y-67945947D01*
X73956544Y-67864458D01*
X74090172Y-67754792D01*
X74160380Y-67669244D01*
X74212881Y-67733216D01*
X74212881Y-68450401D01*
X74208599Y-68493880D01*
X74225685Y-68667370D01*
X74276292Y-68834193D01*
X74358470Y-68987939D01*
X74441348Y-69088926D01*
X74441351Y-69088929D01*
X74469064Y-69122697D01*
X74502831Y-69150409D01*
X76210940Y-70858518D01*
X76189000Y-70968816D01*
X76189000Y-71271184D01*
X76247989Y-71567743D01*
X76363701Y-71847095D01*
X76531688Y-72098505D01*
X76745495Y-72312312D01*
X76996905Y-72480299D01*
X77276257Y-72596011D01*
X77572816Y-72655000D01*
X77875184Y-72655000D01*
X78171743Y-72596011D01*
X78451095Y-72480299D01*
X78702505Y-72312312D01*
X78768944Y-72245873D01*
X78774498Y-72264180D01*
X78833463Y-72374494D01*
X78912815Y-72471185D01*
X79009506Y-72550537D01*
X79119820Y-72609502D01*
X79239518Y-72645812D01*
X79364000Y-72658072D01*
X79978250Y-72655000D01*
X80137000Y-72496250D01*
X80137000Y-71247000D01*
X80391000Y-71247000D01*
X80391000Y-72496250D01*
X80549750Y-72655000D01*
X81164000Y-72658072D01*
X81288482Y-72645812D01*
X81408180Y-72609502D01*
X81518494Y-72550537D01*
X81615185Y-72471185D01*
X81694537Y-72374494D01*
X81753502Y-72264180D01*
X81789812Y-72144482D01*
X81802072Y-72020000D01*
X81799000Y-71405750D01*
X81640250Y-71247000D01*
X80391000Y-71247000D01*
X80137000Y-71247000D01*
X80117000Y-71247000D01*
X80117000Y-70993000D01*
X80137000Y-70993000D01*
X80137000Y-69743750D01*
X80391000Y-69743750D01*
X80391000Y-70993000D01*
X81640250Y-70993000D01*
X81799000Y-70834250D01*
X81802072Y-70220000D01*
X81789812Y-70095518D01*
X81753502Y-69975820D01*
X81694537Y-69865506D01*
X81615185Y-69768815D01*
X81518494Y-69689463D01*
X81408180Y-69630498D01*
X81288482Y-69594188D01*
X81164000Y-69581928D01*
X80549750Y-69585000D01*
X80391000Y-69743750D01*
X80137000Y-69743750D01*
X79978250Y-69585000D01*
X79364000Y-69581928D01*
X79239518Y-69594188D01*
X79119820Y-69630498D01*
X79009506Y-69689463D01*
X78912815Y-69768815D01*
X78833463Y-69865506D01*
X78774498Y-69975820D01*
X78768944Y-69994127D01*
X78702505Y-69927688D01*
X78451095Y-69759701D01*
X78171743Y-69643989D01*
X77875184Y-69585000D01*
X77572816Y-69585000D01*
X77462518Y-69606940D01*
X75982880Y-68127302D01*
X75982880Y-67733215D01*
X76074838Y-67621164D01*
X76156327Y-67468709D01*
X76206508Y-67303285D01*
X76223452Y-67131250D01*
X76223452Y-66218750D01*
X76206508Y-66046715D01*
X76156327Y-65881291D01*
X76074838Y-65728836D01*
X75965172Y-65595208D01*
X75831544Y-65485542D01*
X75691471Y-65410671D01*
X75829004Y-65337158D01*
X75962632Y-65227492D01*
X76072298Y-65093864D01*
X76104991Y-65032700D01*
X76479370Y-65032700D01*
X76541848Y-65126205D01*
X76755655Y-65340012D01*
X77007065Y-65507999D01*
X77286417Y-65623711D01*
X77582976Y-65682700D01*
X77885344Y-65682700D01*
X78181903Y-65623711D01*
X78461255Y-65507999D01*
X78712665Y-65340012D01*
X78779104Y-65273573D01*
X78784658Y-65291880D01*
X78843623Y-65402194D01*
X78922975Y-65498885D01*
X79019666Y-65578237D01*
X79129980Y-65637202D01*
X79249678Y-65673512D01*
X79374160Y-65685772D01*
X79988410Y-65682700D01*
X80147160Y-65523950D01*
X80147160Y-64274700D01*
X80401160Y-64274700D01*
X80401160Y-65523950D01*
X80559910Y-65682700D01*
X81174160Y-65685772D01*
X81298642Y-65673512D01*
X81418340Y-65637202D01*
X81528654Y-65578237D01*
X81625345Y-65498885D01*
X81704697Y-65402194D01*
X81763662Y-65291880D01*
X81799972Y-65172182D01*
X81812232Y-65047700D01*
X81809160Y-64433450D01*
X81650410Y-64274700D01*
X80401160Y-64274700D01*
X80147160Y-64274700D01*
X80127160Y-64274700D01*
X80127160Y-64020700D01*
X80147160Y-64020700D01*
X80147160Y-62771450D01*
X80401160Y-62771450D01*
X80401160Y-64020700D01*
X81650410Y-64020700D01*
X81809160Y-63861950D01*
X81812232Y-63247700D01*
X81799972Y-63123218D01*
X81763662Y-63003520D01*
X81704697Y-62893206D01*
X81625345Y-62796515D01*
X81528654Y-62717163D01*
X81418340Y-62658198D01*
X81298642Y-62621888D01*
X81174160Y-62609628D01*
X80559910Y-62612700D01*
X80401160Y-62771450D01*
X80147160Y-62771450D01*
X79988410Y-62612700D01*
X79374160Y-62609628D01*
X79249678Y-62621888D01*
X79129980Y-62658198D01*
X79019666Y-62717163D01*
X78922975Y-62796515D01*
X78843623Y-62893206D01*
X78784658Y-63003520D01*
X78779104Y-63021827D01*
X78712665Y-62955388D01*
X78461255Y-62787401D01*
X78181903Y-62671689D01*
X77885344Y-62612700D01*
X77582976Y-62612700D01*
X77286417Y-62671689D01*
X77007065Y-62787401D01*
X76755655Y-62955388D01*
X76541848Y-63169195D01*
X76479370Y-63262700D01*
X76104991Y-63262700D01*
X76072298Y-63201536D01*
X75962632Y-63067908D01*
X75829004Y-62958242D01*
X75676549Y-62876753D01*
X75663441Y-62872777D01*
X75694329Y-62863407D01*
X75846784Y-62781918D01*
X75980412Y-62672252D01*
X76090078Y-62538624D01*
X76171567Y-62386169D01*
X76221748Y-62220745D01*
X76238692Y-62048710D01*
X76238692Y-61136210D01*
X76221748Y-60964175D01*
X76171567Y-60798751D01*
X76130200Y-60721359D01*
X76130200Y-59741378D01*
X77462518Y-58409060D01*
X77572816Y-58431000D01*
X77875184Y-58431000D01*
X78171743Y-58372011D01*
X78451095Y-58256299D01*
X78702505Y-58088312D01*
X78768944Y-58021873D01*
X78774498Y-58040180D01*
X78833463Y-58150494D01*
X78912815Y-58247185D01*
X79009506Y-58326537D01*
X79119820Y-58385502D01*
X79239518Y-58421812D01*
X79364000Y-58434072D01*
X79978250Y-58431000D01*
X80137000Y-58272250D01*
X80137000Y-57023000D01*
X80391000Y-57023000D01*
X80391000Y-58272250D01*
X80549750Y-58431000D01*
X81164000Y-58434072D01*
X81288482Y-58421812D01*
X81408180Y-58385502D01*
X81518494Y-58326537D01*
X81615185Y-58247185D01*
X81694537Y-58150494D01*
X81753502Y-58040180D01*
X81789812Y-57920482D01*
X81802072Y-57796000D01*
X81799000Y-57181750D01*
X81640250Y-57023000D01*
X80391000Y-57023000D01*
X80137000Y-57023000D01*
X80117000Y-57023000D01*
X80117000Y-56769000D01*
X80137000Y-56769000D01*
X80137000Y-55519750D01*
X80391000Y-55519750D01*
X80391000Y-56769000D01*
X81640250Y-56769000D01*
X81799000Y-56610250D01*
X81802072Y-55996000D01*
X81789812Y-55871518D01*
X81753502Y-55751820D01*
X81694537Y-55641506D01*
X81615185Y-55544815D01*
X81518494Y-55465463D01*
X81408180Y-55406498D01*
X81288482Y-55370188D01*
X81164000Y-55357928D01*
X80549750Y-55361000D01*
X80391000Y-55519750D01*
X80137000Y-55519750D01*
X79978250Y-55361000D01*
X79364000Y-55357928D01*
X79239518Y-55370188D01*
X79119820Y-55406498D01*
X79009506Y-55465463D01*
X78912815Y-55544815D01*
X78833463Y-55641506D01*
X78774498Y-55751820D01*
X78768944Y-55770127D01*
X78702505Y-55703688D01*
X78451095Y-55535701D01*
X78171743Y-55419989D01*
X77875184Y-55361000D01*
X77572816Y-55361000D01*
X77276257Y-55419989D01*
X76996905Y-55535701D01*
X76745495Y-55703688D01*
X76531688Y-55917495D01*
X76363701Y-56168905D01*
X76247989Y-56448257D01*
X76189000Y-56744816D01*
X76189000Y-57047184D01*
X76210940Y-57157482D01*
X74650151Y-58718271D01*
X74616384Y-58745983D01*
X74588671Y-58779751D01*
X74588668Y-58779754D01*
X74505790Y-58880741D01*
X74423612Y-59034487D01*
X74373005Y-59201310D01*
X74355919Y-59374800D01*
X74360201Y-59418279D01*
X74360201Y-60418805D01*
X74245828Y-60512668D01*
X74175620Y-60598216D01*
X74105412Y-60512668D01*
X73971784Y-60403002D01*
X73819329Y-60321513D01*
X73653905Y-60271332D01*
X73481870Y-60254388D01*
X72994370Y-60254388D01*
X72822335Y-60271332D01*
X72656911Y-60321513D01*
X72504456Y-60403002D01*
X72370828Y-60512668D01*
X72261162Y-60646296D01*
X72227111Y-60710000D01*
X71238521Y-60710000D01*
X71218637Y-60680241D01*
X71018759Y-60480363D01*
X70786241Y-60325000D01*
X71018759Y-60169637D01*
X71218637Y-59969759D01*
X71375680Y-59734727D01*
X71483853Y-59473574D01*
X71539000Y-59196335D01*
X71539000Y-58913665D01*
X71483853Y-58636426D01*
X71375680Y-58375273D01*
X71218637Y-58140241D01*
X71018759Y-57940363D01*
X70786241Y-57785000D01*
X71018759Y-57629637D01*
X71218637Y-57429759D01*
X71375680Y-57194727D01*
X71483853Y-56933574D01*
X71539000Y-56656335D01*
X71539000Y-56373665D01*
X71483853Y-56096426D01*
X71375680Y-55835273D01*
X71218637Y-55600241D01*
X71018759Y-55400363D01*
X70786241Y-55245000D01*
X71018759Y-55089637D01*
X71218637Y-54889759D01*
X71375680Y-54654727D01*
X71483853Y-54393574D01*
X71539000Y-54116335D01*
X71539000Y-53833665D01*
X71483853Y-53556426D01*
X71375680Y-53295273D01*
X71218637Y-53060241D01*
X71018759Y-52860363D01*
X70786241Y-52705000D01*
X71018759Y-52549637D01*
X71218637Y-52349759D01*
X71375680Y-52114727D01*
X71483853Y-51853574D01*
X71539000Y-51576335D01*
X71539000Y-51293665D01*
X71483853Y-51016426D01*
X71375680Y-50755273D01*
X71218637Y-50520241D01*
X71018759Y-50320363D01*
X70786241Y-50165000D01*
X71018759Y-50009637D01*
X71218637Y-49809759D01*
X71375680Y-49574727D01*
X71483853Y-49313574D01*
X71539000Y-49036335D01*
X71539000Y-48753665D01*
X71483853Y-48476426D01*
X71375680Y-48215273D01*
X71218637Y-47980241D01*
X71018759Y-47780363D01*
X70786241Y-47625000D01*
X71018759Y-47469637D01*
X71218637Y-47269759D01*
X71375680Y-47034727D01*
X71483853Y-46773574D01*
X71505884Y-46662818D01*
X74166787Y-46662818D01*
X74658946Y-47265149D01*
X75509933Y-47735063D01*
X76436243Y-48029929D01*
X77402281Y-48138414D01*
X78370921Y-48056351D01*
X79304938Y-47786893D01*
X80168440Y-47340394D01*
X80281054Y-47265149D01*
X80773213Y-46662818D01*
X77470000Y-43359605D01*
X74166787Y-46662818D01*
X71505884Y-46662818D01*
X71539000Y-46496335D01*
X71539000Y-46213665D01*
X71483853Y-45936426D01*
X71375680Y-45675273D01*
X71218637Y-45440241D01*
X71018759Y-45240363D01*
X70786241Y-45085000D01*
X71018759Y-44929637D01*
X71218637Y-44729759D01*
X71375680Y-44494727D01*
X71483853Y-44233574D01*
X71539000Y-43956335D01*
X71539000Y-43673665D01*
X71483853Y-43396426D01*
X71375680Y-43135273D01*
X71360318Y-43112281D01*
X72511586Y-43112281D01*
X72593649Y-44080921D01*
X72863107Y-45014938D01*
X73309606Y-45878440D01*
X73384851Y-45991054D01*
X73987182Y-46483213D01*
X77290395Y-43180000D01*
X73987182Y-39876787D01*
X73384851Y-40368946D01*
X72914937Y-41219933D01*
X72620071Y-42146243D01*
X72511586Y-43112281D01*
X71360318Y-43112281D01*
X71218637Y-42900241D01*
X71018759Y-42700363D01*
X70786241Y-42545000D01*
X71018759Y-42389637D01*
X71218637Y-42189759D01*
X71375680Y-41954727D01*
X71483853Y-41693574D01*
X71539000Y-41416335D01*
X71539000Y-41133665D01*
X71483853Y-40856426D01*
X71375680Y-40595273D01*
X71218637Y-40360241D01*
X71018759Y-40160363D01*
X70783727Y-40003320D01*
X70522574Y-39895147D01*
X70245335Y-39840000D01*
X69962665Y-39840000D01*
X69685426Y-39895147D01*
X69424273Y-40003320D01*
X69189241Y-40160363D01*
X68989363Y-40360241D01*
X68832320Y-40595273D01*
X68724147Y-40856426D01*
X68669000Y-41133665D01*
X56302072Y-41133665D01*
X56302072Y-40475000D01*
X56289812Y-40350518D01*
X56253502Y-40230820D01*
X56194537Y-40120506D01*
X56115185Y-40023815D01*
X56018494Y-39944463D01*
X55908180Y-39885498D01*
X55788482Y-39849188D01*
X55664000Y-39836928D01*
X54064000Y-39836928D01*
X53939518Y-39849188D01*
X53819820Y-39885498D01*
X53709506Y-39944463D01*
X53612815Y-40023815D01*
X53533463Y-40120506D01*
X53474498Y-40230820D01*
X53438188Y-40350518D01*
X53425928Y-40475000D01*
X53425928Y-42075000D01*
X53438188Y-42199482D01*
X53474498Y-42319180D01*
X53533463Y-42429494D01*
X53612815Y-42526185D01*
X53709506Y-42605537D01*
X53819820Y-42664502D01*
X53939518Y-42700812D01*
X53947961Y-42701643D01*
X53749363Y-42900241D01*
X53592320Y-43135273D01*
X53484147Y-43396426D01*
X53429000Y-43673665D01*
X53429000Y-43956335D01*
X53484147Y-44233574D01*
X53592320Y-44494727D01*
X53749363Y-44729759D01*
X53949241Y-44929637D01*
X54181759Y-45085000D01*
X53949241Y-45240363D01*
X53749363Y-45440241D01*
X53592320Y-45675273D01*
X53484147Y-45936426D01*
X53429000Y-46213665D01*
X53429000Y-46496335D01*
X53484147Y-46773574D01*
X53592320Y-47034727D01*
X53749363Y-47269759D01*
X53949241Y-47469637D01*
X54181759Y-47625000D01*
X53949241Y-47780363D01*
X53749363Y-47980241D01*
X53592320Y-48215273D01*
X53484147Y-48476426D01*
X53429000Y-48753665D01*
X53429000Y-49036335D01*
X53484147Y-49313574D01*
X53592320Y-49574727D01*
X53749363Y-49809759D01*
X53949241Y-50009637D01*
X54181759Y-50165000D01*
X53949241Y-50320363D01*
X53749363Y-50520241D01*
X53592320Y-50755273D01*
X53484147Y-51016426D01*
X53429000Y-51293665D01*
X53429000Y-51576335D01*
X53484147Y-51853574D01*
X53592320Y-52114727D01*
X53749363Y-52349759D01*
X53949241Y-52549637D01*
X54181759Y-52705000D01*
X53949241Y-52860363D01*
X53749363Y-53060241D01*
X53592320Y-53295273D01*
X53484147Y-53556426D01*
X53429000Y-53833665D01*
X53429000Y-54116335D01*
X53435983Y-54151439D01*
X53018950Y-54568472D01*
X52985183Y-54596184D01*
X52957470Y-54629952D01*
X52957467Y-54629955D01*
X52874589Y-54730942D01*
X52792411Y-54884688D01*
X52741804Y-55051511D01*
X52724718Y-55225001D01*
X52729000Y-55268480D01*
X52728999Y-57779422D01*
X52234130Y-58274291D01*
X52179853Y-58001426D01*
X52071680Y-57740273D01*
X51914637Y-57505241D01*
X51714759Y-57305363D01*
X51482241Y-57150000D01*
X51714759Y-56994637D01*
X51914637Y-56794759D01*
X52071680Y-56559727D01*
X52179853Y-56298574D01*
X52235000Y-56021335D01*
X52235000Y-55738665D01*
X52179853Y-55461426D01*
X52071680Y-55200273D01*
X51914637Y-54965241D01*
X51714759Y-54765363D01*
X51482241Y-54610000D01*
X51714759Y-54454637D01*
X51914637Y-54254759D01*
X52071680Y-54019727D01*
X52179853Y-53758574D01*
X52235000Y-53481335D01*
X52235000Y-53198665D01*
X52179853Y-52921426D01*
X52071680Y-52660273D01*
X51914637Y-52425241D01*
X51714759Y-52225363D01*
X51479727Y-52068320D01*
X51469135Y-52063933D01*
X51655131Y-51952385D01*
X51863519Y-51763414D01*
X52031037Y-51537420D01*
X52151246Y-51283087D01*
X52191904Y-51149039D01*
X52069915Y-50927000D01*
X50927000Y-50927000D01*
X50927000Y-50947000D01*
X50673000Y-50947000D01*
X50673000Y-50927000D01*
X49530085Y-50927000D01*
X49408096Y-51149039D01*
X49448754Y-51283087D01*
X49568963Y-51537420D01*
X49736481Y-51763414D01*
X49944869Y-51952385D01*
X50130865Y-52063933D01*
X50120273Y-52068320D01*
X49885241Y-52225363D01*
X49685363Y-52425241D01*
X49528320Y-52660273D01*
X49420147Y-52921426D01*
X49365000Y-53198665D01*
X49365000Y-53481335D01*
X49420147Y-53758574D01*
X49528320Y-54019727D01*
X49685363Y-54254759D01*
X49885241Y-54454637D01*
X50117759Y-54610000D01*
X49885241Y-54765363D01*
X49685363Y-54965241D01*
X49528320Y-55200273D01*
X49420147Y-55461426D01*
X49365000Y-55738665D01*
X49365000Y-56021335D01*
X49420147Y-56298574D01*
X49528320Y-56559727D01*
X49685363Y-56794759D01*
X49885241Y-56994637D01*
X50117759Y-57150000D01*
X49885241Y-57305363D01*
X49685363Y-57505241D01*
X49528320Y-57740273D01*
X49420147Y-58001426D01*
X49365000Y-58278665D01*
X49365000Y-58561335D01*
X49420147Y-58838574D01*
X49528320Y-59099727D01*
X49685363Y-59334759D01*
X49885241Y-59534637D01*
X50117759Y-59690000D01*
X49885241Y-59845363D01*
X49685363Y-60045241D01*
X49665639Y-60074760D01*
X48533355Y-60074760D01*
X48421304Y-59982802D01*
X48268849Y-59901313D01*
X48103425Y-59851132D01*
X47931390Y-59834188D01*
X47018890Y-59834188D01*
X46846855Y-59851132D01*
X46681431Y-59901313D01*
X46528976Y-59982802D01*
X46395348Y-60092468D01*
X46285682Y-60226096D01*
X46204193Y-60378551D01*
X46154012Y-60543975D01*
X46137068Y-60716010D01*
X46137068Y-61203510D01*
X46154012Y-61375545D01*
X46204193Y-61540969D01*
X46285682Y-61693424D01*
X46395348Y-61827052D01*
X46480896Y-61897260D01*
X46395348Y-61967468D01*
X46285682Y-62101096D01*
X46204193Y-62253551D01*
X46154012Y-62418975D01*
X46137068Y-62591010D01*
X46137068Y-63078510D01*
X46154012Y-63250545D01*
X46204193Y-63415969D01*
X46285682Y-63568424D01*
X46395348Y-63702052D01*
X46528976Y-63811718D01*
X46585061Y-63841696D01*
X46585060Y-64019189D01*
X46523896Y-64051882D01*
X46390268Y-64161548D01*
X46280602Y-64295176D01*
X46199113Y-64447631D01*
X46148932Y-64613055D01*
X46131988Y-64785090D01*
X43884825Y-64785090D01*
X43862241Y-64770000D01*
X44094759Y-64614637D01*
X44294637Y-64414759D01*
X44451680Y-64179727D01*
X44559853Y-63918574D01*
X44615000Y-63641335D01*
X44615000Y-63358665D01*
X44559853Y-63081426D01*
X44451680Y-62820273D01*
X44294637Y-62585241D01*
X44094759Y-62385363D01*
X43862241Y-62230000D01*
X44094759Y-62074637D01*
X44294637Y-61874759D01*
X44451680Y-61639727D01*
X44559853Y-61378574D01*
X44615000Y-61101335D01*
X44615000Y-60818665D01*
X44559853Y-60541426D01*
X44451680Y-60280273D01*
X44294637Y-60045241D01*
X44094759Y-59845363D01*
X43862241Y-59690000D01*
X44094759Y-59534637D01*
X44294637Y-59334759D01*
X44451680Y-59099727D01*
X44559853Y-58838574D01*
X44615000Y-58561335D01*
X44615000Y-58278665D01*
X44559853Y-58001426D01*
X44451680Y-57740273D01*
X44294637Y-57505241D01*
X44094759Y-57305363D01*
X43862241Y-57150000D01*
X44094759Y-56994637D01*
X44294637Y-56794759D01*
X44451680Y-56559727D01*
X44559853Y-56298574D01*
X44615000Y-56021335D01*
X44615000Y-55738665D01*
X44559853Y-55461426D01*
X44451680Y-55200273D01*
X44294637Y-54965241D01*
X44094759Y-54765363D01*
X43862241Y-54610000D01*
X44094759Y-54454637D01*
X44294637Y-54254759D01*
X44451680Y-54019727D01*
X44559853Y-53758574D01*
X44615000Y-53481335D01*
X44615000Y-53198665D01*
X44559853Y-52921426D01*
X44451680Y-52660273D01*
X44294637Y-52425241D01*
X44094759Y-52225363D01*
X43862241Y-52070000D01*
X44094759Y-51914637D01*
X44294637Y-51714759D01*
X44451680Y-51479727D01*
X44559853Y-51218574D01*
X44615000Y-50941335D01*
X44615000Y-50658665D01*
X44573685Y-50450961D01*
X49408096Y-50450961D01*
X49530085Y-50673000D01*
X50673000Y-50673000D01*
X50673000Y-49529376D01*
X50927000Y-49529376D01*
X50927000Y-50673000D01*
X52069915Y-50673000D01*
X52191904Y-50450961D01*
X52151246Y-50316913D01*
X52031037Y-50062580D01*
X51863519Y-49836586D01*
X51655131Y-49647615D01*
X51413881Y-49502930D01*
X51149040Y-49408091D01*
X50927000Y-49529376D01*
X50673000Y-49529376D01*
X50450960Y-49408091D01*
X50186119Y-49502930D01*
X49944869Y-49647615D01*
X49736481Y-49836586D01*
X49568963Y-50062580D01*
X49448754Y-50316913D01*
X49408096Y-50450961D01*
X44573685Y-50450961D01*
X44559853Y-50381426D01*
X44451680Y-50120273D01*
X44294637Y-49885241D01*
X44094759Y-49685363D01*
X43859727Y-49528320D01*
X43598574Y-49420147D01*
X43321335Y-49365000D01*
X43038665Y-49365000D01*
X42761426Y-49420147D01*
X42500273Y-49528320D01*
X42265241Y-49685363D01*
X42065363Y-49885241D01*
X41908320Y-50120273D01*
X41800147Y-50381426D01*
X41745000Y-50658665D01*
X40030000Y-50658665D01*
X40030000Y-46662818D01*
X41146787Y-46662818D01*
X41638946Y-47265149D01*
X42489933Y-47735063D01*
X43416243Y-48029929D01*
X44382281Y-48138414D01*
X45350921Y-48056351D01*
X46284938Y-47786893D01*
X47148440Y-47340394D01*
X47261054Y-47265149D01*
X47753213Y-46662818D01*
X44450000Y-43359605D01*
X41146787Y-46662818D01*
X40030000Y-46662818D01*
X40030000Y-45376378D01*
X40289606Y-45878440D01*
X40364851Y-45991054D01*
X40967182Y-46483213D01*
X44270395Y-43180000D01*
X44629605Y-43180000D01*
X47932818Y-46483213D01*
X48535149Y-45991054D01*
X49005063Y-45140067D01*
X49299929Y-44213757D01*
X49408414Y-43247719D01*
X49326351Y-42279079D01*
X49056893Y-41345062D01*
X48610394Y-40481560D01*
X48535149Y-40368946D01*
X47932818Y-39876787D01*
X44629605Y-43180000D01*
X44270395Y-43180000D01*
X44256253Y-43165858D01*
X44435858Y-42986253D01*
X44450000Y-43000395D01*
X47753213Y-39697182D01*
X47261054Y-39094851D01*
X46654658Y-38760000D01*
X75273622Y-38760000D01*
X74771560Y-39019606D01*
G37*
X74771560Y-39019606D02*
X74658946Y-39094851D01*
X74166787Y-39697182D01*
X77470000Y-43000395D01*
X77484143Y-42986253D01*
X77663748Y-43165858D01*
X77649605Y-43180000D01*
X80952818Y-46483213D01*
X81555149Y-45991054D01*
X81890001Y-45384657D01*
X81890000Y-89243622D01*
X81630394Y-88741560D01*
X81555149Y-88628946D01*
X80952818Y-88136787D01*
X77649605Y-91440000D01*
X77663748Y-91454143D01*
X77484143Y-91633748D01*
X77470000Y-91619605D01*
X74166787Y-94922818D01*
X74658946Y-95525149D01*
X75265342Y-95860000D01*
X46646378Y-95860000D01*
X47148440Y-95600394D01*
X47261054Y-95525149D01*
X47753213Y-94922818D01*
X44450000Y-91619605D01*
X44435858Y-91633748D01*
X44256253Y-91454143D01*
X44270395Y-91440000D01*
X44629605Y-91440000D01*
X47932818Y-94743213D01*
X48535149Y-94251054D01*
X49005063Y-93400067D01*
X49299929Y-92473757D01*
X49408414Y-91507719D01*
X49396940Y-91372281D01*
X72511586Y-91372281D01*
X72593649Y-92340921D01*
X72863107Y-93274938D01*
X73309606Y-94138440D01*
X73384851Y-94251054D01*
X73987182Y-94743213D01*
X77290395Y-91440000D01*
X73987182Y-88136787D01*
X73384851Y-88628946D01*
X72914937Y-89479933D01*
X72620071Y-90406243D01*
X72511586Y-91372281D01*
X49396940Y-91372281D01*
X49326351Y-90539079D01*
X49056893Y-89605062D01*
X48610394Y-88741560D01*
X48535149Y-88628946D01*
X47932818Y-88136787D01*
X44629605Y-91440000D01*
X44270395Y-91440000D01*
X40967182Y-88136787D01*
X40364851Y-88628946D01*
X40030000Y-89235342D01*
X40030000Y-87957182D01*
X41146787Y-87957182D01*
X44450000Y-91260395D01*
X47753213Y-87957182D01*
X47261054Y-87354851D01*
X46410067Y-86884937D01*
X45483757Y-86590071D01*
X44517719Y-86481586D01*
X43549079Y-86563649D01*
X42615062Y-86833107D01*
X41751560Y-87279606D01*
X41638946Y-87354851D01*
X41146787Y-87957182D01*
X40030000Y-87957182D01*
X40030000Y-76404700D01*
X44761828Y-76404700D01*
X44774088Y-76529182D01*
X44810398Y-76648880D01*
X44869363Y-76759194D01*
X44948715Y-76855885D01*
X45045406Y-76935237D01*
X45155720Y-76994202D01*
X45275418Y-77030512D01*
X45399900Y-77042772D01*
X45601650Y-77039700D01*
X45760400Y-76880950D01*
X45760400Y-75831700D01*
X44923650Y-75831700D01*
X44764900Y-75990450D01*
X44761828Y-76404700D01*
X40030000Y-76404700D01*
X40030000Y-75004700D01*
X44761828Y-75004700D01*
X44764900Y-75418950D01*
X44923650Y-75577700D01*
X45760400Y-75577700D01*
X45760400Y-74528450D01*
X45601650Y-74369700D01*
X45399900Y-74366628D01*
X45275418Y-74378888D01*
X45155720Y-74415198D01*
X45045406Y-74474163D01*
X44948715Y-74553515D01*
X44869363Y-74650206D01*
X44810398Y-74760520D01*
X44774088Y-74880218D01*
X44761828Y-75004700D01*
X40030000Y-75004700D01*
X40030000Y-72492891D01*
X43770519Y-72492891D01*
X43867843Y-72767252D01*
X44016822Y-73017355D01*
X44211731Y-73233588D01*
X44445080Y-73407641D01*
X44707901Y-73532825D01*
X44855110Y-73577476D01*
X45085000Y-73456155D01*
X45085000Y-72263000D01*
X43891186Y-72263000D01*
X43770519Y-72492891D01*
X40030000Y-72492891D01*
X40030000Y-71779109D01*
X43770519Y-71779109D01*
X43891186Y-72009000D01*
X45085000Y-72009000D01*
X45085000Y-70815845D01*
X45339000Y-70815845D01*
X45339000Y-72009000D01*
X45359000Y-72009000D01*
X45359000Y-72263000D01*
X45339000Y-72263000D01*
X45339000Y-73456155D01*
X45568890Y-73577476D01*
X45716099Y-73532825D01*
X45978920Y-73407641D01*
X46212269Y-73233588D01*
X46288034Y-73149534D01*
X46312498Y-73230180D01*
X46371463Y-73340494D01*
X46450815Y-73437185D01*
X46547506Y-73516537D01*
X46617000Y-73553683D01*
X46617001Y-74414567D01*
X46499382Y-74378888D01*
X46374900Y-74366628D01*
X46173150Y-74369700D01*
X46014400Y-74528450D01*
X46014400Y-75577700D01*
X46034400Y-75577700D01*
X46034400Y-75831700D01*
X46014400Y-75831700D01*
X46014400Y-76880950D01*
X46173150Y-77039700D01*
X46374900Y-77042772D01*
X46499382Y-77030512D01*
X46619080Y-76994202D01*
X46729394Y-76935237D01*
X46826085Y-76855885D01*
X46889892Y-76778136D01*
X46895108Y-76784492D01*
X47028736Y-76894158D01*
X47181191Y-76975647D01*
X47346615Y-77025828D01*
X47518650Y-77042772D01*
X48006150Y-77042772D01*
X48178185Y-77025828D01*
X48343609Y-76975647D01*
X48496064Y-76894158D01*
X48629692Y-76784492D01*
X48739358Y-76650864D01*
X48820847Y-76498409D01*
X48871028Y-76332985D01*
X48887972Y-76160950D01*
X48887972Y-75856177D01*
X48902891Y-75704700D01*
X48887972Y-75553224D01*
X48887972Y-75248450D01*
X48887000Y-75238581D01*
X48887000Y-73553683D01*
X48956494Y-73516537D01*
X49053185Y-73437185D01*
X49132537Y-73340494D01*
X49191502Y-73230180D01*
X49227812Y-73110482D01*
X49240072Y-72986000D01*
X49240072Y-71286000D01*
X49227812Y-71161518D01*
X49191502Y-71041820D01*
X49132537Y-70931506D01*
X49053185Y-70834815D01*
X48956494Y-70755463D01*
X48846180Y-70696498D01*
X48726482Y-70660188D01*
X48602000Y-70647928D01*
X46902000Y-70647928D01*
X46777518Y-70660188D01*
X46657820Y-70696498D01*
X46547506Y-70755463D01*
X46450815Y-70834815D01*
X46371463Y-70931506D01*
X46312498Y-71041820D01*
X46288034Y-71122466D01*
X46212269Y-71038412D01*
X45978920Y-70864359D01*
X45716099Y-70739175D01*
X45568890Y-70694524D01*
X45339000Y-70815845D01*
X45085000Y-70815845D01*
X44855110Y-70694524D01*
X44707901Y-70739175D01*
X44445080Y-70864359D01*
X44211731Y-71038412D01*
X44016822Y-71254645D01*
X43867843Y-71504748D01*
X43770519Y-71779109D01*
X40030000Y-71779109D01*
X40030000Y-50658665D01*
X41745000Y-50658665D01*
X41745000Y-50941335D01*
X41800147Y-51218574D01*
X41908320Y-51479727D01*
X42065363Y-51714759D01*
X42265241Y-51914637D01*
X42497759Y-52070000D01*
X42265241Y-52225363D01*
X42065363Y-52425241D01*
X41908320Y-52660273D01*
X41800147Y-52921426D01*
X41745000Y-53198665D01*
X41745000Y-53481335D01*
X41800147Y-53758574D01*
X41908320Y-54019727D01*
X42065363Y-54254759D01*
X42265241Y-54454637D01*
X42497759Y-54610000D01*
X42265241Y-54765363D01*
X42065363Y-54965241D01*
X41908320Y-55200273D01*
X41800147Y-55461426D01*
X41745000Y-55738665D01*
X41745000Y-56021335D01*
X41800147Y-56298574D01*
X41908320Y-56559727D01*
X42065363Y-56794759D01*
X42265241Y-56994637D01*
X42497759Y-57150000D01*
X42265241Y-57305363D01*
X42065363Y-57505241D01*
X41908320Y-57740273D01*
X41800147Y-58001426D01*
X41745000Y-58278665D01*
X41745000Y-58561335D01*
X41800147Y-58838574D01*
X41908320Y-59099727D01*
X42065363Y-59334759D01*
X42265241Y-59534637D01*
X42497759Y-59690000D01*
X42265241Y-59845363D01*
X42065363Y-60045241D01*
X41908320Y-60280273D01*
X41800147Y-60541426D01*
X41745000Y-60818665D01*
X41745000Y-61101335D01*
X41800147Y-61378574D01*
X41908320Y-61639727D01*
X42065363Y-61874759D01*
X42265241Y-62074637D01*
X42497759Y-62230000D01*
X42265241Y-62385363D01*
X42065363Y-62585241D01*
X41908320Y-62820273D01*
X41800147Y-63081426D01*
X41745000Y-63358665D01*
X41745000Y-63641335D01*
X41800147Y-63918574D01*
X41908320Y-64179727D01*
X42065363Y-64414759D01*
X42265241Y-64614637D01*
X42497759Y-64770000D01*
X42265241Y-64925363D01*
X42065363Y-65125241D01*
X41908320Y-65360273D01*
X41800147Y-65621426D01*
X41745000Y-65898665D01*
X41745000Y-66181335D01*
X41800147Y-66458574D01*
X41908320Y-66719727D01*
X42065363Y-66954759D01*
X42265241Y-67154637D01*
X42500273Y-67311680D01*
X42761426Y-67419853D01*
X43038665Y-67475000D01*
X43321335Y-67475000D01*
X43598574Y-67419853D01*
X43667410Y-67391340D01*
X46131988Y-67391340D01*
X46144248Y-67515822D01*
X46180558Y-67635520D01*
X46239523Y-67745834D01*
X46318875Y-67842525D01*
X46415566Y-67921877D01*
X46525880Y-67980842D01*
X46645578Y-68017152D01*
X46770060Y-68029412D01*
X47184310Y-68026340D01*
X47343060Y-67867590D01*
X47343060Y-67030840D01*
X47597060Y-67030840D01*
X47597060Y-67867590D01*
X47755810Y-68026340D01*
X48170060Y-68029412D01*
X48294542Y-68017152D01*
X48414240Y-67980842D01*
X48524554Y-67921877D01*
X48621245Y-67842525D01*
X48700597Y-67745834D01*
X48759562Y-67635520D01*
X48795872Y-67515822D01*
X48808132Y-67391340D01*
X48805060Y-67189590D01*
X48646310Y-67030840D01*
X47597060Y-67030840D01*
X47343060Y-67030840D01*
X46293810Y-67030840D01*
X46135060Y-67189590D01*
X46131988Y-67391340D01*
X43667410Y-67391340D01*
X43859727Y-67311680D01*
X44094759Y-67154637D01*
X44294637Y-66954759D01*
X44451680Y-66719727D01*
X44559853Y-66458574D01*
X44615000Y-66181335D01*
X44615000Y-65898665D01*
X44559853Y-65621426D01*
X44451680Y-65360273D01*
X44294637Y-65125241D01*
X44094759Y-64925363D01*
X43884825Y-64785090D01*
X46131988Y-64785090D01*
X46131988Y-65272590D01*
X46148932Y-65444625D01*
X46199113Y-65610049D01*
X46280602Y-65762504D01*
X46390268Y-65896132D01*
X46396624Y-65901348D01*
X46318875Y-65965155D01*
X46239523Y-66061846D01*
X46180558Y-66172160D01*
X46144248Y-66291858D01*
X46131988Y-66416340D01*
X46135060Y-66618090D01*
X46293810Y-66776840D01*
X47343060Y-66776840D01*
X47343060Y-66756840D01*
X47597060Y-66756840D01*
X47597060Y-66776840D01*
X48646310Y-66776840D01*
X48805060Y-66618090D01*
X48808132Y-66416340D01*
X48795872Y-66291858D01*
X48759562Y-66172160D01*
X48700597Y-66061846D01*
X48621245Y-65965155D01*
X48543496Y-65901348D01*
X48549852Y-65896132D01*
X48659518Y-65762504D01*
X48741007Y-65610049D01*
X48791188Y-65444625D01*
X48808132Y-65272590D01*
X48808132Y-64785090D01*
X48791188Y-64613055D01*
X48741007Y-64447631D01*
X48659518Y-64295176D01*
X48549852Y-64161548D01*
X48416224Y-64051882D01*
X48355060Y-64019189D01*
X48355060Y-63847126D01*
X48421304Y-63811718D01*
X48533355Y-63719760D01*
X49380600Y-63719760D01*
X49420147Y-63918574D01*
X49528320Y-64179727D01*
X49685363Y-64414759D01*
X49883961Y-64613357D01*
X49875518Y-64614188D01*
X49755820Y-64650498D01*
X49645506Y-64709463D01*
X49548815Y-64788815D01*
X49469463Y-64885506D01*
X49410498Y-64995820D01*
X49374188Y-65115518D01*
X49361928Y-65240000D01*
X49361928Y-66840000D01*
X49374188Y-66964482D01*
X49410498Y-67084180D01*
X49469463Y-67194494D01*
X49548815Y-67291185D01*
X49645506Y-67370537D01*
X49755820Y-67429502D01*
X49875518Y-67465812D01*
X50000000Y-67478072D01*
X51600000Y-67478072D01*
X51724482Y-67465812D01*
X51844180Y-67429502D01*
X51954494Y-67370537D01*
X52051185Y-67291185D01*
X52130537Y-67194494D01*
X52189502Y-67084180D01*
X52225812Y-66964482D01*
X52238072Y-66840000D01*
X52238072Y-65240000D01*
X52225812Y-65115518D01*
X52189502Y-64995820D01*
X52130537Y-64885506D01*
X52051185Y-64788815D01*
X51954494Y-64709463D01*
X51844180Y-64650498D01*
X51724482Y-64614188D01*
X51716039Y-64613357D01*
X51914637Y-64414759D01*
X52071680Y-64179727D01*
X52179853Y-63918574D01*
X52235000Y-63641335D01*
X52235000Y-63358665D01*
X52179853Y-63081426D01*
X52071680Y-62820273D01*
X51914637Y-62585241D01*
X51714759Y-62385363D01*
X51482241Y-62230000D01*
X51714759Y-62074637D01*
X51914637Y-61874759D01*
X52071680Y-61639727D01*
X52179853Y-61378574D01*
X52235000Y-61101335D01*
X52235000Y-60818665D01*
X52228017Y-60783561D01*
X53499922Y-59511657D01*
X53592320Y-59734727D01*
X53749363Y-59969759D01*
X53949241Y-60169637D01*
X54181759Y-60325000D01*
X53949241Y-60480363D01*
X53749363Y-60680241D01*
X53592320Y-60915273D01*
X53484147Y-61176426D01*
X53429000Y-61453665D01*
X53429000Y-61736335D01*
X53484147Y-62013574D01*
X53592320Y-62274727D01*
X53749363Y-62509759D01*
X53949241Y-62709637D01*
X54181759Y-62865000D01*
X53949241Y-63020363D01*
X53749363Y-63220241D01*
X53592320Y-63455273D01*
X53484147Y-63716426D01*
X53429000Y-63993665D01*
X53429000Y-64276335D01*
X53484147Y-64553574D01*
X53592320Y-64814727D01*
X53749363Y-65049759D01*
X53949241Y-65249637D01*
X54181759Y-65405000D01*
X53949241Y-65560363D01*
X53749363Y-65760241D01*
X53592320Y-65995273D01*
X53484147Y-66256426D01*
X53429000Y-66533665D01*
X53429000Y-66816335D01*
X53484147Y-67093574D01*
X53592320Y-67354727D01*
X53749363Y-67589759D01*
X53949241Y-67789637D01*
X54181759Y-67945000D01*
X53949241Y-68100363D01*
X53749363Y-68300241D01*
X53592320Y-68535273D01*
X53484147Y-68796426D01*
X53429000Y-69073665D01*
X53429000Y-69356335D01*
X53484147Y-69633574D01*
X53592320Y-69894727D01*
X53749363Y-70129759D01*
X53949241Y-70329637D01*
X54181759Y-70485000D01*
X53949241Y-70640363D01*
X53749363Y-70840241D01*
X53592320Y-71075273D01*
X53484147Y-71336426D01*
X53429000Y-71613665D01*
X53429000Y-71896335D01*
X53484147Y-72173574D01*
X53592320Y-72434727D01*
X53749363Y-72669759D01*
X53949241Y-72869637D01*
X54181759Y-73025000D01*
X53949241Y-73180363D01*
X53749363Y-73380241D01*
X53592320Y-73615273D01*
X53484147Y-73876426D01*
X53429000Y-74153665D01*
X53429000Y-74436335D01*
X53484147Y-74713574D01*
X53592320Y-74974727D01*
X53749363Y-75209759D01*
X53949241Y-75409637D01*
X54181759Y-75565000D01*
X53949241Y-75720363D01*
X53749363Y-75920241D01*
X53592320Y-76155273D01*
X53484147Y-76416426D01*
X53429000Y-76693665D01*
X53429000Y-76976335D01*
X53484147Y-77253574D01*
X53592320Y-77514727D01*
X53749363Y-77749759D01*
X53949241Y-77949637D01*
X54181759Y-78105000D01*
X53949241Y-78260363D01*
X53749363Y-78460241D01*
X53592320Y-78695273D01*
X53484147Y-78956426D01*
X53429000Y-79233665D01*
X53429000Y-79516335D01*
X53484147Y-79793574D01*
X53592320Y-80054727D01*
X53749363Y-80289759D01*
X53949241Y-80489637D01*
X54181759Y-80645000D01*
X53949241Y-80800363D01*
X53749363Y-81000241D01*
X53592320Y-81235273D01*
X53484147Y-81496426D01*
X53429000Y-81773665D01*
X53429000Y-82056335D01*
X53484147Y-82333574D01*
X53592320Y-82594727D01*
X53749363Y-82829759D01*
X53949241Y-83029637D01*
X54181759Y-83185000D01*
X53949241Y-83340363D01*
X53749363Y-83540241D01*
X53592320Y-83775273D01*
X53484147Y-84036426D01*
X53429000Y-84313665D01*
X53429000Y-84596335D01*
X53484147Y-84873574D01*
X53592320Y-85134727D01*
X53749363Y-85369759D01*
X53949241Y-85569637D01*
X54181759Y-85725000D01*
X53949241Y-85880363D01*
X53749363Y-86080241D01*
X53592320Y-86315273D01*
X53484147Y-86576426D01*
X53429000Y-86853665D01*
X53429000Y-87136335D01*
X53484147Y-87413574D01*
X53592320Y-87674727D01*
X53749363Y-87909759D01*
X53949241Y-88109637D01*
X54181759Y-88265000D01*
X53949241Y-88420363D01*
X53749363Y-88620241D01*
X53592320Y-88855273D01*
X53484147Y-89116426D01*
X53429000Y-89393665D01*
X53429000Y-89676335D01*
X53484147Y-89953574D01*
X53592320Y-90214727D01*
X53749363Y-90449759D01*
X53949241Y-90649637D01*
X54184273Y-90806680D01*
X54445426Y-90914853D01*
X54722665Y-90970000D01*
X55005335Y-90970000D01*
X55282574Y-90914853D01*
X55543727Y-90806680D01*
X55778759Y-90649637D01*
X55978637Y-90449759D01*
X56135680Y-90214727D01*
X56243853Y-89953574D01*
X56299000Y-89676335D01*
X56299000Y-89393665D01*
X56243853Y-89116426D01*
X56135680Y-88855273D01*
X55978637Y-88620241D01*
X55778759Y-88420363D01*
X55546241Y-88265000D01*
X55778759Y-88109637D01*
X55978637Y-87909759D01*
X56135680Y-87674727D01*
X56243853Y-87413574D01*
X56299000Y-87136335D01*
X56299000Y-86853665D01*
X56243853Y-86576426D01*
X56135680Y-86315273D01*
X55978637Y-86080241D01*
X55778759Y-85880363D01*
X55546241Y-85725000D01*
X55778759Y-85569637D01*
X55978637Y-85369759D01*
X56135680Y-85134727D01*
X56243853Y-84873574D01*
X56299000Y-84596335D01*
X56299000Y-84313665D01*
X56243853Y-84036426D01*
X56135680Y-83775273D01*
X55978637Y-83540241D01*
X55778759Y-83340363D01*
X55546241Y-83185000D01*
X55778759Y-83029637D01*
X55978637Y-82829759D01*
X56135680Y-82594727D01*
X56243853Y-82333574D01*
X56299000Y-82056335D01*
X56299000Y-81773665D01*
X56243853Y-81496426D01*
X56135680Y-81235273D01*
X55978637Y-81000241D01*
X55778759Y-80800363D01*
X55546241Y-80645000D01*
X55778759Y-80489637D01*
X55978637Y-80289759D01*
X56135680Y-80054727D01*
X56243853Y-79793574D01*
X56299000Y-79516335D01*
X56299000Y-79233665D01*
X56243853Y-78956426D01*
X56135680Y-78695273D01*
X55978637Y-78460241D01*
X55778759Y-78260363D01*
X55546241Y-78105000D01*
X55778759Y-77949637D01*
X55978637Y-77749759D01*
X56008704Y-77704760D01*
X59243989Y-77704760D01*
X59276682Y-77765924D01*
X59386348Y-77899552D01*
X59519976Y-78009218D01*
X59672431Y-78090707D01*
X59837855Y-78140888D01*
X60009890Y-78157832D01*
X60497390Y-78157832D01*
X60669425Y-78140888D01*
X60834849Y-78090707D01*
X60987304Y-78009218D01*
X61120932Y-77899552D01*
X61126148Y-77893196D01*
X61189955Y-77970945D01*
X61286646Y-78050297D01*
X61396960Y-78109262D01*
X61516658Y-78145572D01*
X61641140Y-78157832D01*
X61842890Y-78154760D01*
X62001640Y-77996010D01*
X62001640Y-76946760D01*
X62255640Y-76946760D01*
X62255640Y-77996010D01*
X62414390Y-78154760D01*
X62616140Y-78157832D01*
X62740622Y-78145572D01*
X62860320Y-78109262D01*
X62970634Y-78050297D01*
X63067325Y-77970945D01*
X63146677Y-77874254D01*
X63205642Y-77763940D01*
X63241952Y-77644242D01*
X63254212Y-77519760D01*
X63252335Y-77266650D01*
X65903348Y-77266650D01*
X65903348Y-77754150D01*
X65920292Y-77926185D01*
X65970473Y-78091609D01*
X66051962Y-78244064D01*
X66161628Y-78377692D01*
X66247176Y-78447900D01*
X66161628Y-78518108D01*
X66051962Y-78651736D01*
X65970473Y-78804191D01*
X65920292Y-78969615D01*
X65903348Y-79141650D01*
X65903348Y-79629150D01*
X65920292Y-79801185D01*
X65970473Y-79966609D01*
X66051962Y-80119064D01*
X66161628Y-80252692D01*
X66295256Y-80362358D01*
X66447711Y-80443847D01*
X66613135Y-80494028D01*
X66785170Y-80510972D01*
X67089943Y-80510972D01*
X67185668Y-80520400D01*
X69235281Y-80520400D01*
X69421759Y-80645000D01*
X69219716Y-80780000D01*
X69215928Y-80780000D01*
X69049181Y-80796423D01*
X68835233Y-80861324D01*
X68638057Y-80966716D01*
X68465231Y-81108551D01*
X68323396Y-81281377D01*
X68218004Y-81478553D01*
X68153103Y-81692501D01*
X68131189Y-81915000D01*
X68153103Y-82137499D01*
X68218004Y-82351447D01*
X68323396Y-82548623D01*
X68465231Y-82721449D01*
X68638057Y-82863284D01*
X68835233Y-82968676D01*
X69049181Y-83033577D01*
X69215928Y-83050000D01*
X69219716Y-83050000D01*
X69421759Y-83185000D01*
X69189241Y-83340363D01*
X68989363Y-83540241D01*
X68832320Y-83775273D01*
X68724147Y-84036426D01*
X68669000Y-84313665D01*
X68669000Y-84596335D01*
X68724147Y-84873574D01*
X68832320Y-85134727D01*
X68989363Y-85369759D01*
X69189241Y-85569637D01*
X69421759Y-85725000D01*
X69189241Y-85880363D01*
X68989363Y-86080241D01*
X68832320Y-86315273D01*
X68724147Y-86576426D01*
X68669000Y-86853665D01*
X68669000Y-87136335D01*
X68724147Y-87413574D01*
X68832320Y-87674727D01*
X68989363Y-87909759D01*
X69189241Y-88109637D01*
X69421759Y-88265000D01*
X69189241Y-88420363D01*
X68989363Y-88620241D01*
X68832320Y-88855273D01*
X68724147Y-89116426D01*
X68669000Y-89393665D01*
X68669000Y-89676335D01*
X68724147Y-89953574D01*
X68832320Y-90214727D01*
X68989363Y-90449759D01*
X69189241Y-90649637D01*
X69424273Y-90806680D01*
X69685426Y-90914853D01*
X69962665Y-90970000D01*
X70245335Y-90970000D01*
X70522574Y-90914853D01*
X70783727Y-90806680D01*
X71018759Y-90649637D01*
X71218637Y-90449759D01*
X71375680Y-90214727D01*
X71483853Y-89953574D01*
X71539000Y-89676335D01*
X71539000Y-89393665D01*
X71483853Y-89116426D01*
X71375680Y-88855273D01*
X71218637Y-88620241D01*
X71018759Y-88420363D01*
X70786241Y-88265000D01*
X71018759Y-88109637D01*
X71171214Y-87957182D01*
X74166787Y-87957182D01*
X77470000Y-91260395D01*
X80773213Y-87957182D01*
X80281054Y-87354851D01*
X79430067Y-86884937D01*
X78503757Y-86590071D01*
X77537719Y-86481586D01*
X76569079Y-86563649D01*
X75635062Y-86833107D01*
X74771560Y-87279606D01*
X74658946Y-87354851D01*
X74166787Y-87957182D01*
X71171214Y-87957182D01*
X71218637Y-87909759D01*
X71375680Y-87674727D01*
X71483853Y-87413574D01*
X71539000Y-87136335D01*
X71539000Y-86853665D01*
X71483853Y-86576426D01*
X71375680Y-86315273D01*
X71218637Y-86080241D01*
X71018759Y-85880363D01*
X70786241Y-85725000D01*
X71018759Y-85569637D01*
X71218637Y-85369759D01*
X71375680Y-85134727D01*
X71483853Y-84873574D01*
X71539000Y-84596335D01*
X71539000Y-84313665D01*
X71483853Y-84036426D01*
X71375680Y-83775273D01*
X71218637Y-83540241D01*
X71018759Y-83340363D01*
X70786241Y-83185000D01*
X71018759Y-83029637D01*
X71218637Y-82829759D01*
X71375680Y-82594727D01*
X71483853Y-82333574D01*
X71539000Y-82056335D01*
X71539000Y-81773665D01*
X71483853Y-81496426D01*
X71375680Y-81235273D01*
X71218637Y-81000241D01*
X71018759Y-80800363D01*
X70786241Y-80645000D01*
X71018759Y-80489637D01*
X71218637Y-80289759D01*
X71375680Y-80054727D01*
X71483853Y-79793574D01*
X71539000Y-79516335D01*
X71539000Y-79233665D01*
X71483853Y-78956426D01*
X71375680Y-78695273D01*
X71218637Y-78460241D01*
X71018759Y-78260363D01*
X70786241Y-78105000D01*
X71018759Y-77949637D01*
X71218637Y-77749759D01*
X71375680Y-77514727D01*
X71483853Y-77253574D01*
X71539000Y-76976335D01*
X71539000Y-76693665D01*
X71483853Y-76416426D01*
X71375680Y-76155273D01*
X71218637Y-75920241D01*
X71018759Y-75720363D01*
X70786241Y-75565000D01*
X71018759Y-75409637D01*
X71218637Y-75209759D01*
X71375680Y-74974727D01*
X71483853Y-74713574D01*
X71539000Y-74436335D01*
X71539000Y-74153665D01*
X71483853Y-73876426D01*
X71375680Y-73615273D01*
X71218637Y-73380241D01*
X71018759Y-73180363D01*
X70786241Y-73025000D01*
X71018759Y-72869637D01*
X71218637Y-72669759D01*
X71375680Y-72434727D01*
X71483853Y-72173574D01*
X71539000Y-71896335D01*
X71539000Y-71613665D01*
X71483853Y-71336426D01*
X71375680Y-71075273D01*
X71218637Y-70840241D01*
X71018759Y-70640363D01*
X70783727Y-70483320D01*
X70773135Y-70478933D01*
X70959131Y-70367385D01*
X71167519Y-70178414D01*
X71335037Y-69952420D01*
X71455246Y-69698087D01*
X71495904Y-69564039D01*
X71373915Y-69342000D01*
X70231000Y-69342000D01*
X70231000Y-69362000D01*
X69977000Y-69362000D01*
X69977000Y-69342000D01*
X68834085Y-69342000D01*
X68712096Y-69564039D01*
X68752754Y-69698087D01*
X68872963Y-69952420D01*
X69040481Y-70178414D01*
X69248869Y-70367385D01*
X69434865Y-70478933D01*
X69424273Y-70483320D01*
X69189241Y-70640363D01*
X68989363Y-70840241D01*
X68832320Y-71075273D01*
X68724147Y-71336426D01*
X68669000Y-71613665D01*
X68669000Y-71896335D01*
X68724147Y-72173574D01*
X68832320Y-72434727D01*
X68989363Y-72669759D01*
X69189241Y-72869637D01*
X69421759Y-73025000D01*
X69189241Y-73180363D01*
X68989363Y-73380241D01*
X68832320Y-73615273D01*
X68724147Y-73876426D01*
X68669000Y-74153665D01*
X68669000Y-74436335D01*
X68724147Y-74713574D01*
X68832320Y-74974727D01*
X68989363Y-75209759D01*
X69189241Y-75409637D01*
X69421759Y-75565000D01*
X69189241Y-75720363D01*
X68989363Y-75920241D01*
X68832320Y-76155273D01*
X68724147Y-76416426D01*
X68682579Y-76625400D01*
X68299635Y-76625400D01*
X68187584Y-76533442D01*
X68035129Y-76451953D01*
X67869705Y-76401772D01*
X67697670Y-76384828D01*
X66785170Y-76384828D01*
X66613135Y-76401772D01*
X66447711Y-76451953D01*
X66295256Y-76533442D01*
X66161628Y-76643108D01*
X66051962Y-76776736D01*
X65970473Y-76929191D01*
X65920292Y-77094615D01*
X65903348Y-77266650D01*
X63252335Y-77266650D01*
X63251140Y-77105510D01*
X63092390Y-76946760D01*
X62255640Y-76946760D01*
X62001640Y-76946760D01*
X61981640Y-76946760D01*
X61981640Y-76692760D01*
X62001640Y-76692760D01*
X62001640Y-75643510D01*
X61907890Y-75549760D01*
X61991480Y-75466170D01*
X61991480Y-74416920D01*
X62245480Y-74416920D01*
X62245480Y-75466170D01*
X62339230Y-75559920D01*
X62255640Y-75643510D01*
X62255640Y-76692760D01*
X63092390Y-76692760D01*
X63251140Y-76534010D01*
X63254212Y-76119760D01*
X63241952Y-75995278D01*
X63205642Y-75875580D01*
X63146677Y-75765266D01*
X63067325Y-75668575D01*
X62970634Y-75589223D01*
X62901229Y-75552125D01*
X62960474Y-75520457D01*
X63057165Y-75441105D01*
X63136517Y-75344414D01*
X63195482Y-75234100D01*
X63231792Y-75114402D01*
X63244052Y-74989920D01*
X63240980Y-74575670D01*
X63082230Y-74416920D01*
X62245480Y-74416920D01*
X61991480Y-74416920D01*
X61971480Y-74416920D01*
X61971480Y-74162920D01*
X61991480Y-74162920D01*
X61991480Y-73113670D01*
X62245480Y-73113670D01*
X62245480Y-74162920D01*
X63082230Y-74162920D01*
X63240980Y-74004170D01*
X63244052Y-73589920D01*
X63231792Y-73465438D01*
X63195482Y-73345740D01*
X63136517Y-73235426D01*
X63057165Y-73138735D01*
X62960474Y-73059383D01*
X62913765Y-73034416D01*
X62990954Y-72993157D01*
X63087645Y-72913805D01*
X63166997Y-72817114D01*
X63225962Y-72706800D01*
X63262272Y-72587102D01*
X63274532Y-72462620D01*
X63271460Y-72048370D01*
X63112710Y-71889620D01*
X62275960Y-71889620D01*
X62275960Y-72938870D01*
X62348120Y-73011030D01*
X62245480Y-73113670D01*
X61991480Y-73113670D01*
X61919320Y-73041510D01*
X62021960Y-72938870D01*
X62021960Y-71889620D01*
X62001960Y-71889620D01*
X62001960Y-71635620D01*
X62021960Y-71635620D01*
X62021960Y-70586370D01*
X62275960Y-70586370D01*
X62275960Y-71635620D01*
X63112710Y-71635620D01*
X63271460Y-71476870D01*
X63274532Y-71062620D01*
X63262272Y-70938138D01*
X63225962Y-70818440D01*
X63166997Y-70708126D01*
X63087645Y-70611435D01*
X62990954Y-70532083D01*
X62928391Y-70498642D01*
X63008734Y-70455697D01*
X63105425Y-70376345D01*
X63184777Y-70279654D01*
X63243742Y-70169340D01*
X63280052Y-70049642D01*
X63292312Y-69925160D01*
X63289240Y-69510910D01*
X63130490Y-69352160D01*
X62293740Y-69352160D01*
X62293740Y-70401410D01*
X62377330Y-70485000D01*
X62275960Y-70586370D01*
X62021960Y-70586370D01*
X61938370Y-70502780D01*
X62039740Y-70401410D01*
X62039740Y-69352160D01*
X62019740Y-69352160D01*
X62019740Y-69098160D01*
X62039740Y-69098160D01*
X62039740Y-68048910D01*
X62293740Y-68048910D01*
X62293740Y-69098160D01*
X63130490Y-69098160D01*
X63289240Y-68939410D01*
X63292312Y-68525160D01*
X63280052Y-68400678D01*
X63243742Y-68280980D01*
X63184777Y-68170666D01*
X63105425Y-68073975D01*
X63008734Y-67994623D01*
X62898420Y-67935658D01*
X62778722Y-67899348D01*
X62654240Y-67887088D01*
X62452490Y-67890160D01*
X62293740Y-68048910D01*
X62039740Y-68048910D01*
X61880990Y-67890160D01*
X61679240Y-67887088D01*
X61554758Y-67899348D01*
X61435060Y-67935658D01*
X61324746Y-67994623D01*
X61228055Y-68073975D01*
X61164248Y-68151724D01*
X61159032Y-68145368D01*
X61025404Y-68035702D01*
X60872949Y-67954213D01*
X60707525Y-67904032D01*
X60535490Y-67887088D01*
X60047990Y-67887088D01*
X59875955Y-67904032D01*
X59710531Y-67954213D01*
X59558076Y-68035702D01*
X59424448Y-68145368D01*
X59314782Y-68278996D01*
X59282089Y-68340160D01*
X56005310Y-68340160D01*
X55978637Y-68300241D01*
X55778759Y-68100363D01*
X55546241Y-67945000D01*
X55778759Y-67789637D01*
X55978637Y-67589759D01*
X56135680Y-67354727D01*
X56243853Y-67093574D01*
X56299000Y-66816335D01*
X56299000Y-66533665D01*
X56243853Y-66256426D01*
X56135680Y-65995273D01*
X55978637Y-65760241D01*
X55778759Y-65560363D01*
X55546241Y-65405000D01*
X55778759Y-65249637D01*
X55978637Y-65049759D01*
X55998521Y-65020000D01*
X59223669Y-65020000D01*
X59256362Y-65081164D01*
X59366028Y-65214792D01*
X59499656Y-65324458D01*
X59652111Y-65405947D01*
X59817535Y-65456128D01*
X59989570Y-65473072D01*
X60477070Y-65473072D01*
X60649105Y-65456128D01*
X60814529Y-65405947D01*
X60966984Y-65324458D01*
X61100612Y-65214792D01*
X61105828Y-65208436D01*
X61169635Y-65286185D01*
X61266326Y-65365537D01*
X61376640Y-65424502D01*
X61496338Y-65460812D01*
X61620820Y-65473072D01*
X61822570Y-65470000D01*
X61981320Y-65311250D01*
X61981320Y-64262000D01*
X62235320Y-64262000D01*
X62235320Y-65311250D01*
X62394070Y-65470000D01*
X62595820Y-65473072D01*
X62720302Y-65460812D01*
X62840000Y-65424502D01*
X62950314Y-65365537D01*
X63047005Y-65286185D01*
X63126357Y-65189494D01*
X63185322Y-65079180D01*
X63221632Y-64959482D01*
X63233892Y-64835000D01*
X63230820Y-64420750D01*
X63072070Y-64262000D01*
X62235320Y-64262000D01*
X61981320Y-64262000D01*
X61961320Y-64262000D01*
X61961320Y-64008000D01*
X61981320Y-64008000D01*
X61981320Y-62958750D01*
X61882490Y-62859920D01*
X61968620Y-62773790D01*
X61968620Y-61724540D01*
X62222620Y-61724540D01*
X62222620Y-62773790D01*
X62321450Y-62872620D01*
X62235320Y-62958750D01*
X62235320Y-64008000D01*
X63072070Y-64008000D01*
X63230820Y-63849250D01*
X63233892Y-63435000D01*
X63221632Y-63310518D01*
X63185322Y-63190820D01*
X63126357Y-63080506D01*
X63047005Y-62983815D01*
X62950314Y-62904463D01*
X62872511Y-62862876D01*
X62937614Y-62828077D01*
X63034305Y-62748725D01*
X63113657Y-62652034D01*
X63172622Y-62541720D01*
X63208932Y-62422022D01*
X63221192Y-62297540D01*
X63218120Y-61883290D01*
X63059370Y-61724540D01*
X62222620Y-61724540D01*
X61968620Y-61724540D01*
X61948620Y-61724540D01*
X61948620Y-61470540D01*
X61968620Y-61470540D01*
X61968620Y-60421290D01*
X62222620Y-60421290D01*
X62222620Y-61470540D01*
X63059370Y-61470540D01*
X63218120Y-61311790D01*
X63221192Y-60897540D01*
X63208932Y-60773058D01*
X63172622Y-60653360D01*
X63113657Y-60543046D01*
X63034305Y-60446355D01*
X62937614Y-60367003D01*
X62879353Y-60335861D01*
X62978254Y-60282997D01*
X63074945Y-60203645D01*
X63154297Y-60106954D01*
X63213262Y-59996640D01*
X63249572Y-59876942D01*
X63261832Y-59752460D01*
X63258760Y-59338210D01*
X63100010Y-59179460D01*
X62263260Y-59179460D01*
X62263260Y-60228710D01*
X62339230Y-60304680D01*
X62222620Y-60421290D01*
X61968620Y-60421290D01*
X61892650Y-60345320D01*
X62009260Y-60228710D01*
X62009260Y-59179460D01*
X61989260Y-59179460D01*
X61989260Y-58925460D01*
X62009260Y-58925460D01*
X62009260Y-57876210D01*
X62263260Y-57876210D01*
X62263260Y-58925460D01*
X63100010Y-58925460D01*
X63258760Y-58766710D01*
X63261832Y-58352460D01*
X63249572Y-58227978D01*
X63213262Y-58108280D01*
X63154297Y-57997966D01*
X63074945Y-57901275D01*
X62978254Y-57821923D01*
X62915527Y-57788394D01*
X62990954Y-57748077D01*
X63087645Y-57668725D01*
X63166997Y-57572034D01*
X63225962Y-57461720D01*
X63262272Y-57342022D01*
X63274532Y-57217540D01*
X63271460Y-56803290D01*
X63112710Y-56644540D01*
X62275960Y-56644540D01*
X62275960Y-57693790D01*
X62360820Y-57778650D01*
X62263260Y-57876210D01*
X62009260Y-57876210D01*
X61924400Y-57791350D01*
X62021960Y-57693790D01*
X62021960Y-56644540D01*
X62001960Y-56644540D01*
X62001960Y-56390540D01*
X62021960Y-56390540D01*
X62021960Y-55341290D01*
X62275960Y-55341290D01*
X62275960Y-56390540D01*
X63112710Y-56390540D01*
X63271460Y-56231790D01*
X63274532Y-55817540D01*
X63262272Y-55693058D01*
X63225962Y-55573360D01*
X63166997Y-55463046D01*
X63087645Y-55366355D01*
X62990954Y-55287003D01*
X62880640Y-55228038D01*
X62760942Y-55191728D01*
X62636460Y-55179468D01*
X62434710Y-55182540D01*
X62275960Y-55341290D01*
X62021960Y-55341290D01*
X61863210Y-55182540D01*
X61661460Y-55179468D01*
X61536978Y-55191728D01*
X61417280Y-55228038D01*
X61306966Y-55287003D01*
X61210275Y-55366355D01*
X61146468Y-55444104D01*
X61141252Y-55437748D01*
X61007624Y-55328082D01*
X60855169Y-55246593D01*
X60689745Y-55196412D01*
X60517710Y-55179468D01*
X60030210Y-55179468D01*
X59858175Y-55196412D01*
X59692751Y-55246593D01*
X59540296Y-55328082D01*
X59406668Y-55437748D01*
X59297002Y-55571376D01*
X59264309Y-55632540D01*
X56000218Y-55632540D01*
X55978637Y-55600241D01*
X55778759Y-55400363D01*
X55546241Y-55245000D01*
X55778759Y-55089637D01*
X55978637Y-54889759D01*
X56135680Y-54654727D01*
X56243853Y-54393574D01*
X56299000Y-54116335D01*
X56299000Y-53833665D01*
X56243853Y-53556426D01*
X56135680Y-53295273D01*
X55978637Y-53060241D01*
X55778759Y-52860363D01*
X55546241Y-52705000D01*
X55778759Y-52549637D01*
X55978637Y-52349759D01*
X56135680Y-52114727D01*
X56243853Y-51853574D01*
X56299000Y-51576335D01*
X56299000Y-51293665D01*
X56243853Y-51016426D01*
X56135680Y-50755273D01*
X55978637Y-50520241D01*
X55778759Y-50320363D01*
X55546241Y-50165000D01*
X55778759Y-50009637D01*
X55978637Y-49809759D01*
X56135680Y-49574727D01*
X56243853Y-49313574D01*
X56299000Y-49036335D01*
X56299000Y-48753665D01*
X56243853Y-48476426D01*
X56135680Y-48215273D01*
X55978637Y-47980241D01*
X55778759Y-47780363D01*
X55546241Y-47625000D01*
X55778759Y-47469637D01*
X55978637Y-47269759D01*
X56135680Y-47034727D01*
X56243853Y-46773574D01*
X56299000Y-46496335D01*
X56299000Y-46213665D01*
X56243853Y-45936426D01*
X56135680Y-45675273D01*
X55978637Y-45440241D01*
X55778759Y-45240363D01*
X55546241Y-45085000D01*
X55778759Y-44929637D01*
X55978637Y-44729759D01*
X56135680Y-44494727D01*
X56243853Y-44233574D01*
X56299000Y-43956335D01*
X56299000Y-43673665D01*
X56243853Y-43396426D01*
X56135680Y-43135273D01*
X55978637Y-42900241D01*
X55780039Y-42701643D01*
X55788482Y-42700812D01*
X55908180Y-42664502D01*
X56018494Y-42605537D01*
X56115185Y-42526185D01*
X56194537Y-42429494D01*
X56253502Y-42319180D01*
X56289812Y-42199482D01*
X56302072Y-42075000D01*
X56302072Y-41133665D01*
X68669000Y-41133665D01*
X68669000Y-41416335D01*
X68724147Y-41693574D01*
X68832320Y-41954727D01*
X68989363Y-42189759D01*
X69189241Y-42389637D01*
X69421759Y-42545000D01*
X69189241Y-42700363D01*
X68989363Y-42900241D01*
X68832320Y-43135273D01*
X68724147Y-43396426D01*
X68669000Y-43673665D01*
X68669000Y-43956335D01*
X68724147Y-44233574D01*
X68832320Y-44494727D01*
X68989363Y-44729759D01*
X69189241Y-44929637D01*
X69421759Y-45085000D01*
X69189241Y-45240363D01*
X68989363Y-45440241D01*
X68832320Y-45675273D01*
X68724147Y-45936426D01*
X68669000Y-46213665D01*
X68669000Y-46496335D01*
X68724147Y-46773574D01*
X68832320Y-47034727D01*
X68989363Y-47269759D01*
X69189241Y-47469637D01*
X69421759Y-47625000D01*
X69189241Y-47780363D01*
X68989363Y-47980241D01*
X68832320Y-48215273D01*
X68724147Y-48476426D01*
X68669000Y-48753665D01*
X68669000Y-49036335D01*
X68724147Y-49313574D01*
X68832320Y-49574727D01*
X68989363Y-49809759D01*
X69189241Y-50009637D01*
X69421759Y-50165000D01*
X69189241Y-50320363D01*
X68989363Y-50520241D01*
X68832320Y-50755273D01*
X68724147Y-51016426D01*
X68669000Y-51293665D01*
X68669000Y-51576335D01*
X68724147Y-51853574D01*
X68832320Y-52114727D01*
X68989363Y-52349759D01*
X69189241Y-52549637D01*
X69421759Y-52705000D01*
X69189241Y-52860363D01*
X68989363Y-53060241D01*
X68832320Y-53295273D01*
X68724147Y-53556426D01*
X68669000Y-53833665D01*
X68669000Y-54116335D01*
X68724147Y-54393574D01*
X68832320Y-54654727D01*
X68989363Y-54889759D01*
X69189241Y-55089637D01*
X69421759Y-55245000D01*
X69189241Y-55400363D01*
X68989363Y-55600241D01*
X68832320Y-55835273D01*
X68724147Y-56096426D01*
X68669000Y-56373665D01*
X68669000Y-56656335D01*
X68724147Y-56933574D01*
X68832320Y-57194727D01*
X68989363Y-57429759D01*
X69189241Y-57629637D01*
X69421759Y-57785000D01*
X69189241Y-57940363D01*
X68989363Y-58140241D01*
X68832320Y-58375273D01*
X68724147Y-58636426D01*
X68669000Y-58913665D01*
X68669000Y-59196335D01*
X68724147Y-59473574D01*
X68832320Y-59734727D01*
X68989363Y-59969759D01*
X69189241Y-60169637D01*
X69421759Y-60325000D01*
X69189241Y-60480363D01*
X68989363Y-60680241D01*
X68832320Y-60915273D01*
X68724147Y-61176426D01*
X68669000Y-61453665D01*
X68669000Y-61736335D01*
X68724147Y-62013574D01*
X68832320Y-62274727D01*
X68989363Y-62509759D01*
X69189241Y-62709637D01*
X69421759Y-62865000D01*
X69189241Y-63020363D01*
X68989363Y-63220241D01*
X68832320Y-63455273D01*
X68724147Y-63716426D01*
X68669000Y-63993665D01*
X68669000Y-64276335D01*
X68724147Y-64553574D01*
X68832320Y-64814727D01*
X68989363Y-65049759D01*
X69189241Y-65249637D01*
X69421759Y-65405000D01*
X69189241Y-65560363D01*
X68989363Y-65760241D01*
X68832320Y-65995273D01*
X68724147Y-66256426D01*
X68669000Y-66533665D01*
X68669000Y-66816335D01*
X68724147Y-67093574D01*
X68832320Y-67354727D01*
X68989363Y-67589759D01*
X69189241Y-67789637D01*
X69424273Y-67946680D01*
X69434865Y-67951067D01*
X69248869Y-68062615D01*
X69040481Y-68251586D01*
X68872963Y-68477580D01*
X68752754Y-68731913D01*
X68712096Y-68865961D01*
X68834085Y-69088000D01*
X69977000Y-69088000D01*
X69977000Y-69068000D01*
X70231000Y-69068000D01*
X70231000Y-69088000D01*
X71373915Y-69088000D01*
X71495904Y-68865961D01*
X71455246Y-68731913D01*
X71335037Y-68477580D01*
X71167519Y-68251586D01*
X70959131Y-68062615D01*
X70773135Y-67951067D01*
X70783727Y-67946680D01*
X71018759Y-67789637D01*
X71218637Y-67589759D01*
X71238521Y-67560000D01*
X72213229Y-67560000D01*
X72245922Y-67621164D01*
X72355588Y-67754792D01*
X72489216Y-67864458D01*
X72641671Y-67945947D01*
X72807095Y-67996128D01*
X72979130Y-68013072D01*
X73466630Y-68013072D01*
X73638665Y-67996128D01*
X73804089Y-67945947D01*
X73956544Y-67864458D01*
X74090172Y-67754792D01*
X74160380Y-67669244D01*
X74212881Y-67733216D01*
X74212881Y-68450401D01*
X74208599Y-68493880D01*
X74225685Y-68667370D01*
X74276292Y-68834193D01*
X74358470Y-68987939D01*
X74441348Y-69088926D01*
X74441351Y-69088929D01*
X74469064Y-69122697D01*
X74502831Y-69150409D01*
X76210940Y-70858518D01*
X76189000Y-70968816D01*
X76189000Y-71271184D01*
X76247989Y-71567743D01*
X76363701Y-71847095D01*
X76531688Y-72098505D01*
X76745495Y-72312312D01*
X76996905Y-72480299D01*
X77276257Y-72596011D01*
X77572816Y-72655000D01*
X77875184Y-72655000D01*
X78171743Y-72596011D01*
X78451095Y-72480299D01*
X78702505Y-72312312D01*
X78768944Y-72245873D01*
X78774498Y-72264180D01*
X78833463Y-72374494D01*
X78912815Y-72471185D01*
X79009506Y-72550537D01*
X79119820Y-72609502D01*
X79239518Y-72645812D01*
X79364000Y-72658072D01*
X79978250Y-72655000D01*
X80137000Y-72496250D01*
X80137000Y-71247000D01*
X80391000Y-71247000D01*
X80391000Y-72496250D01*
X80549750Y-72655000D01*
X81164000Y-72658072D01*
X81288482Y-72645812D01*
X81408180Y-72609502D01*
X81518494Y-72550537D01*
X81615185Y-72471185D01*
X81694537Y-72374494D01*
X81753502Y-72264180D01*
X81789812Y-72144482D01*
X81802072Y-72020000D01*
X81799000Y-71405750D01*
X81640250Y-71247000D01*
X80391000Y-71247000D01*
X80137000Y-71247000D01*
X80117000Y-71247000D01*
X80117000Y-70993000D01*
X80137000Y-70993000D01*
X80137000Y-69743750D01*
X80391000Y-69743750D01*
X80391000Y-70993000D01*
X81640250Y-70993000D01*
X81799000Y-70834250D01*
X81802072Y-70220000D01*
X81789812Y-70095518D01*
X81753502Y-69975820D01*
X81694537Y-69865506D01*
X81615185Y-69768815D01*
X81518494Y-69689463D01*
X81408180Y-69630498D01*
X81288482Y-69594188D01*
X81164000Y-69581928D01*
X80549750Y-69585000D01*
X80391000Y-69743750D01*
X80137000Y-69743750D01*
X79978250Y-69585000D01*
X79364000Y-69581928D01*
X79239518Y-69594188D01*
X79119820Y-69630498D01*
X79009506Y-69689463D01*
X78912815Y-69768815D01*
X78833463Y-69865506D01*
X78774498Y-69975820D01*
X78768944Y-69994127D01*
X78702505Y-69927688D01*
X78451095Y-69759701D01*
X78171743Y-69643989D01*
X77875184Y-69585000D01*
X77572816Y-69585000D01*
X77462518Y-69606940D01*
X75982880Y-68127302D01*
X75982880Y-67733215D01*
X76074838Y-67621164D01*
X76156327Y-67468709D01*
X76206508Y-67303285D01*
X76223452Y-67131250D01*
X76223452Y-66218750D01*
X76206508Y-66046715D01*
X76156327Y-65881291D01*
X76074838Y-65728836D01*
X75965172Y-65595208D01*
X75831544Y-65485542D01*
X75691471Y-65410671D01*
X75829004Y-65337158D01*
X75962632Y-65227492D01*
X76072298Y-65093864D01*
X76104991Y-65032700D01*
X76479370Y-65032700D01*
X76541848Y-65126205D01*
X76755655Y-65340012D01*
X77007065Y-65507999D01*
X77286417Y-65623711D01*
X77582976Y-65682700D01*
X77885344Y-65682700D01*
X78181903Y-65623711D01*
X78461255Y-65507999D01*
X78712665Y-65340012D01*
X78779104Y-65273573D01*
X78784658Y-65291880D01*
X78843623Y-65402194D01*
X78922975Y-65498885D01*
X79019666Y-65578237D01*
X79129980Y-65637202D01*
X79249678Y-65673512D01*
X79374160Y-65685772D01*
X79988410Y-65682700D01*
X80147160Y-65523950D01*
X80147160Y-64274700D01*
X80401160Y-64274700D01*
X80401160Y-65523950D01*
X80559910Y-65682700D01*
X81174160Y-65685772D01*
X81298642Y-65673512D01*
X81418340Y-65637202D01*
X81528654Y-65578237D01*
X81625345Y-65498885D01*
X81704697Y-65402194D01*
X81763662Y-65291880D01*
X81799972Y-65172182D01*
X81812232Y-65047700D01*
X81809160Y-64433450D01*
X81650410Y-64274700D01*
X80401160Y-64274700D01*
X80147160Y-64274700D01*
X80127160Y-64274700D01*
X80127160Y-64020700D01*
X80147160Y-64020700D01*
X80147160Y-62771450D01*
X80401160Y-62771450D01*
X80401160Y-64020700D01*
X81650410Y-64020700D01*
X81809160Y-63861950D01*
X81812232Y-63247700D01*
X81799972Y-63123218D01*
X81763662Y-63003520D01*
X81704697Y-62893206D01*
X81625345Y-62796515D01*
X81528654Y-62717163D01*
X81418340Y-62658198D01*
X81298642Y-62621888D01*
X81174160Y-62609628D01*
X80559910Y-62612700D01*
X80401160Y-62771450D01*
X80147160Y-62771450D01*
X79988410Y-62612700D01*
X79374160Y-62609628D01*
X79249678Y-62621888D01*
X79129980Y-62658198D01*
X79019666Y-62717163D01*
X78922975Y-62796515D01*
X78843623Y-62893206D01*
X78784658Y-63003520D01*
X78779104Y-63021827D01*
X78712665Y-62955388D01*
X78461255Y-62787401D01*
X78181903Y-62671689D01*
X77885344Y-62612700D01*
X77582976Y-62612700D01*
X77286417Y-62671689D01*
X77007065Y-62787401D01*
X76755655Y-62955388D01*
X76541848Y-63169195D01*
X76479370Y-63262700D01*
X76104991Y-63262700D01*
X76072298Y-63201536D01*
X75962632Y-63067908D01*
X75829004Y-62958242D01*
X75676549Y-62876753D01*
X75663441Y-62872777D01*
X75694329Y-62863407D01*
X75846784Y-62781918D01*
X75980412Y-62672252D01*
X76090078Y-62538624D01*
X76171567Y-62386169D01*
X76221748Y-62220745D01*
X76238692Y-62048710D01*
X76238692Y-61136210D01*
X76221748Y-60964175D01*
X76171567Y-60798751D01*
X76130200Y-60721359D01*
X76130200Y-59741378D01*
X77462518Y-58409060D01*
X77572816Y-58431000D01*
X77875184Y-58431000D01*
X78171743Y-58372011D01*
X78451095Y-58256299D01*
X78702505Y-58088312D01*
X78768944Y-58021873D01*
X78774498Y-58040180D01*
X78833463Y-58150494D01*
X78912815Y-58247185D01*
X79009506Y-58326537D01*
X79119820Y-58385502D01*
X79239518Y-58421812D01*
X79364000Y-58434072D01*
X79978250Y-58431000D01*
X80137000Y-58272250D01*
X80137000Y-57023000D01*
X80391000Y-57023000D01*
X80391000Y-58272250D01*
X80549750Y-58431000D01*
X81164000Y-58434072D01*
X81288482Y-58421812D01*
X81408180Y-58385502D01*
X81518494Y-58326537D01*
X81615185Y-58247185D01*
X81694537Y-58150494D01*
X81753502Y-58040180D01*
X81789812Y-57920482D01*
X81802072Y-57796000D01*
X81799000Y-57181750D01*
X81640250Y-57023000D01*
X80391000Y-57023000D01*
X80137000Y-57023000D01*
X80117000Y-57023000D01*
X80117000Y-56769000D01*
X80137000Y-56769000D01*
X80137000Y-55519750D01*
X80391000Y-55519750D01*
X80391000Y-56769000D01*
X81640250Y-56769000D01*
X81799000Y-56610250D01*
X81802072Y-55996000D01*
X81789812Y-55871518D01*
X81753502Y-55751820D01*
X81694537Y-55641506D01*
X81615185Y-55544815D01*
X81518494Y-55465463D01*
X81408180Y-55406498D01*
X81288482Y-55370188D01*
X81164000Y-55357928D01*
X80549750Y-55361000D01*
X80391000Y-55519750D01*
X80137000Y-55519750D01*
X79978250Y-55361000D01*
X79364000Y-55357928D01*
X79239518Y-55370188D01*
X79119820Y-55406498D01*
X79009506Y-55465463D01*
X78912815Y-55544815D01*
X78833463Y-55641506D01*
X78774498Y-55751820D01*
X78768944Y-55770127D01*
X78702505Y-55703688D01*
X78451095Y-55535701D01*
X78171743Y-55419989D01*
X77875184Y-55361000D01*
X77572816Y-55361000D01*
X77276257Y-55419989D01*
X76996905Y-55535701D01*
X76745495Y-55703688D01*
X76531688Y-55917495D01*
X76363701Y-56168905D01*
X76247989Y-56448257D01*
X76189000Y-56744816D01*
X76189000Y-57047184D01*
X76210940Y-57157482D01*
X74650151Y-58718271D01*
X74616384Y-58745983D01*
X74588671Y-58779751D01*
X74588668Y-58779754D01*
X74505790Y-58880741D01*
X74423612Y-59034487D01*
X74373005Y-59201310D01*
X74355919Y-59374800D01*
X74360201Y-59418279D01*
X74360201Y-60418805D01*
X74245828Y-60512668D01*
X74175620Y-60598216D01*
X74105412Y-60512668D01*
X73971784Y-60403002D01*
X73819329Y-60321513D01*
X73653905Y-60271332D01*
X73481870Y-60254388D01*
X72994370Y-60254388D01*
X72822335Y-60271332D01*
X72656911Y-60321513D01*
X72504456Y-60403002D01*
X72370828Y-60512668D01*
X72261162Y-60646296D01*
X72227111Y-60710000D01*
X71238521Y-60710000D01*
X71218637Y-60680241D01*
X71018759Y-60480363D01*
X70786241Y-60325000D01*
X71018759Y-60169637D01*
X71218637Y-59969759D01*
X71375680Y-59734727D01*
X71483853Y-59473574D01*
X71539000Y-59196335D01*
X71539000Y-58913665D01*
X71483853Y-58636426D01*
X71375680Y-58375273D01*
X71218637Y-58140241D01*
X71018759Y-57940363D01*
X70786241Y-57785000D01*
X71018759Y-57629637D01*
X71218637Y-57429759D01*
X71375680Y-57194727D01*
X71483853Y-56933574D01*
X71539000Y-56656335D01*
X71539000Y-56373665D01*
X71483853Y-56096426D01*
X71375680Y-55835273D01*
X71218637Y-55600241D01*
X71018759Y-55400363D01*
X70786241Y-55245000D01*
X71018759Y-55089637D01*
X71218637Y-54889759D01*
X71375680Y-54654727D01*
X71483853Y-54393574D01*
X71539000Y-54116335D01*
X71539000Y-53833665D01*
X71483853Y-53556426D01*
X71375680Y-53295273D01*
X71218637Y-53060241D01*
X71018759Y-52860363D01*
X70786241Y-52705000D01*
X71018759Y-52549637D01*
X71218637Y-52349759D01*
X71375680Y-52114727D01*
X71483853Y-51853574D01*
X71539000Y-51576335D01*
X71539000Y-51293665D01*
X71483853Y-51016426D01*
X71375680Y-50755273D01*
X71218637Y-50520241D01*
X71018759Y-50320363D01*
X70786241Y-50165000D01*
X71018759Y-50009637D01*
X71218637Y-49809759D01*
X71375680Y-49574727D01*
X71483853Y-49313574D01*
X71539000Y-49036335D01*
X71539000Y-48753665D01*
X71483853Y-48476426D01*
X71375680Y-48215273D01*
X71218637Y-47980241D01*
X71018759Y-47780363D01*
X70786241Y-47625000D01*
X71018759Y-47469637D01*
X71218637Y-47269759D01*
X71375680Y-47034727D01*
X71483853Y-46773574D01*
X71505884Y-46662818D01*
X74166787Y-46662818D01*
X74658946Y-47265149D01*
X75509933Y-47735063D01*
X76436243Y-48029929D01*
X77402281Y-48138414D01*
X78370921Y-48056351D01*
X79304938Y-47786893D01*
X80168440Y-47340394D01*
X80281054Y-47265149D01*
X80773213Y-46662818D01*
X77470000Y-43359605D01*
X74166787Y-46662818D01*
X71505884Y-46662818D01*
X71539000Y-46496335D01*
X71539000Y-46213665D01*
X71483853Y-45936426D01*
X71375680Y-45675273D01*
X71218637Y-45440241D01*
X71018759Y-45240363D01*
X70786241Y-45085000D01*
X71018759Y-44929637D01*
X71218637Y-44729759D01*
X71375680Y-44494727D01*
X71483853Y-44233574D01*
X71539000Y-43956335D01*
X71539000Y-43673665D01*
X71483853Y-43396426D01*
X71375680Y-43135273D01*
X71360318Y-43112281D01*
X72511586Y-43112281D01*
X72593649Y-44080921D01*
X72863107Y-45014938D01*
X73309606Y-45878440D01*
X73384851Y-45991054D01*
X73987182Y-46483213D01*
X77290395Y-43180000D01*
X73987182Y-39876787D01*
X73384851Y-40368946D01*
X72914937Y-41219933D01*
X72620071Y-42146243D01*
X72511586Y-43112281D01*
X71360318Y-43112281D01*
X71218637Y-42900241D01*
X71018759Y-42700363D01*
X70786241Y-42545000D01*
X71018759Y-42389637D01*
X71218637Y-42189759D01*
X71375680Y-41954727D01*
X71483853Y-41693574D01*
X71539000Y-41416335D01*
X71539000Y-41133665D01*
X71483853Y-40856426D01*
X71375680Y-40595273D01*
X71218637Y-40360241D01*
X71018759Y-40160363D01*
X70783727Y-40003320D01*
X70522574Y-39895147D01*
X70245335Y-39840000D01*
X69962665Y-39840000D01*
X69685426Y-39895147D01*
X69424273Y-40003320D01*
X69189241Y-40160363D01*
X68989363Y-40360241D01*
X68832320Y-40595273D01*
X68724147Y-40856426D01*
X68669000Y-41133665D01*
X56302072Y-41133665D01*
X56302072Y-40475000D01*
X56289812Y-40350518D01*
X56253502Y-40230820D01*
X56194537Y-40120506D01*
X56115185Y-40023815D01*
X56018494Y-39944463D01*
X55908180Y-39885498D01*
X55788482Y-39849188D01*
X55664000Y-39836928D01*
X54064000Y-39836928D01*
X53939518Y-39849188D01*
X53819820Y-39885498D01*
X53709506Y-39944463D01*
X53612815Y-40023815D01*
X53533463Y-40120506D01*
X53474498Y-40230820D01*
X53438188Y-40350518D01*
X53425928Y-40475000D01*
X53425928Y-42075000D01*
X53438188Y-42199482D01*
X53474498Y-42319180D01*
X53533463Y-42429494D01*
X53612815Y-42526185D01*
X53709506Y-42605537D01*
X53819820Y-42664502D01*
X53939518Y-42700812D01*
X53947961Y-42701643D01*
X53749363Y-42900241D01*
X53592320Y-43135273D01*
X53484147Y-43396426D01*
X53429000Y-43673665D01*
X53429000Y-43956335D01*
X53484147Y-44233574D01*
X53592320Y-44494727D01*
X53749363Y-44729759D01*
X53949241Y-44929637D01*
X54181759Y-45085000D01*
X53949241Y-45240363D01*
X53749363Y-45440241D01*
X53592320Y-45675273D01*
X53484147Y-45936426D01*
X53429000Y-46213665D01*
X53429000Y-46496335D01*
X53484147Y-46773574D01*
X53592320Y-47034727D01*
X53749363Y-47269759D01*
X53949241Y-47469637D01*
X54181759Y-47625000D01*
X53949241Y-47780363D01*
X53749363Y-47980241D01*
X53592320Y-48215273D01*
X53484147Y-48476426D01*
X53429000Y-48753665D01*
X53429000Y-49036335D01*
X53484147Y-49313574D01*
X53592320Y-49574727D01*
X53749363Y-49809759D01*
X53949241Y-50009637D01*
X54181759Y-50165000D01*
X53949241Y-50320363D01*
X53749363Y-50520241D01*
X53592320Y-50755273D01*
X53484147Y-51016426D01*
X53429000Y-51293665D01*
X53429000Y-51576335D01*
X53484147Y-51853574D01*
X53592320Y-52114727D01*
X53749363Y-52349759D01*
X53949241Y-52549637D01*
X54181759Y-52705000D01*
X53949241Y-52860363D01*
X53749363Y-53060241D01*
X53592320Y-53295273D01*
X53484147Y-53556426D01*
X53429000Y-53833665D01*
X53429000Y-54116335D01*
X53435983Y-54151439D01*
X53018950Y-54568472D01*
X52985183Y-54596184D01*
X52957470Y-54629952D01*
X52957467Y-54629955D01*
X52874589Y-54730942D01*
X52792411Y-54884688D01*
X52741804Y-55051511D01*
X52724718Y-55225001D01*
X52729000Y-55268480D01*
X52728999Y-57779422D01*
X52234130Y-58274291D01*
X52179853Y-58001426D01*
X52071680Y-57740273D01*
X51914637Y-57505241D01*
X51714759Y-57305363D01*
X51482241Y-57150000D01*
X51714759Y-56994637D01*
X51914637Y-56794759D01*
X52071680Y-56559727D01*
X52179853Y-56298574D01*
X52235000Y-56021335D01*
X52235000Y-55738665D01*
X52179853Y-55461426D01*
X52071680Y-55200273D01*
X51914637Y-54965241D01*
X51714759Y-54765363D01*
X51482241Y-54610000D01*
X51714759Y-54454637D01*
X51914637Y-54254759D01*
X52071680Y-54019727D01*
X52179853Y-53758574D01*
X52235000Y-53481335D01*
X52235000Y-53198665D01*
X52179853Y-52921426D01*
X52071680Y-52660273D01*
X51914637Y-52425241D01*
X51714759Y-52225363D01*
X51479727Y-52068320D01*
X51469135Y-52063933D01*
X51655131Y-51952385D01*
X51863519Y-51763414D01*
X52031037Y-51537420D01*
X52151246Y-51283087D01*
X52191904Y-51149039D01*
X52069915Y-50927000D01*
X50927000Y-50927000D01*
X50927000Y-50947000D01*
X50673000Y-50947000D01*
X50673000Y-50927000D01*
X49530085Y-50927000D01*
X49408096Y-51149039D01*
X49448754Y-51283087D01*
X49568963Y-51537420D01*
X49736481Y-51763414D01*
X49944869Y-51952385D01*
X50130865Y-52063933D01*
X50120273Y-52068320D01*
X49885241Y-52225363D01*
X49685363Y-52425241D01*
X49528320Y-52660273D01*
X49420147Y-52921426D01*
X49365000Y-53198665D01*
X49365000Y-53481335D01*
X49420147Y-53758574D01*
X49528320Y-54019727D01*
X49685363Y-54254759D01*
X49885241Y-54454637D01*
X50117759Y-54610000D01*
X49885241Y-54765363D01*
X49685363Y-54965241D01*
X49528320Y-55200273D01*
X49420147Y-55461426D01*
X49365000Y-55738665D01*
X49365000Y-56021335D01*
X49420147Y-56298574D01*
X49528320Y-56559727D01*
X49685363Y-56794759D01*
X49885241Y-56994637D01*
X50117759Y-57150000D01*
X49885241Y-57305363D01*
X49685363Y-57505241D01*
X49528320Y-57740273D01*
X49420147Y-58001426D01*
X49365000Y-58278665D01*
X49365000Y-58561335D01*
X49420147Y-58838574D01*
X49528320Y-59099727D01*
X49685363Y-59334759D01*
X49885241Y-59534637D01*
X50117759Y-59690000D01*
X49885241Y-59845363D01*
X49685363Y-60045241D01*
X49665639Y-60074760D01*
X48533355Y-60074760D01*
X48421304Y-59982802D01*
X48268849Y-59901313D01*
X48103425Y-59851132D01*
X47931390Y-59834188D01*
X47018890Y-59834188D01*
X46846855Y-59851132D01*
X46681431Y-59901313D01*
X46528976Y-59982802D01*
X46395348Y-60092468D01*
X46285682Y-60226096D01*
X46204193Y-60378551D01*
X46154012Y-60543975D01*
X46137068Y-60716010D01*
X46137068Y-61203510D01*
X46154012Y-61375545D01*
X46204193Y-61540969D01*
X46285682Y-61693424D01*
X46395348Y-61827052D01*
X46480896Y-61897260D01*
X46395348Y-61967468D01*
X46285682Y-62101096D01*
X46204193Y-62253551D01*
X46154012Y-62418975D01*
X46137068Y-62591010D01*
X46137068Y-63078510D01*
X46154012Y-63250545D01*
X46204193Y-63415969D01*
X46285682Y-63568424D01*
X46395348Y-63702052D01*
X46528976Y-63811718D01*
X46585061Y-63841696D01*
X46585060Y-64019189D01*
X46523896Y-64051882D01*
X46390268Y-64161548D01*
X46280602Y-64295176D01*
X46199113Y-64447631D01*
X46148932Y-64613055D01*
X46131988Y-64785090D01*
X43884825Y-64785090D01*
X43862241Y-64770000D01*
X44094759Y-64614637D01*
X44294637Y-64414759D01*
X44451680Y-64179727D01*
X44559853Y-63918574D01*
X44615000Y-63641335D01*
X44615000Y-63358665D01*
X44559853Y-63081426D01*
X44451680Y-62820273D01*
X44294637Y-62585241D01*
X44094759Y-62385363D01*
X43862241Y-62230000D01*
X44094759Y-62074637D01*
X44294637Y-61874759D01*
X44451680Y-61639727D01*
X44559853Y-61378574D01*
X44615000Y-61101335D01*
X44615000Y-60818665D01*
X44559853Y-60541426D01*
X44451680Y-60280273D01*
X44294637Y-60045241D01*
X44094759Y-59845363D01*
X43862241Y-59690000D01*
X44094759Y-59534637D01*
X44294637Y-59334759D01*
X44451680Y-59099727D01*
X44559853Y-58838574D01*
X44615000Y-58561335D01*
X44615000Y-58278665D01*
X44559853Y-58001426D01*
X44451680Y-57740273D01*
X44294637Y-57505241D01*
X44094759Y-57305363D01*
X43862241Y-57150000D01*
X44094759Y-56994637D01*
X44294637Y-56794759D01*
X44451680Y-56559727D01*
X44559853Y-56298574D01*
X44615000Y-56021335D01*
X44615000Y-55738665D01*
X44559853Y-55461426D01*
X44451680Y-55200273D01*
X44294637Y-54965241D01*
X44094759Y-54765363D01*
X43862241Y-54610000D01*
X44094759Y-54454637D01*
X44294637Y-54254759D01*
X44451680Y-54019727D01*
X44559853Y-53758574D01*
X44615000Y-53481335D01*
X44615000Y-53198665D01*
X44559853Y-52921426D01*
X44451680Y-52660273D01*
X44294637Y-52425241D01*
X44094759Y-52225363D01*
X43862241Y-52070000D01*
X44094759Y-51914637D01*
X44294637Y-51714759D01*
X44451680Y-51479727D01*
X44559853Y-51218574D01*
X44615000Y-50941335D01*
X44615000Y-50658665D01*
X44573685Y-50450961D01*
X49408096Y-50450961D01*
X49530085Y-50673000D01*
X50673000Y-50673000D01*
X50673000Y-49529376D01*
X50927000Y-49529376D01*
X50927000Y-50673000D01*
X52069915Y-50673000D01*
X52191904Y-50450961D01*
X52151246Y-50316913D01*
X52031037Y-50062580D01*
X51863519Y-49836586D01*
X51655131Y-49647615D01*
X51413881Y-49502930D01*
X51149040Y-49408091D01*
X50927000Y-49529376D01*
X50673000Y-49529376D01*
X50450960Y-49408091D01*
X50186119Y-49502930D01*
X49944869Y-49647615D01*
X49736481Y-49836586D01*
X49568963Y-50062580D01*
X49448754Y-50316913D01*
X49408096Y-50450961D01*
X44573685Y-50450961D01*
X44559853Y-50381426D01*
X44451680Y-50120273D01*
X44294637Y-49885241D01*
X44094759Y-49685363D01*
X43859727Y-49528320D01*
X43598574Y-49420147D01*
X43321335Y-49365000D01*
X43038665Y-49365000D01*
X42761426Y-49420147D01*
X42500273Y-49528320D01*
X42265241Y-49685363D01*
X42065363Y-49885241D01*
X41908320Y-50120273D01*
X41800147Y-50381426D01*
X41745000Y-50658665D01*
X40030000Y-50658665D01*
X40030000Y-46662818D01*
X41146787Y-46662818D01*
X41638946Y-47265149D01*
X42489933Y-47735063D01*
X43416243Y-48029929D01*
X44382281Y-48138414D01*
X45350921Y-48056351D01*
X46284938Y-47786893D01*
X47148440Y-47340394D01*
X47261054Y-47265149D01*
X47753213Y-46662818D01*
X44450000Y-43359605D01*
X41146787Y-46662818D01*
X40030000Y-46662818D01*
X40030000Y-45376378D01*
X40289606Y-45878440D01*
X40364851Y-45991054D01*
X40967182Y-46483213D01*
X44270395Y-43180000D01*
X44629605Y-43180000D01*
X47932818Y-46483213D01*
X48535149Y-45991054D01*
X49005063Y-45140067D01*
X49299929Y-44213757D01*
X49408414Y-43247719D01*
X49326351Y-42279079D01*
X49056893Y-41345062D01*
X48610394Y-40481560D01*
X48535149Y-40368946D01*
X47932818Y-39876787D01*
X44629605Y-43180000D01*
X44270395Y-43180000D01*
X44256253Y-43165858D01*
X44435858Y-42986253D01*
X44450000Y-43000395D01*
X47753213Y-39697182D01*
X47261054Y-39094851D01*
X46654658Y-38760000D01*
X75273622Y-38760000D01*
X74771560Y-39019606D01*
M02*
