G04 #@! TF.GenerationSoftware,KiCad,Pcbnew,(5.1.6)-1*
G04 #@! TF.CreationDate,2020-06-08T09:52:31+03:00*
G04 #@! TF.ProjectId,Z80,5a38302e-6b69-4636-9164-5f7063625858,rev?*
G04 #@! TF.SameCoordinates,Original*
G04 #@! TF.FileFunction,Soldermask,Top*
G04 #@! TF.FilePolarity,Negative*
%FSLAX46Y46*%
G04 Gerber Fmt 4.6, Leading zero omitted, Abs format (unit mm)*
G04 Created by KiCad (PCBNEW (5.1.6)-1) date 2020-06-08 09:52:31*
%MOMM*%
%LPD*%
G01*
G04 APERTURE LIST*
%ADD10C,1.900000*%
%ADD11R,1.900000X1.900000*%
%ADD12O,1.700000X1.700000*%
%ADD13R,1.700000X1.700000*%
%ADD14C,1.000000*%
%ADD15C,8.700000*%
%ADD16R,1.800000X1.800000*%
%ADD17O,1.800000X1.800000*%
%ADD18R,2.850000X1.100000*%
G04 APERTURE END LIST*
D10*
X77724000Y-56896000D03*
D11*
X80264000Y-56896000D03*
D10*
X77734160Y-64147700D03*
D11*
X80274160Y-64147700D03*
D10*
X77724000Y-71120000D03*
D11*
X80264000Y-71120000D03*
D12*
X70104000Y-41275000D03*
X54864000Y-89535000D03*
X70104000Y-43815000D03*
X54864000Y-86995000D03*
X70104000Y-46355000D03*
X54864000Y-84455000D03*
X70104000Y-48895000D03*
X54864000Y-81915000D03*
X70104000Y-51435000D03*
X54864000Y-79375000D03*
X70104000Y-53975000D03*
X54864000Y-76835000D03*
X70104000Y-56515000D03*
X54864000Y-74295000D03*
X70104000Y-59055000D03*
X54864000Y-71755000D03*
X70104000Y-61595000D03*
X54864000Y-69215000D03*
X70104000Y-64135000D03*
X54864000Y-66675000D03*
X70104000Y-66675000D03*
X54864000Y-64135000D03*
X70104000Y-69215000D03*
X54864000Y-61595000D03*
X70104000Y-71755000D03*
X54864000Y-59055000D03*
X70104000Y-74295000D03*
X54864000Y-56515000D03*
X70104000Y-76835000D03*
X54864000Y-53975000D03*
X70104000Y-79375000D03*
X54864000Y-51435000D03*
X70104000Y-81915000D03*
X54864000Y-48895000D03*
X70104000Y-84455000D03*
X54864000Y-46355000D03*
X70104000Y-86995000D03*
X54864000Y-43815000D03*
X70104000Y-89535000D03*
D13*
X54864000Y-41275000D03*
D12*
X43180000Y-66040000D03*
X50800000Y-50800000D03*
X43180000Y-63500000D03*
X50800000Y-53340000D03*
X43180000Y-60960000D03*
X50800000Y-55880000D03*
X43180000Y-58420000D03*
X50800000Y-58420000D03*
X43180000Y-55880000D03*
X50800000Y-60960000D03*
X43180000Y-53340000D03*
X50800000Y-63500000D03*
X43180000Y-50800000D03*
D13*
X50800000Y-66040000D03*
D14*
X79750419Y-89159581D03*
X77470000Y-88215000D03*
X75189581Y-89159581D03*
X74245000Y-91440000D03*
X75189581Y-93720419D03*
X77470000Y-94665000D03*
X79750419Y-93720419D03*
X80695000Y-91440000D03*
D15*
X77470000Y-91440000D03*
D14*
X79750419Y-40899581D03*
X77470000Y-39955000D03*
X75189581Y-40899581D03*
X74245000Y-43180000D03*
X75189581Y-45460419D03*
X77470000Y-46405000D03*
X79750419Y-45460419D03*
X80695000Y-43180000D03*
D15*
X77470000Y-43180000D03*
D14*
X46730419Y-89159581D03*
X44450000Y-88215000D03*
X42169581Y-89159581D03*
X41225000Y-91440000D03*
X42169581Y-93720419D03*
X44450000Y-94665000D03*
X46730419Y-93720419D03*
X47675000Y-91440000D03*
D15*
X44450000Y-91440000D03*
D14*
X46730419Y-40899581D03*
X44450000Y-39955000D03*
X42169581Y-40899581D03*
X41225000Y-43180000D03*
X42169581Y-45460419D03*
X44450000Y-46405000D03*
X46730419Y-45460419D03*
X47675000Y-43180000D03*
D15*
X44450000Y-43180000D03*
D16*
X47752000Y-72136000D03*
D17*
X45212000Y-72136000D03*
D18*
X74082000Y-81502000D03*
X79842000Y-81502000D03*
X79842000Y-77502000D03*
X74082000Y-77502000D03*
M02*
