G04 #@! TF.GenerationSoftware,KiCad,Pcbnew,(5.1.6)-1*
G04 #@! TF.CreationDate,2020-06-08T09:52:31+03:00*
G04 #@! TF.ProjectId,Z80,5a38302e-6b69-4636-9164-5f7063625858,rev?*
G04 #@! TF.SameCoordinates,Original*
G04 #@! TF.FileFunction,Legend,Top*
G04 #@! TF.FilePolarity,Positive*
%FSLAX46Y46*%
G04 Gerber Fmt 4.6, Leading zero omitted, Abs format (unit mm)*
G04 Created by KiCad (PCBNEW (5.1.6)-1) date 2020-06-08 09:52:31*
%MOMM*%
%LPD*%
G01*
G04 APERTURE LIST*
%ADD10C,0.150000*%
%ADD11C,0.120000*%
G04 APERTURE END LIST*
D10*
X41310655Y-71643620D02*
X41215417Y-71596000D01*
X41072560Y-71596000D01*
X40929702Y-71643620D01*
X40834464Y-71738858D01*
X40786845Y-71834096D01*
X40739226Y-72024572D01*
X40739226Y-72167429D01*
X40786845Y-72357905D01*
X40834464Y-72453143D01*
X40929702Y-72548381D01*
X41072560Y-72596000D01*
X41167798Y-72596000D01*
X41310655Y-72548381D01*
X41358274Y-72500762D01*
X41358274Y-72167429D01*
X41167798Y-72167429D01*
X41786845Y-72596000D02*
X41786845Y-71596000D01*
X42358274Y-72596000D01*
X42358274Y-71596000D01*
X42834464Y-72596000D02*
X42834464Y-71596000D01*
X43072560Y-71596000D01*
X43215417Y-71643620D01*
X43310655Y-71738858D01*
X43358274Y-71834096D01*
X43405893Y-72024572D01*
X43405893Y-72167429D01*
X43358274Y-72357905D01*
X43310655Y-72453143D01*
X43215417Y-72548381D01*
X43072560Y-72596000D01*
X42834464Y-72596000D01*
X49440625Y-71945808D02*
X50202530Y-71945808D01*
X49821578Y-72326760D02*
X49821578Y-71564856D01*
X51154911Y-71326760D02*
X50678720Y-71326760D01*
X50631101Y-71802951D01*
X50678720Y-71755332D01*
X50773959Y-71707713D01*
X51012054Y-71707713D01*
X51107292Y-71755332D01*
X51154911Y-71802951D01*
X51202530Y-71898189D01*
X51202530Y-72136284D01*
X51154911Y-72231522D01*
X51107292Y-72279141D01*
X51012054Y-72326760D01*
X50773959Y-72326760D01*
X50678720Y-72279141D01*
X50631101Y-72231522D01*
X51488244Y-71326760D02*
X51821578Y-72326760D01*
X52154911Y-71326760D01*
X43759809Y-81431380D02*
X44426476Y-81431380D01*
X43759809Y-82431380D01*
X44426476Y-82431380D01*
X44950285Y-81859952D02*
X44855047Y-81812333D01*
X44807428Y-81764714D01*
X44759809Y-81669476D01*
X44759809Y-81621857D01*
X44807428Y-81526619D01*
X44855047Y-81479000D01*
X44950285Y-81431380D01*
X45140761Y-81431380D01*
X45236000Y-81479000D01*
X45283619Y-81526619D01*
X45331238Y-81621857D01*
X45331238Y-81669476D01*
X45283619Y-81764714D01*
X45236000Y-81812333D01*
X45140761Y-81859952D01*
X44950285Y-81859952D01*
X44855047Y-81907571D01*
X44807428Y-81955190D01*
X44759809Y-82050428D01*
X44759809Y-82240904D01*
X44807428Y-82336142D01*
X44855047Y-82383761D01*
X44950285Y-82431380D01*
X45140761Y-82431380D01*
X45236000Y-82383761D01*
X45283619Y-82336142D01*
X45331238Y-82240904D01*
X45331238Y-82050428D01*
X45283619Y-81955190D01*
X45236000Y-81907571D01*
X45140761Y-81859952D01*
X45950285Y-81431380D02*
X46045523Y-81431380D01*
X46140761Y-81479000D01*
X46188380Y-81526619D01*
X46236000Y-81621857D01*
X46283619Y-81812333D01*
X46283619Y-82050428D01*
X46236000Y-82240904D01*
X46188380Y-82336142D01*
X46140761Y-82383761D01*
X46045523Y-82431380D01*
X45950285Y-82431380D01*
X45855047Y-82383761D01*
X45807428Y-82336142D01*
X45759809Y-82240904D01*
X45712190Y-82050428D01*
X45712190Y-81812333D01*
X45759809Y-81621857D01*
X45807428Y-81526619D01*
X45855047Y-81479000D01*
X45950285Y-81431380D01*
X46569333Y-81764714D02*
X46950285Y-81764714D01*
X46712190Y-81431380D02*
X46712190Y-82288523D01*
X46759809Y-82383761D01*
X46855047Y-82431380D01*
X46950285Y-82431380D01*
X48045523Y-82431380D02*
X48045523Y-81764714D01*
X48045523Y-81955190D02*
X48093142Y-81859952D01*
X48140761Y-81812333D01*
X48236000Y-81764714D01*
X48331238Y-81764714D01*
X48664571Y-82336142D02*
X48712190Y-82383761D01*
X48664571Y-82431380D01*
X48616952Y-82383761D01*
X48664571Y-82336142D01*
X48664571Y-82431380D01*
X49093142Y-81526619D02*
X49140761Y-81479000D01*
X49236000Y-81431380D01*
X49474095Y-81431380D01*
X49569333Y-81479000D01*
X49616952Y-81526619D01*
X49664571Y-81621857D01*
X49664571Y-81717095D01*
X49616952Y-81859952D01*
X49045523Y-82431380D01*
X49664571Y-82431380D01*
X42878857Y-83081380D02*
X42974095Y-83081380D01*
X43069333Y-83129000D01*
X43116952Y-83176619D01*
X43164571Y-83271857D01*
X43212190Y-83462333D01*
X43212190Y-83700428D01*
X43164571Y-83890904D01*
X43116952Y-83986142D01*
X43069333Y-84033761D01*
X42974095Y-84081380D01*
X42878857Y-84081380D01*
X42783619Y-84033761D01*
X42736000Y-83986142D01*
X42688380Y-83890904D01*
X42640761Y-83700428D01*
X42640761Y-83462333D01*
X42688380Y-83271857D01*
X42736000Y-83176619D01*
X42783619Y-83129000D01*
X42878857Y-83081380D01*
X43783619Y-83509952D02*
X43688380Y-83462333D01*
X43640761Y-83414714D01*
X43593142Y-83319476D01*
X43593142Y-83271857D01*
X43640761Y-83176619D01*
X43688380Y-83129000D01*
X43783619Y-83081380D01*
X43974095Y-83081380D01*
X44069333Y-83129000D01*
X44116952Y-83176619D01*
X44164571Y-83271857D01*
X44164571Y-83319476D01*
X44116952Y-83414714D01*
X44069333Y-83462333D01*
X43974095Y-83509952D01*
X43783619Y-83509952D01*
X43688380Y-83557571D01*
X43640761Y-83605190D01*
X43593142Y-83700428D01*
X43593142Y-83890904D01*
X43640761Y-83986142D01*
X43688380Y-84033761D01*
X43783619Y-84081380D01*
X43974095Y-84081380D01*
X44069333Y-84033761D01*
X44116952Y-83986142D01*
X44164571Y-83890904D01*
X44164571Y-83700428D01*
X44116952Y-83605190D01*
X44069333Y-83557571D01*
X43974095Y-83509952D01*
X44593142Y-83986142D02*
X44640761Y-84033761D01*
X44593142Y-84081380D01*
X44545523Y-84033761D01*
X44593142Y-83986142D01*
X44593142Y-84081380D01*
X45259809Y-83081380D02*
X45355047Y-83081380D01*
X45450285Y-83129000D01*
X45497904Y-83176619D01*
X45545523Y-83271857D01*
X45593142Y-83462333D01*
X45593142Y-83700428D01*
X45545523Y-83890904D01*
X45497904Y-83986142D01*
X45450285Y-84033761D01*
X45355047Y-84081380D01*
X45259809Y-84081380D01*
X45164571Y-84033761D01*
X45116952Y-83986142D01*
X45069333Y-83890904D01*
X45021714Y-83700428D01*
X45021714Y-83462333D01*
X45069333Y-83271857D01*
X45116952Y-83176619D01*
X45164571Y-83129000D01*
X45259809Y-83081380D01*
X46450285Y-83081380D02*
X46259809Y-83081380D01*
X46164571Y-83129000D01*
X46116952Y-83176619D01*
X46021714Y-83319476D01*
X45974095Y-83509952D01*
X45974095Y-83890904D01*
X46021714Y-83986142D01*
X46069333Y-84033761D01*
X46164571Y-84081380D01*
X46355047Y-84081380D01*
X46450285Y-84033761D01*
X46497904Y-83986142D01*
X46545523Y-83890904D01*
X46545523Y-83652809D01*
X46497904Y-83557571D01*
X46450285Y-83509952D01*
X46355047Y-83462333D01*
X46164571Y-83462333D01*
X46069333Y-83509952D01*
X46021714Y-83557571D01*
X45974095Y-83652809D01*
X46974095Y-83986142D02*
X47021714Y-84033761D01*
X46974095Y-84081380D01*
X46926476Y-84033761D01*
X46974095Y-83986142D01*
X46974095Y-84081380D01*
X47402666Y-83176619D02*
X47450285Y-83129000D01*
X47545523Y-83081380D01*
X47783619Y-83081380D01*
X47878857Y-83129000D01*
X47926476Y-83176619D01*
X47974095Y-83271857D01*
X47974095Y-83367095D01*
X47926476Y-83509952D01*
X47355047Y-84081380D01*
X47974095Y-84081380D01*
X48593142Y-83081380D02*
X48688380Y-83081380D01*
X48783619Y-83129000D01*
X48831238Y-83176619D01*
X48878857Y-83271857D01*
X48926476Y-83462333D01*
X48926476Y-83700428D01*
X48878857Y-83890904D01*
X48831238Y-83986142D01*
X48783619Y-84033761D01*
X48688380Y-84081380D01*
X48593142Y-84081380D01*
X48497904Y-84033761D01*
X48450285Y-83986142D01*
X48402666Y-83890904D01*
X48355047Y-83700428D01*
X48355047Y-83462333D01*
X48402666Y-83271857D01*
X48450285Y-83176619D01*
X48497904Y-83129000D01*
X48593142Y-83081380D01*
X49307428Y-83176619D02*
X49355047Y-83129000D01*
X49450285Y-83081380D01*
X49688380Y-83081380D01*
X49783619Y-83129000D01*
X49831238Y-83176619D01*
X49878857Y-83271857D01*
X49878857Y-83367095D01*
X49831238Y-83509952D01*
X49259809Y-84081380D01*
X49878857Y-84081380D01*
X50497904Y-83081380D02*
X50593142Y-83081380D01*
X50688380Y-83129000D01*
X50736000Y-83176619D01*
X50783619Y-83271857D01*
X50831238Y-83462333D01*
X50831238Y-83700428D01*
X50783619Y-83890904D01*
X50736000Y-83986142D01*
X50688380Y-84033761D01*
X50593142Y-84081380D01*
X50497904Y-84081380D01*
X50402666Y-84033761D01*
X50355047Y-83986142D01*
X50307428Y-83890904D01*
X50259809Y-83700428D01*
X50259809Y-83462333D01*
X50307428Y-83271857D01*
X50355047Y-83176619D01*
X50402666Y-83129000D01*
X50497904Y-83081380D01*
X45497904Y-69889714D02*
X45497904Y-70556380D01*
X45259809Y-69508761D02*
X45021714Y-70223047D01*
X45640761Y-70223047D01*
X46212190Y-69556380D02*
X46307428Y-69556380D01*
X46402666Y-69604000D01*
X46450285Y-69651619D01*
X46497904Y-69746857D01*
X46545523Y-69937333D01*
X46545523Y-70175428D01*
X46497904Y-70365904D01*
X46450285Y-70461142D01*
X46402666Y-70508761D01*
X46307428Y-70556380D01*
X46212190Y-70556380D01*
X46116952Y-70508761D01*
X46069333Y-70461142D01*
X46021714Y-70365904D01*
X45974095Y-70175428D01*
X45974095Y-69937333D01*
X46021714Y-69746857D01*
X46069333Y-69651619D01*
X46116952Y-69604000D01*
X46212190Y-69556380D01*
X47021714Y-70556380D02*
X47212190Y-70556380D01*
X47307428Y-70508761D01*
X47355047Y-70461142D01*
X47450285Y-70318285D01*
X47497904Y-70127809D01*
X47497904Y-69746857D01*
X47450285Y-69651619D01*
X47402666Y-69604000D01*
X47307428Y-69556380D01*
X47116952Y-69556380D01*
X47021714Y-69604000D01*
X46974095Y-69651619D01*
X46926476Y-69746857D01*
X46926476Y-69984952D01*
X46974095Y-70080190D01*
X47021714Y-70127809D01*
X47116952Y-70175428D01*
X47307428Y-70175428D01*
X47402666Y-70127809D01*
X47450285Y-70080190D01*
X47497904Y-69984952D01*
X47831238Y-69556380D02*
X48450285Y-69556380D01*
X48116952Y-69937333D01*
X48259809Y-69937333D01*
X48355047Y-69984952D01*
X48402666Y-70032571D01*
X48450285Y-70127809D01*
X48450285Y-70365904D01*
X48402666Y-70461142D01*
X48355047Y-70508761D01*
X48259809Y-70556380D01*
X47974095Y-70556380D01*
X47878857Y-70508761D01*
X47831238Y-70461142D01*
X61198285Y-43648380D02*
X61864952Y-43648380D01*
X61198285Y-44648380D01*
X61864952Y-44648380D01*
X62388761Y-44076952D02*
X62293523Y-44029333D01*
X62245904Y-43981714D01*
X62198285Y-43886476D01*
X62198285Y-43838857D01*
X62245904Y-43743619D01*
X62293523Y-43696000D01*
X62388761Y-43648380D01*
X62579238Y-43648380D01*
X62674476Y-43696000D01*
X62722095Y-43743619D01*
X62769714Y-43838857D01*
X62769714Y-43886476D01*
X62722095Y-43981714D01*
X62674476Y-44029333D01*
X62579238Y-44076952D01*
X62388761Y-44076952D01*
X62293523Y-44124571D01*
X62245904Y-44172190D01*
X62198285Y-44267428D01*
X62198285Y-44457904D01*
X62245904Y-44553142D01*
X62293523Y-44600761D01*
X62388761Y-44648380D01*
X62579238Y-44648380D01*
X62674476Y-44600761D01*
X62722095Y-44553142D01*
X62769714Y-44457904D01*
X62769714Y-44267428D01*
X62722095Y-44172190D01*
X62674476Y-44124571D01*
X62579238Y-44076952D01*
X63388761Y-43648380D02*
X63484000Y-43648380D01*
X63579238Y-43696000D01*
X63626857Y-43743619D01*
X63674476Y-43838857D01*
X63722095Y-44029333D01*
X63722095Y-44267428D01*
X63674476Y-44457904D01*
X63626857Y-44553142D01*
X63579238Y-44600761D01*
X63484000Y-44648380D01*
X63388761Y-44648380D01*
X63293523Y-44600761D01*
X63245904Y-44553142D01*
X63198285Y-44457904D01*
X63150666Y-44267428D01*
X63150666Y-44029333D01*
X63198285Y-43838857D01*
X63245904Y-43743619D01*
X63293523Y-43696000D01*
X63388761Y-43648380D01*
D11*
X81494000Y-56896000D02*
G75*
G03*
X81494000Y-56896000I-2500000J0D01*
G01*
X81554000Y-58441000D02*
X81554000Y-55351000D01*
X76004000Y-56896462D02*
G75*
G02*
X81554000Y-55351170I2990000J462D01*
G01*
X76004000Y-56895538D02*
G75*
G03*
X81554000Y-58440830I2990000J-462D01*
G01*
X81504160Y-64147700D02*
G75*
G03*
X81504160Y-64147700I-2500000J0D01*
G01*
X81564160Y-65692700D02*
X81564160Y-62602700D01*
X76014160Y-64148162D02*
G75*
G02*
X81564160Y-62602870I2990000J462D01*
G01*
X76014160Y-64147238D02*
G75*
G03*
X81564160Y-65692530I2990000J-462D01*
G01*
X81494000Y-71120000D02*
G75*
G03*
X81494000Y-71120000I-2500000J0D01*
G01*
X81554000Y-72665000D02*
X81554000Y-69575000D01*
X76004000Y-71120462D02*
G75*
G02*
X81554000Y-69575170I2990000J462D01*
G01*
X76004000Y-71119538D02*
G75*
G03*
X81554000Y-72664830I2990000J-462D01*
G01*
X71434000Y-39885000D02*
X53534000Y-39885000D01*
X71434000Y-90925000D02*
X71434000Y-39885000D01*
X53534000Y-90925000D02*
X71434000Y-90925000D01*
X53534000Y-39885000D02*
X53534000Y-90925000D01*
X68944000Y-39945000D02*
X63484000Y-39945000D01*
X68944000Y-90865000D02*
X68944000Y-39945000D01*
X56024000Y-90865000D02*
X68944000Y-90865000D01*
X56024000Y-39945000D02*
X56024000Y-90865000D01*
X61484000Y-39945000D02*
X56024000Y-39945000D01*
X63484000Y-39945000D02*
G75*
G02*
X61484000Y-39945000I-1000000J0D01*
G01*
X41850000Y-67430000D02*
X52130000Y-67430000D01*
X41850000Y-49410000D02*
X41850000Y-67430000D01*
X52130000Y-49410000D02*
X41850000Y-49410000D01*
X52130000Y-67430000D02*
X52130000Y-49410000D01*
X44340000Y-67370000D02*
X45990000Y-67370000D01*
X44340000Y-49470000D02*
X44340000Y-67370000D01*
X49640000Y-49470000D02*
X44340000Y-49470000D01*
X49640000Y-67370000D02*
X49640000Y-49470000D01*
X47990000Y-67370000D02*
X49640000Y-67370000D01*
X45990000Y-67370000D02*
G75*
G02*
X47990000Y-67370000I1000000J0D01*
G01*
X43882000Y-70806000D02*
X43882000Y-73466000D01*
X46482000Y-70806000D02*
X43882000Y-70806000D01*
X46482000Y-73466000D02*
X43882000Y-73466000D01*
X46482000Y-70806000D02*
X46482000Y-73466000D01*
X47752000Y-70806000D02*
X49082000Y-70806000D01*
X49082000Y-70806000D02*
X49082000Y-72136000D01*
X80112000Y-76852000D02*
X80112000Y-76402000D01*
X80112000Y-76402000D02*
X73812000Y-76402000D01*
X73812000Y-76402000D02*
X73812000Y-76802000D01*
X80112000Y-78152000D02*
X80112000Y-80852000D01*
X73812000Y-80852000D02*
X73812000Y-78152000D01*
X80112000Y-82602000D02*
X73812000Y-82602000D01*
X73812000Y-82602000D02*
X73812000Y-82152000D01*
X80112000Y-82152000D02*
X80112000Y-82602000D01*
D10*
X73602624Y-57399180D02*
X73602624Y-56399180D01*
X73840720Y-56399180D01*
X73983577Y-56446800D01*
X74078815Y-56542038D01*
X74126434Y-56637276D01*
X74174053Y-56827752D01*
X74174053Y-56970609D01*
X74126434Y-57161085D01*
X74078815Y-57256323D01*
X73983577Y-57351561D01*
X73840720Y-57399180D01*
X73602624Y-57399180D01*
X74507386Y-56399180D02*
X75126434Y-56399180D01*
X74793100Y-56780133D01*
X74935958Y-56780133D01*
X75031196Y-56827752D01*
X75078815Y-56875371D01*
X75126434Y-56970609D01*
X75126434Y-57208704D01*
X75078815Y-57303942D01*
X75031196Y-57351561D01*
X74935958Y-57399180D01*
X74650243Y-57399180D01*
X74555005Y-57351561D01*
X74507386Y-57303942D01*
X73556904Y-64600080D02*
X73556904Y-63600080D01*
X73795000Y-63600080D01*
X73937857Y-63647700D01*
X74033095Y-63742938D01*
X74080714Y-63838176D01*
X74128333Y-64028652D01*
X74128333Y-64171509D01*
X74080714Y-64361985D01*
X74033095Y-64457223D01*
X73937857Y-64552461D01*
X73795000Y-64600080D01*
X73556904Y-64600080D01*
X74509285Y-63695319D02*
X74556904Y-63647700D01*
X74652142Y-63600080D01*
X74890238Y-63600080D01*
X74985476Y-63647700D01*
X75033095Y-63695319D01*
X75080714Y-63790557D01*
X75080714Y-63885795D01*
X75033095Y-64028652D01*
X74461666Y-64600080D01*
X75080714Y-64600080D01*
X73465464Y-71430140D02*
X73465464Y-70430140D01*
X73703560Y-70430140D01*
X73846417Y-70477760D01*
X73941655Y-70572998D01*
X73989274Y-70668236D01*
X74036893Y-70858712D01*
X74036893Y-71001569D01*
X73989274Y-71192045D01*
X73941655Y-71287283D01*
X73846417Y-71382521D01*
X73703560Y-71430140D01*
X73465464Y-71430140D01*
X74989274Y-71430140D02*
X74417845Y-71430140D01*
X74703560Y-71430140D02*
X74703560Y-70430140D01*
X74608321Y-70572998D01*
X74513083Y-70668236D01*
X74417845Y-70715855D01*
X61722095Y-41616380D02*
X61722095Y-42425904D01*
X61769714Y-42521142D01*
X61817333Y-42568761D01*
X61912571Y-42616380D01*
X62103047Y-42616380D01*
X62198285Y-42568761D01*
X62245904Y-42521142D01*
X62293523Y-42425904D01*
X62293523Y-41616380D01*
X62722095Y-41711619D02*
X62769714Y-41664000D01*
X62864952Y-41616380D01*
X63103047Y-41616380D01*
X63198285Y-41664000D01*
X63245904Y-41711619D01*
X63293523Y-41806857D01*
X63293523Y-41902095D01*
X63245904Y-42044952D01*
X62674476Y-42616380D01*
X63293523Y-42616380D01*
X46228095Y-67822380D02*
X46228095Y-68631904D01*
X46275714Y-68727142D01*
X46323333Y-68774761D01*
X46418571Y-68822380D01*
X46609047Y-68822380D01*
X46704285Y-68774761D01*
X46751904Y-68727142D01*
X46799523Y-68631904D01*
X46799523Y-67822380D01*
X47799523Y-68822380D02*
X47228095Y-68822380D01*
X47513809Y-68822380D02*
X47513809Y-67822380D01*
X47418571Y-67965238D01*
X47323333Y-68060476D01*
X47228095Y-68108095D01*
X45219786Y-74998840D02*
X45219786Y-73998840D01*
X45600739Y-73998840D01*
X45695977Y-74046460D01*
X45743596Y-74094079D01*
X45791215Y-74189317D01*
X45791215Y-74332174D01*
X45743596Y-74427412D01*
X45695977Y-74475031D01*
X45600739Y-74522650D01*
X45219786Y-74522650D01*
X46124548Y-73998840D02*
X46362643Y-74998840D01*
X46553120Y-74284555D01*
X46743596Y-74998840D01*
X46981691Y-73998840D01*
X47362643Y-74998840D02*
X47362643Y-73998840D01*
X47600739Y-73998840D01*
X47743596Y-74046460D01*
X47838834Y-74141698D01*
X47886453Y-74236936D01*
X47934072Y-74427412D01*
X47934072Y-74570269D01*
X47886453Y-74760745D01*
X47838834Y-74855983D01*
X47743596Y-74951221D01*
X47600739Y-74998840D01*
X47362643Y-74998840D01*
X76414380Y-83854380D02*
X76081047Y-83378190D01*
X75842952Y-83854380D02*
X75842952Y-82854380D01*
X76223904Y-82854380D01*
X76319142Y-82902000D01*
X76366761Y-82949619D01*
X76414380Y-83044857D01*
X76414380Y-83187714D01*
X76366761Y-83282952D01*
X76319142Y-83330571D01*
X76223904Y-83378190D01*
X75842952Y-83378190D01*
X76795333Y-83806761D02*
X76938190Y-83854380D01*
X77176285Y-83854380D01*
X77271523Y-83806761D01*
X77319142Y-83759142D01*
X77366761Y-83663904D01*
X77366761Y-83568666D01*
X77319142Y-83473428D01*
X77271523Y-83425809D01*
X77176285Y-83378190D01*
X76985809Y-83330571D01*
X76890571Y-83282952D01*
X76842952Y-83235333D01*
X76795333Y-83140095D01*
X76795333Y-83044857D01*
X76842952Y-82949619D01*
X76890571Y-82902000D01*
X76985809Y-82854380D01*
X77223904Y-82854380D01*
X77366761Y-82902000D01*
X77652476Y-82854380D02*
X78223904Y-82854380D01*
X77938190Y-83854380D02*
X77938190Y-82854380D01*
M02*
