M48
; DRILL file {KiCad (5.1.6)-1} date 06/08/20 09:47:49
; FORMAT={3:3/ absolute / metric / suppress leading zeros}
; #@! TF.CreationDate,2020-06-08T09:47:49+03:00
; #@! TF.GenerationSoftware,Kicad,Pcbnew,(5.1.6)-1
FMAT,2
METRIC,TZ
T1C0.600
T2C0.800
T3C0.900
T4C1.000
T5C4.300
%
G90
G05
T1
X42170Y-45460
X74245Y-91440
X75190Y-89160
X77470Y-88215
X79750Y-89160
X41225Y-91440
X74245Y-43180
X75190Y-40900
X75190Y-45460
X77470Y-39955
X77470Y-46405
X79750Y-40900
X79750Y-45460
X80695Y-43180
X41225Y-43180
X42170Y-40900
X44450Y-39955
X44450Y-46405
X46730Y-40900
X46730Y-45460
X47675Y-43180
X75190Y-93720
X77470Y-94665
X79750Y-93720
X80695Y-91440
X42170Y-89160
X42170Y-93720
X44450Y-88215
X44450Y-94665
X46730Y-89160
X46730Y-93720
X47675Y-91440
T2
X43180Y-50800
X43180Y-53340
X43180Y-55880
X43180Y-58420
X43180Y-60960
X43180Y-63500
X43180Y-66040
X50800Y-50800
X50800Y-53340
X50800Y-55880
X50800Y-58420
X50800Y-60960
X50800Y-63500
X50800Y-66040
X54864Y-41275
X54864Y-43815
X54864Y-46355
X54864Y-48895
X54864Y-51435
X54864Y-53975
X54864Y-56515
X54864Y-59055
X54864Y-61595
X54864Y-64135
X54864Y-66675
X54864Y-69215
X54864Y-71755
X54864Y-74295
X54864Y-76835
X54864Y-79375
X54864Y-81915
X54864Y-84455
X54864Y-86995
X54864Y-89535
X70104Y-41275
X70104Y-43815
X70104Y-46355
X70104Y-48895
X70104Y-51435
X70104Y-53975
X70104Y-56515
X70104Y-59055
X70104Y-61595
X70104Y-64135
X70104Y-66675
X70104Y-69215
X70104Y-71755
X70104Y-74295
X70104Y-76835
X70104Y-79375
X70104Y-81915
X70104Y-84455
X70104Y-86995
X70104Y-89535
T3
X77724Y-71120
X80264Y-71120
X77724Y-56896
X80264Y-56896
X77734Y-64148
X80274Y-64148
T4
X45212Y-72136
X47752Y-72136
T5
X77470Y-91440
X44450Y-91440
X77470Y-43180
X44450Y-43180
T0
M30
